<svg width="39" height="39" viewBox="0 0 39 39" fill="none" xmlns="http://www.w3.org/2000/svg">
<g>
<path d="M8.08019 25.2225L6.17731 22.793H0.794922V28.4401H8.08019V25.2225Z" fill="#FF634C"/>
<path d="M7.11083 20.7171L6.44209 22.7951H0.794922V4.40186H4.16305L5.03945 5.39595L4.71237 7.38405L5.48227 9.53841L4.55544 11.4126L5.81107 13.3052L5.36773 15.1735L6.44209 16.9845L5.86338 18.7634L7.11083 20.7171Z" fill="#DEDDE1"/>
<path d="M34.1784 28.4526H32.2949V39.5949H34.1784V28.4526Z" fill="#E59752"/>
<path d="M36.7314 24.2178H29.7422V28.4572H36.7314V24.2178Z" fill="#103358"/>
<path d="M26.2902 16.8847V14.598C26.2902 10.7049 23.1341 7.54883 19.241 7.54883C15.3478 7.54883 12.1918 10.7049 12.1918 14.598H12.1642V16.8847C11.1933 16.8847 10.4062 17.6718 10.4062 18.6426C10.4062 19.6135 11.1933 20.4005 12.1642 20.4005V21.7129C12.2488 22.8197 12.7885 23.805 13.6057 24.3447L17.8552 26.7741C18.7085 27.3376 19.7461 27.3376 20.5994 26.7741L24.8362 24.3447C25.6533 23.805 26.2057 22.8197 26.2904 21.7129V20.4005C27.2612 20.4005 28.0483 19.6135 28.0483 18.6426C28.0481 17.6718 27.261 16.8847 26.2902 16.8847Z" fill="#FFE7CF"/>
<path d="M16.064 25.894V27.4228C16.064 27.9336 15.757 28.3942 15.2854 28.5907L10.2347 30.6952C9.16763 31.1398 8.47266 32.3482 8.47266 33.5042V39.5953H29.9815V33.5042C29.9815 32.3483 29.2865 31.1397 28.2195 30.6952L23.1688 28.5907C22.6973 28.3943 22.3902 27.9336 22.3902 27.4228V25.894H16.064Z" fill="#FFE7CF"/>
<path d="M28.2194 30.6962L23.1687 28.5918C22.7781 28.4291 22.501 28.0848 22.4172 27.6811C21.7499 28.7375 20.5727 29.4397 19.2309 29.4397C17.8851 29.4397 16.7049 28.7334 16.0387 27.6719C15.9572 28.0795 15.6789 28.4278 15.2854 28.5918L10.2347 30.6962C9.16763 31.1409 8.47266 32.3493 8.47266 33.5053V39.5964H29.9815V33.5053C29.9815 32.3493 29.2864 31.1407 28.2194 30.6962Z" fill="#ECEBED"/>
<path d="M23.7042 28.8172V34.2835H14.7578V28.814L11.7363 30.0729V39.5987H26.7256V30.076L23.7042 28.8172Z" fill="#103358"/>
<path d="M28.0459 12.7089H27.5524C27.4191 10.6205 26.5241 8.677 25.0135 7.21138C23.8987 6.12973 22.5332 5.3917 21.0524 5.05086V3.86896C21.0524 3.69189 20.9248 3.54834 20.7674 3.54834H17.6887C17.5313 3.54834 17.4037 3.69189 17.4037 3.86896V5.01727C15.8643 5.34157 14.4434 6.09275 13.2905 7.2113C11.7799 8.67708 10.8849 10.6205 10.7516 12.7088H10.4101C10.2525 12.7088 10.125 12.8364 10.125 12.9939V14.5902C10.125 14.7477 10.2526 14.8753 10.4101 14.8753H28.0458C28.2032 14.8753 28.3308 14.7477 28.3308 14.5902V12.9939C28.331 12.8365 28.2034 12.7089 28.0459 12.7089Z" fill="#F7D04A"/>
<path d="M19.2404 35.0681H19.2301C18.7967 35.0681 18.4453 34.7167 18.4453 34.2833C18.4453 33.8499 18.7967 33.4985 19.2301 33.4985H19.2404C19.6737 33.4985 20.0252 33.8499 20.0252 34.2833C20.0252 34.7167 19.6737 35.0681 19.2404 35.0681Z" fill="black"/>
<path d="M19.2306 35.0681H19.2203C18.787 35.0681 18.4355 34.7167 18.4355 34.2833C18.4355 33.8499 18.787 33.4985 19.2203 33.4985H19.2306C19.664 33.4985 20.0154 33.8499 20.0154 34.2833C20.0154 34.7167 19.664 35.0681 19.2306 35.0681Z" fill="black"/>
<path d="M5.91081 35.3903L4.07956 33.5591L4.68998 32.9486C4.99646 32.6421 4.99646 32.1452 4.68998 31.8388C4.38341 31.5323 3.8867 31.5323 3.58007 31.8388L1.2494 34.1695C0.942909 34.476 0.942909 34.9728 1.2494 35.2793C1.40264 35.4326 1.60346 35.5092 1.80435 35.5092C2.00524 35.5092 2.20599 35.4325 2.3593 35.2793L2.96965 34.6689L4.80091 36.5001C4.95415 36.6533 5.15497 36.7299 5.35586 36.7299C5.55675 36.7299 5.75749 36.6533 5.91081 36.5001C6.21738 36.1936 6.21738 35.6967 5.91081 35.3903Z" fill="black"/>
<path d="M36.7312 23.4305H29.7417C29.3084 23.4305 28.9569 23.7819 28.9569 24.2153V28.4544C28.9569 28.8878 29.3084 29.2392 29.7417 29.2392H31.51V38.8122H30.766V33.5059C30.766 31.9761 29.8428 30.5232 28.5211 29.9724L23.4704 27.868C23.2908 27.7933 23.1747 27.6192 23.1747 27.4245V26.2026L25.2261 25.0264C25.2404 25.0181 25.2544 25.0095 25.2682 25.0004C26.2953 24.3221 26.9697 23.1158 27.0723 21.7735C27.0739 21.7537 27.0746 21.7337 27.0746 21.7137V21.0622C28.0937 20.7307 28.8324 19.7717 28.8324 18.6434C28.8324 17.5152 28.0936 16.556 27.0745 16.2246V15.6612H28.0445C28.6344 15.6612 29.1144 15.1814 29.1144 14.5914V12.9951C29.1144 12.4792 28.7473 12.0474 28.2608 11.9472C27.9744 9.93726 27.0302 8.07714 25.5586 6.64917C24.504 5.62592 23.2271 4.87308 21.8357 4.44958V3.87005C21.8357 3.26053 21.3559 2.76465 20.7658 2.76465H17.6872C17.0972 2.76465 16.6173 3.26053 16.6173 3.87005V4.40471C15.1665 4.81859 13.8372 5.58684 12.7425 6.64917C11.2596 8.08797 10.3123 9.96529 10.0338 11.9929C9.62817 12.1451 9.33875 12.5368 9.33875 12.9951V14.5914C9.33875 15.1813 9.81862 15.6612 10.4086 15.6612H11.3788V16.2246C10.3597 16.5561 9.62096 17.5151 9.62096 18.6434C9.62096 19.7716 10.3597 20.7307 11.3788 21.0621V21.7136C11.3788 21.7336 11.3795 21.7536 11.381 21.7735C11.4841 23.1212 12.1538 24.3275 13.1725 25.0003C13.1866 25.0096 13.2009 25.0184 13.2155 25.0268L15.2786 26.2062V27.4245C15.2786 27.619 15.1626 27.7931 14.983 27.868L9.93225 29.9724C8.61048 30.5232 7.68734 31.9762 7.68734 33.5058V38.8121H3.33361C2.90026 38.8121 2.54883 39.1635 2.54883 39.5969C2.54883 40.0303 2.90026 40.3817 3.33361 40.3817H35.12C35.5533 40.3817 35.9048 40.0303 35.9048 39.5969C35.9048 39.1635 35.5533 38.8121 35.12 38.8121H34.963V29.2392H36.7312C37.1646 29.2392 37.516 28.8878 37.516 28.4544V24.2153C37.516 23.7819 37.1645 23.4305 36.7312 23.4305ZM10.9086 13.4787C11.2487 13.409 11.5106 13.119 11.5335 12.7599C11.6543 10.8691 12.4719 9.09897 13.8359 7.77554C14.8727 6.76958 16.1618 6.08167 17.5641 5.78623C17.9273 5.70972 18.1871 5.38933 18.1871 5.01836V4.33421H20.2663V5.05188C20.2663 5.41751 20.5188 5.73467 20.8751 5.81667C22.223 6.12691 23.4646 6.8043 24.4657 7.77562C25.8295 9.09897 26.6472 10.8691 26.7679 12.76C26.7942 13.1711 27.1336 13.4916 27.5449 13.4947V14.0916H10.9086V13.4787ZM14.0184 23.6777C13.4188 23.2716 13.0207 22.5291 12.9484 21.682V20.4012C12.9484 19.9678 12.597 19.6164 12.1636 19.6164C11.6271 19.6164 11.1906 19.1798 11.1906 18.6434C11.1906 18.1069 11.6272 17.6703 12.1636 17.6703C12.597 17.6703 12.9484 17.319 12.9484 16.8855V15.6612H25.5049V16.8855C25.5049 17.319 25.8564 17.6703 26.2897 17.6703C26.8263 17.6703 27.2628 18.1069 27.2628 18.6434C27.2628 19.1798 26.8263 19.6164 26.2897 19.6164C25.8564 19.6164 25.5049 19.9678 25.5049 20.4012V21.6819C25.4337 22.5117 25.021 23.2723 24.4219 23.6779L20.2084 26.094C20.1942 26.1022 20.1801 26.1108 20.1664 26.12C19.578 26.5085 18.8756 26.5085 18.2872 26.12C18.2732 26.1107 18.2589 26.1019 18.2442 26.0935L14.0184 23.6777ZM21.6068 27.4721C21.0439 28.2169 20.1737 28.6555 19.2306 28.6555C18.2828 28.6555 17.4096 28.2135 16.847 27.4627C16.8472 27.4499 16.8484 27.4374 16.8484 27.4245V27.1034L17.4448 27.4443C17.9957 27.8021 18.6112 27.9809 19.2269 27.9809C19.8427 27.9809 20.4585 27.8019 21.0095 27.444L21.6052 27.1024V27.4245C21.6051 27.4405 21.6065 27.4562 21.6068 27.4721ZM10.9511 38.8122H9.25713V33.5059C9.25713 32.6214 9.80704 31.7251 10.5362 31.4213L10.9511 31.2484V38.8122ZM25.9405 38.8122H12.5207V30.5943L13.9726 29.9894V34.2817C13.9726 34.7152 14.324 35.0665 14.7574 35.0665H16.6815C17.1149 35.0665 17.4663 34.7152 17.4663 34.2817C17.4663 33.8483 17.1149 33.4969 16.6815 33.4969H15.5421V29.3354L15.5869 29.3167C15.7825 29.2351 15.9602 29.1257 16.1166 28.9947C16.9491 29.7787 18.0523 30.225 19.2305 30.225C20.4062 30.225 21.5082 29.7799 22.3406 28.9982C22.4962 29.1278 22.6726 29.236 22.8666 29.3168L22.919 29.3385V33.4969H21.7797C21.3463 33.4969 20.9949 33.8482 20.9949 34.2817C20.9949 34.7151 21.3463 35.0664 21.7797 35.0664H23.7038C24.1372 35.0664 24.4886 34.7151 24.4886 34.2817V29.9925L25.9405 30.5974V38.812V38.8122ZM29.1964 38.8122H27.51V31.2515L27.9173 31.4213C28.6465 31.7251 29.1963 32.6213 29.1963 33.5059V38.8122H29.1964ZM33.3934 38.8122H33.0795V29.2392H33.3934V38.8122ZM35.9464 27.6696H30.5264V25H35.9464V27.6696Z" fill="black"/>
<path d="M8.69768 24.739L7.23927 22.8769L7.85751 20.9557C7.92913 20.7331 7.89779 20.4901 7.7719 20.293L6.72392 18.6517L7.18794 17.2256C7.25776 17.0109 7.23183 16.7765 7.11662 16.5824L6.20407 15.0441L6.57414 13.4844C6.62434 13.273 6.58466 13.0504 6.46456 12.8694L5.45882 11.3535L6.18535 9.88447C6.27968 9.69372 6.29245 9.47284 6.2209 9.27247L5.51932 7.30924L5.81348 5.52142C5.85174 5.28896 5.78349 5.05162 5.62777 4.875L4.7513 3.88106C4.60234 3.71211 4.38784 3.61523 4.1626 3.61523H0.794547C0.361196 3.61523 0.00976562 3.96659 0.00976562 4.40002V28.4405C0.00976562 28.8739 0.361196 29.2253 0.794547 29.2253H8.07982C8.51317 29.2253 8.8646 28.8739 8.8646 28.4405V25.2229C8.8646 25.0475 8.80583 24.8771 8.69768 24.739ZM1.57933 5.1848H3.80831L4.20424 5.63393L3.93766 7.25483C3.91609 7.3862 3.92826 7.52095 3.97298 7.64639L4.6309 9.48727L3.8516 11.0629C3.72759 11.3137 3.74646 11.6116 3.90113 11.8447L4.96857 13.4535L4.60392 14.9906C4.55694 15.1886 4.58866 15.3971 4.69253 15.5722L5.58576 17.0778L5.11686 18.5189C5.04426 18.7422 5.07545 18.9862 5.20171 19.1841L6.25044 20.8266L5.87 22.0087H1.57933V5.1848ZM7.29504 27.6557H1.57933V23.5781H5.79477L7.29504 25.4937V27.6557Z" fill="black"/>
<path d="M4.67379 26.635H2.86877C2.43542 26.635 2.08398 26.2836 2.08398 25.8502C2.08398 25.4168 2.43542 25.0654 2.86877 25.0654H4.67379C5.10714 25.0654 5.45857 25.4168 5.45857 25.8502C5.45857 26.2836 5.10714 26.635 4.67379 26.635Z" fill="black"/>
<path d="M13.852 12.471C13.8339 12.471 13.8156 12.4704 13.7972 12.4691C13.3648 12.4392 13.0385 12.0645 13.0683 11.6321C13.1546 10.384 13.7339 9.21917 14.7001 8.35217C15.4241 7.70252 16.3226 7.25857 17.2987 7.06843C17.7236 6.98523 18.1361 7.26323 18.219 7.68862C18.302 8.11408 18.0242 8.52616 17.5989 8.60898C16.9011 8.74494 16.2613 9.06007 15.7486 9.52025C15.0879 10.1132 14.6921 10.9016 14.6342 11.7402C14.6056 12.1542 14.2609 12.471 13.852 12.471Z" fill="black"/>
</g>
</svg>
