<svg width="39" height="39" viewBox="0 0 39 39" fill="none" xmlns="http://www.w3.org/2000/svg">
<g>
<path d="M1.21484 37.239L3.25336 28.6234C4.02166 25.3763 6.92084 23.083 10.2576 23.083H16.3729H22.446H28.5689C31.9022 23.083 34.7993 25.3717 35.571 28.6144L37.6233 37.239H1.21484Z" fill="#36D28F"/>
<path d="M22.4461 19.0342V23.0828C20.7691 24.7599 18.0501 24.7599 16.373 23.0828V19.0342H22.4461Z" fill="#FFE7CF"/>
<path d="M22.6149 7.0588C20.9411 8.73258 18.671 9.67286 16.304 9.67286H13V8.03935C13 4.49896 15.8701 1.62891 19.4104 1.62891C22.9508 1.62891 25.8209 4.49896 25.8209 8.03935V9.67286H23.0712C22.2935 9.67286 21.5475 9.36386 20.9976 8.81395" fill="#FFC66C"/>
<path d="M13 9.67291V13.1129C13 16.6533 15.8701 19.5233 19.4104 19.5233C22.9508 19.5233 25.8209 16.6533 25.8209 13.1129V9.67291H24.0873C22.9284 9.67291 21.8264 9.17085 21.066 8.29639C19.868 9.19011 18.4134 9.67291 16.9189 9.67291H13Z" fill="#FFE7CF"/>
<path d="M27.0369 13.7215H25.8203V9.67285H27.0369C28.042 9.67285 28.8568 10.4876 28.8568 11.4927V11.9016C28.8568 12.9067 28.042 13.7215 27.0369 13.7215Z" fill="#FFE7CF"/>
<path d="M11.7828 13.7215H12.9994V9.67285H11.7828C10.7777 9.67285 9.96289 10.4876 9.96289 11.4927V11.9016C9.96289 12.9067 10.7777 13.7215 11.7828 13.7215Z" fill="#FFE7CF"/>
<path d="M31.0758 38.9368C31.0758 32.4993 25.8572 27.2808 19.4197 27.2808C12.9823 27.2808 7.76367 32.4994 7.76367 38.9368" fill="#898998"/>
<path d="M32.0695 38.9368L29.1239 33.9591L28.2291 34.5344C27.673 34.8918 26.9383 34.7823 26.5107 34.2783L24.8854 32.3629C24.5234 31.9362 24.4701 31.3275 24.7525 30.8444L25.8967 28.8867H29.2727L37.8244 37.4384C38.3773 37.9914 37.9857 38.9369 37.2037 38.9369H32.0695V38.9368Z" fill="#FFE7CF"/>
<path d="M30.0254 35.485L32.0682 38.937H37.2023C37.9844 38.937 38.3759 37.9915 37.823 37.4386L32.9474 32.563L30.0254 35.485Z" fill="#36D28F"/>
<path d="M6.77149 38.9368L9.71715 33.9591L10.6119 34.5344C11.168 34.8918 11.9028 34.7823 12.3304 34.2783L13.9556 32.3629C14.3176 31.9362 14.3709 31.3275 14.0885 30.8444L12.9443 28.8867H9.56837L1.01666 37.4384C0.463718 37.9914 0.8553 38.9369 1.63733 38.9369H6.77149V38.9368Z" fill="#FFE7CF"/>
<path d="M8.81433 35.485L6.77157 38.937H1.63733C0.8553 38.937 0.463718 37.9915 1.01666 37.4386L5.89225 32.563L8.81433 35.485Z" fill="#36D28F"/>
<path d="M27.8386 38.9369C27.8386 34.2876 24.0696 30.5186 19.4203 30.5186C14.771 30.5186 11.002 34.2876 11.002 38.9369H27.8386Z" fill="#EDF2FA"/>
<path d="M21.8222 38.937C21.8222 37.6108 20.7471 36.5356 19.4209 36.5356C18.0946 36.5356 17.0195 37.6108 17.0195 38.937H21.8222Z" fill="#898998"/>
<path d="M24.9441 22.5461C24.803 22.6872 24.7227 22.8828 24.7227 23.0822C24.7227 23.2824 24.803 23.4773 24.9441 23.6183C25.0859 23.7601 25.2808 23.8405 25.4802 23.8405C25.6804 23.8405 25.8753 23.7601 26.0171 23.6183C26.1581 23.4773 26.2385 23.2817 26.2385 23.0822C26.2385 22.8828 26.1581 22.6879 26.0171 22.5461C25.876 22.4052 25.6804 22.3247 25.4802 22.3247C25.2808 22.3247 25.0851 22.4051 24.9441 22.5461Z" fill="black"/>
<path d="M38.3601 36.9022L38.3122 36.8543L36.3096 28.4385C35.4529 24.8386 32.2702 22.3244 28.5698 22.3244H28.5132C28.0944 22.3244 27.7549 22.664 27.7549 23.0827C27.7549 23.5014 28.0944 23.841 28.5132 23.841H28.5698C31.5648 23.841 34.1408 25.8759 34.8342 28.7897L36.2664 34.8085L29.8083 28.3504C29.6661 28.2082 29.4732 28.1283 29.2721 28.1283H25.8962C25.8002 28.1283 25.7071 28.1472 25.6204 28.1811C23.7423 27.0963 21.6014 26.5223 19.42 26.5223C17.234 26.5223 15.0987 27.0949 13.2185 28.1807C13.1322 28.1471 13.0394 28.1283 12.9438 28.1283H9.56788C9.36678 28.1283 9.17387 28.2082 9.0317 28.3504L2.56893 34.8132L3.99216 28.7977C4.68266 25.8793 7.25949 23.841 10.2585 23.841H16.0761C16.9985 24.6537 18.17 25.0988 19.4104 25.0988C20.76 25.0988 22.0288 24.5732 22.9832 23.6189C23.1254 23.4766 23.2053 23.2838 23.2053 23.0827V19.192C24.8603 18.1552 26.0636 16.462 26.4479 14.4798H27.0376C28.4592 14.4798 29.6158 13.3233 29.6158 11.9016V11.4927C29.6158 10.071 28.4592 8.91448 27.0376 8.91448H26.5792V8.03934C26.5792 4.08644 23.3633 0.870605 19.4105 0.870605C15.4577 0.870605 12.2418 4.08644 12.2418 8.03934V8.91456H11.7835C10.3618 8.91456 9.20527 10.0711 9.20527 11.4928V11.9017C9.20527 13.3233 10.3618 14.4799 11.7835 14.4799H12.3731C12.7574 16.4621 13.9607 18.1553 15.6157 19.1921V22.3245H10.2587C8.47488 22.3245 6.72201 22.9339 5.32297 24.0406C3.92392 25.1473 2.92722 26.7127 2.51653 28.4486L0.527453 36.8547L0.479984 36.9022C0.0104501 37.3717 -0.128772 38.0716 0.125331 38.6852C0.379511 39.2988 0.972798 39.6951 1.63683 39.6951H6.771C7.03898 39.6951 7.28709 39.5537 7.42359 39.323L9.96849 35.0225L10.2014 35.1723C10.4282 35.3181 10.675 35.4132 10.9275 35.4617C10.487 36.5342 10.2434 37.7075 10.2434 38.9368C10.2434 39.3556 10.5829 39.6951 11.0017 39.6951C11.4205 39.6951 11.76 39.3556 11.76 38.9368C11.76 37.0974 12.4119 35.4076 13.4964 34.0857L16.7155 37.3048C16.4267 37.7814 16.2603 38.3401 16.2603 38.9368C16.2603 39.3556 16.5998 39.6951 17.0186 39.6951C17.4374 39.6951 17.7768 39.3556 17.7768 38.9368C17.7768 38.0309 18.5139 37.2938 19.4199 37.2938C20.3259 37.2938 21.063 38.0309 21.063 38.9368C21.063 39.3556 21.4025 39.6951 21.8213 39.6951C22.2401 39.6951 22.5796 39.3556 22.5796 38.9368C22.5796 38.3401 22.4131 37.7814 22.1244 37.3048L25.3434 34.0857C26.428 35.4077 27.0798 37.0975 27.0798 38.9369C27.0798 39.3556 27.4193 39.6952 27.8381 39.6952C28.2569 39.6952 28.5964 39.3556 28.5964 38.9369C28.5964 37.7076 28.3528 36.5343 27.9123 35.4618C28.1648 35.4133 28.4116 35.3182 28.6385 35.1724L28.8713 35.0226L31.4162 39.3231C31.5527 39.5538 31.8008 39.6952 32.0688 39.6952H37.203C37.867 39.6952 38.4604 39.2988 38.7145 38.6852C38.9688 38.0716 38.8296 37.3718 38.3601 36.9022ZM28.099 11.4928V11.9017C28.099 12.4871 27.6228 12.9633 27.0374 12.9633H26.5791V10.4311H27.0374C27.6228 10.4311 28.099 10.9074 28.099 11.4928ZM13.7582 8.03934C13.7582 4.92269 16.2938 2.38719 19.4104 2.38719C22.5269 2.38719 25.0625 4.92276 25.0625 8.03934V8.91456H23.0712C22.6738 8.91456 22.2926 8.8087 21.9601 8.61026C22.3797 8.30702 22.7779 7.96806 23.1511 7.59491C23.4472 7.29879 23.4472 6.81864 23.1511 6.52245C22.855 6.22642 22.3748 6.22642 22.0787 6.52245C20.5363 8.06497 18.4854 8.91448 16.3039 8.91448H13.7583V8.03934H13.7582ZM10.7217 11.9017V11.4928C10.7217 10.9074 11.1979 10.4311 11.7833 10.4311H12.2416V12.9633H11.7833C11.1979 12.9633 10.7217 12.4871 10.7217 11.9017ZM13.7583 13.1144V10.4311H16.3039C17.8054 10.4311 19.2548 10.0917 20.5642 9.44916C21.2484 10.0835 22.133 10.4311 23.0712 10.4311H25.0626V13.1128C25.0626 16.2295 22.527 18.765 19.4104 18.765C16.2942 18.7651 13.759 16.2303 13.7583 13.1144ZM19.4104 20.2817C20.2064 20.2817 20.9725 20.151 21.6886 19.9104V22.7507C20.377 23.8574 18.4437 23.8574 17.1321 22.7507V19.9104C17.8482 20.151 18.6143 20.2817 19.4104 20.2817ZM24.7123 29.4094L24.0973 30.4616C24.0101 30.6109 23.944 30.7681 23.8972 30.9291C22.572 30.1852 21.0448 29.7602 19.42 29.7602C17.7952 29.7602 16.268 30.1852 14.9428 30.9291C14.896 30.7681 14.8299 30.6109 14.7427 30.4617L14.1278 29.4097C15.7405 28.5123 17.5588 28.039 19.42 28.039C21.2774 28.039 23.1009 28.5127 24.7123 29.4094ZM6.33862 38.1785H1.63683C1.615 38.1785 1.55699 38.1785 1.52643 38.1048C1.49587 38.031 1.53689 37.99 1.55236 37.9746L5.86241 33.6645L7.83974 35.6418L6.33862 38.1785ZM10.1267 33.3214C9.95355 33.21 9.74252 33.1737 9.54195 33.2214C9.34153 33.2688 9.16902 33.3958 9.06415 33.5731L8.63723 34.2945L6.93494 32.5922L9.88212 29.645H12.5088L13.4335 31.2271C13.5533 31.432 13.5306 31.6913 13.377 31.8723L11.7518 33.7878C11.5708 34.0011 11.2568 34.0478 11.0215 33.8967L10.1267 33.3214ZM17.7879 36.2324L14.5689 33.0133C15.8908 31.9287 17.5807 31.2769 19.4201 31.2769C21.2595 31.2769 22.9493 31.9287 24.2712 33.0133L21.0521 36.2324C20.5755 35.9436 20.0168 35.7773 19.4201 35.7773C18.8232 35.7772 18.2646 35.9436 17.7879 36.2324ZM28.7133 33.3213L27.8185 33.8965C27.5832 34.0479 27.2693 34.001 27.0884 33.7877L25.4631 31.8722C25.3096 31.6912 25.2868 31.4319 25.4066 31.227L26.3313 29.645H28.958L31.9052 32.5921L30.2029 34.2944L29.776 33.573C29.6711 33.3957 29.4986 33.2688 29.2982 33.2213C29.0976 33.1738 28.8866 33.21 28.7133 33.3213ZM37.3135 38.1048C37.283 38.1786 37.2251 38.1786 37.2031 38.1786H32.5014L31.0002 35.642L32.9776 33.6647L37.2876 37.9747C37.3031 37.99 37.3441 38.0311 37.3135 38.1048Z" fill="black"/>
</g>
</svg>
