<svg width="39" height="39" viewBox="0 0 39 39" fill="none" xmlns="http://www.w3.org/2000/svg">
<g>
<path d="M6.24885 25.6706C8.96865 25.6706 11.1735 23.4657 11.1735 20.7459C11.1735 18.0261 8.96865 15.8213 6.24885 15.8213C3.52905 15.8213 1.32422 18.0261 1.32422 20.7459C1.32422 23.4657 3.52905 25.6706 6.24885 25.6706Z" fill="#FCEA81"/>
<path d="M10.3624 19.6025C9.33194 19.5568 8.51172 18.7066 8.51172 17.6654C8.51172 16.595 9.37932 15.7266 10.4505 15.7266C10.5469 15.7266 10.6417 15.7332 10.7347 15.7473L10.3624 19.6025Z" fill="#E0B394"/>
<path d="M27.882 19.6025C28.9125 19.5568 29.7336 18.7066 29.7336 17.6654C29.7336 16.595 28.8651 15.7266 27.7939 15.7266C27.6975 15.7266 27.602 15.7341 27.5098 15.7473L27.882 19.6025Z" fill="#E0B394"/>
<path d="M23.0413 26.627H15.204C12.3655 26.627 10.0645 28.928 10.0645 31.7664V39.3106H28.1808V31.7664C28.1809 28.928 25.8798 26.627 23.0413 26.627Z" fill="#EA8249"/>
<path d="M18.3707 26.627H15.204C12.3655 26.627 10.0645 28.928 10.0645 31.7665V39.3106H13.2312V31.7665C13.2312 28.928 15.5323 26.627 18.3707 26.627Z" fill="#D36F3D"/>
<path d="M16.3184 27.9834L12.9072 25.505C11.1045 24.1953 10.1294 22.0295 10.3437 19.8116L10.9354 13.6888C11.3429 9.47175 14.8866 6.25391 19.1233 6.25391C23.3599 6.25391 26.9036 9.47168 27.3112 13.6888L27.9028 19.8116C28.1171 22.0295 27.1421 24.1952 25.3393 25.505L21.9281 27.9834C20.2555 29.1985 17.9909 29.1985 16.3184 27.9834Z" fill="#FFE7CF"/>
<path d="M12.4658 21.0201C12.4085 21.9899 12.7243 22.9439 13.3492 23.6877L16.9146 28.0688C17.1007 28.2907 17.3118 28.4768 17.5404 28.6256C17.1116 28.4761 16.6994 28.2616 16.3179 27.9849L12.9066 25.5068C11.1041 24.1971 10.1293 22.0315 10.3437 19.8134L10.9346 13.6905C11.3385 9.51457 14.8171 6.31846 18.9997 6.25781C16.4235 6.32011 13.5064 8.74839 13.3543 11.3345L12.4658 21.0201Z" fill="#F4D3A6"/>
<path d="M28.0387 11.4841H27.3085C27.3085 9.22376 26.3927 7.17778 24.9111 5.69602C23.8124 4.5974 22.403 3.80963 20.8266 3.47636H20.8264V2.17676H17.4192V3.47643C13.7162 4.26015 10.9374 7.54763 10.9374 11.4841H10.2067L9.70703 13.9771H14.1366L14.8533 16.0547H23.3923L24.109 13.9771H28.5386L28.0387 11.4841Z" fill="#F9C573"/>
<path d="M14.1367 13.9785L14.8533 16.0561H16.2475L15.7649 13.9785H14.1367Z" fill="#E2AF66"/>
<path d="M13.6103 11.4841C13.6103 7.54763 15.4817 4.26022 17.9754 3.47651V2.17676H17.4192V3.47643C13.7162 4.26015 10.9374 7.54764 10.9374 11.4841H10.2067L9.70703 13.9771H14.7197L15.0562 11.4841H13.6103V11.4841Z" fill="#E2AF66"/>
<path d="M19.1236 11.4836C20.8218 11.4836 22.1985 10.107 22.1985 8.40881C22.1985 6.71063 20.8218 5.33398 19.1236 5.33398C17.4255 5.33398 16.0488 6.71063 16.0488 8.40881C16.0488 10.107 17.4255 11.4836 19.1236 11.4836Z" fill="#FCE8CA"/>
<path d="M8.48812 25.084V26.4485C8.48812 27.0734 8.23468 27.6402 7.82494 28.0499C7.41528 28.4595 6.84933 28.7131 6.22355 28.7131C4.97283 28.7131 3.95898 27.6992 3.95898 26.4485V25.084H8.48812Z" fill="#999999"/>
<path d="M13.2157 38.6895H10.6723V31.4687C10.6723 30.0653 11.3898 28.792 12.5913 28.0624C12.8855 27.8837 12.9792 27.5004 12.8007 27.2062C12.6221 26.9119 12.2388 26.8182 11.9444 26.9968C10.3674 27.9543 9.42578 29.626 9.42578 31.4687V39.3127C9.42578 39.6569 9.70479 39.936 10.0491 39.936H13.2157C13.56 39.936 13.839 39.6569 13.839 39.3127C13.839 38.9685 13.56 38.6895 13.2157 38.6895Z" fill="black"/>
<path d="M26.2688 26.9968C25.9746 26.8183 25.5912 26.9119 25.4125 27.2061C25.2339 27.5004 25.3276 27.8837 25.6219 28.0623C26.824 28.7922 27.5418 30.0656 27.5418 31.4686V38.6894H19.7301V31.9252L22.4443 33.8535C22.5514 33.9296 22.6779 33.9687 22.8054 33.9687C22.8848 33.9687 22.9647 33.9535 23.0406 33.9226C23.238 33.8421 23.3808 33.6662 23.4186 33.4562L24.1584 29.3602C24.2196 29.0215 23.9945 28.6972 23.6558 28.6362C23.317 28.5748 22.9928 28.8 22.9317 29.1387L22.3662 32.2691L19.4677 30.2098C19.2515 30.0562 18.962 30.0562 18.7457 30.2098L15.8471 32.2691L15.2817 29.1387C15.2205 28.7999 14.8959 28.5748 14.5576 28.6362C14.2188 28.6973 13.9938 29.0215 14.0549 29.3602L14.7947 33.4562C14.8327 33.6661 14.9753 33.842 15.1728 33.9226C15.3703 34.0031 15.5952 33.977 15.7691 33.8536L18.4833 31.9253V38.6895H15.3678C15.0235 38.6895 14.7445 38.9686 14.7445 39.3128C14.7445 39.657 15.0235 39.9361 15.3678 39.9361H28.1648C28.5091 39.9361 28.7881 39.657 28.7881 39.3128V31.4686C28.7882 29.6263 27.8464 27.9546 26.2688 26.9968Z" fill="black"/>
<path d="M28.0573 15.1196L28.0073 14.6016H28.5209C28.7076 14.6016 28.8846 14.5178 29.003 14.3734C29.1214 14.2289 29.1687 14.039 29.132 13.8559L28.6324 11.3628C28.574 11.0716 28.3183 10.8621 28.0212 10.8621H27.8923C27.7453 8.74382 26.8502 6.77249 25.3342 5.25648C24.2444 4.16678 22.9035 3.39003 21.4321 2.98869V2.17799C21.4321 1.83377 21.153 1.55469 20.8088 1.55469H17.4016C17.0573 1.55469 16.7783 1.83377 16.7783 2.17799V2.98974C15.029 3.46919 13.4494 4.49001 12.2901 5.904C11.1364 7.31109 10.4498 9.05191 10.3206 10.8621H10.189C9.89204 10.8621 9.63635 11.0717 9.57788 11.3629L9.07811 13.8559C9.04138 14.0391 9.08876 14.229 9.2072 14.3735C9.32556 14.518 9.50254 14.6017 9.68927 14.6017H10.2026L10.1526 15.1198C8.87145 15.2599 7.87109 16.3483 7.87109 17.6662C7.87109 18.8192 8.6273 19.7958 9.68065 20.1167C9.58215 22.4169 10.6494 24.6484 12.5229 26.009L15.9342 28.488C16.8824 29.1771 17.9934 29.5216 19.105 29.5215C20.2161 29.5214 21.3279 29.177 22.2764 28.488L25.6877 26.009C27.5608 24.6481 28.6276 22.4167 28.5291 20.1167C29.5829 19.7959 30.3395 18.8192 30.3395 17.6662C30.3394 16.3482 29.3389 15.2599 28.0573 15.1196ZM10.4499 13.3551L10.6998 12.1086H27.5105L27.7603 13.3551H10.4499ZM23.2169 14.6017L22.9302 15.4327H15.2799L14.9932 14.6017H23.2169ZM19.1051 5.91749C20.457 5.91749 21.5566 7.01717 21.5566 8.36901C21.5566 9.72086 20.457 10.8205 19.1051 10.8205C17.7533 10.8205 16.6536 9.72086 16.6536 8.36901C16.6536 7.01717 17.7533 5.91749 19.1051 5.91749ZM24.4528 6.13795C25.7331 7.41828 26.4978 9.07709 26.6426 10.8621H21.8338C22.4355 10.2041 22.8032 9.32874 22.8032 8.36901C22.8032 7.21102 22.2678 6.1761 21.4321 5.49756V4.28806C22.5655 4.6535 23.5987 5.28392 24.4528 6.13795ZM20.1855 2.80121V4.8322C19.8435 4.72756 19.4808 4.67081 19.1051 4.67081C18.7294 4.67081 18.3668 4.72756 18.0248 4.8322V2.80121H20.1855ZM16.7783 4.28986V5.49748C15.9425 6.1761 15.4071 7.21094 15.4071 8.36894C15.4071 9.32866 15.7747 10.2041 16.3765 10.862H11.5691C11.8218 7.83259 13.8992 5.22208 16.7783 4.28986ZM9.11762 17.666C9.11762 17.0823 9.50015 16.5867 10.0274 16.4152L9.79542 18.8174C9.38995 18.5931 9.11762 18.1617 9.11762 17.666ZM24.9549 25.0004L21.5437 27.4793C20.0849 28.5389 18.125 28.5389 16.6669 27.4794L13.2554 25.0004C11.6386 23.8261 10.7536 21.8608 10.9458 19.8713L11.4548 14.6017H13.6746L14.2463 16.2592C14.333 16.5105 14.5697 16.6793 14.8355 16.6793H23.3744C23.6403 16.6793 23.877 16.5106 23.9636 16.2592L24.5354 14.6017H26.7548L27.2638 19.8714C27.4561 21.8606 26.5715 23.826 24.9549 25.0004ZM28.4144 18.8175L28.1824 16.4152C28.7102 16.5866 29.093 17.0822 29.093 17.666C29.0929 18.1618 28.8203 18.5932 28.4144 18.8175Z" fill="black"/>
<path d="M18.4302 10.3717C18.5896 10.3717 18.7492 10.3108 18.8709 10.1891L19.8698 9.19005C20.1132 8.94665 20.1132 8.55198 19.8698 8.30866L19.6053 8.0442L20.2223 7.42727C20.4657 7.18387 20.4657 6.7892 20.2223 6.5458C19.9789 6.30248 19.5842 6.3024 19.3409 6.5458L18.2831 7.6035C18.1662 7.72044 18.1005 7.87891 18.1005 8.04427C18.1005 8.20963 18.1662 8.3681 18.283 8.48497L18.5475 8.74943L17.9892 9.30774C17.7458 9.55113 17.7458 9.9458 17.9893 10.1891C18.1111 10.3109 18.2707 10.3717 18.4302 10.3717Z" fill="black"/>
<path d="M25.8185 32.8964C25.5752 32.653 25.1805 32.653 24.9371 32.8964L23.4632 34.3704C23.2198 34.6138 23.2198 35.0085 23.4632 35.2518L24.0051 35.7937L23.0536 36.7452C22.8102 36.9886 22.8102 37.3832 23.0536 37.6266C23.1754 37.7482 23.335 37.8092 23.4944 37.8092C23.6539 37.8092 23.8134 37.7484 23.9352 37.6266L25.3272 36.2345C25.5706 35.9911 25.5706 35.5965 25.3272 35.3531L24.7853 34.8113L25.8186 33.778C26.0619 33.5344 26.0619 33.1398 25.8185 32.8964Z" fill="black"/>
<path d="M9.98566 23.925C9.75246 23.6719 9.35816 23.6556 9.10495 23.8888C8.86455 24.1102 8.59656 24.3024 8.30916 24.4653H6.83138V21.7372C6.83138 21.393 6.55238 21.1139 6.20808 21.1139C5.86378 21.1139 5.58478 21.393 5.58478 21.7372V24.4653H4.10198C2.69878 23.6726 1.87031 22.195 1.93126 20.5738C2.01454 18.3712 3.80386 16.5665 6.00501 16.4651C6.3625 16.4486 6.71564 16.4752 7.05604 16.544C7.39404 16.6121 7.72229 16.3939 7.79051 16.0565C7.85865 15.7191 7.64043 15.3903 7.30311 15.3221C6.86241 15.2331 6.40635 15.1988 5.94759 15.2199C3.1044 15.3508 0.793048 17.6818 0.685479 20.5269C0.610668 22.5218 1.63448 24.414 3.32021 25.4509V26.453C3.32021 28.0453 4.61568 29.3408 6.208 29.3408C6.97958 29.3408 7.70483 29.0404 8.25017 28.4951C8.79551 27.9497 9.0958 27.2245 9.0958 26.453V25.4508C9.40134 25.2631 9.68732 25.047 9.94938 24.8057C10.2027 24.5724 10.2189 24.1782 9.98566 23.925ZM7.36878 27.6138C7.05889 27.9236 6.64675 28.0943 6.20808 28.0943C5.303 28.0943 4.56681 27.3581 4.56681 26.4531V25.7118H7.84935V26.4531C7.84935 26.8916 7.67866 27.3039 7.36878 27.6138Z" fill="black"/>
<path d="M6.20728 14.5278C6.55158 14.5278 6.83058 14.2487 6.83058 13.9045V12.2424C6.83058 11.8982 6.55158 11.6191 6.20728 11.6191C5.86299 11.6191 5.58398 11.8982 5.58398 12.2424V13.9045C5.58406 14.2487 5.86299 14.5278 6.20728 14.5278Z" fill="black"/>
<path d="M1.45685 15.3719C1.57131 15.5753 1.78278 15.6897 2.00069 15.6897C2.10414 15.6897 2.20908 15.6638 2.30571 15.6095C2.6057 15.4407 2.71214 15.0607 2.54341 14.7608L1.79552 13.4311C1.62671 13.1311 1.24673 13.0247 0.946737 13.1934C0.646743 13.3622 0.540299 13.7422 0.709036 14.0421L1.45685 15.3719Z" fill="black"/>
<path d="M5.5725 34.8878H4.60798L5.60526 33.2605C5.72317 33.0682 5.72789 32.8272 5.61762 32.6303C5.50736 32.4333 5.29941 32.3115 5.07378 32.3115H4.10941L5.10669 30.6844C5.28652 30.3909 5.19454 30.0072 4.90092 29.8273C4.60768 29.6475 4.2238 29.7395 4.0439 30.033L2.46492 32.6092C2.34701 32.8015 2.34228 33.0425 2.45255 33.2395C2.56282 33.4363 2.77076 33.5581 2.99639 33.5581H3.96091L2.96363 35.1854C2.84572 35.3777 2.841 35.6187 2.95127 35.8156C3.06153 36.0125 3.26947 36.1343 3.49511 36.1343H4.45963L3.4622 37.7615C3.28237 38.055 3.37434 38.4387 3.66797 38.6186C3.76961 38.6809 3.88198 38.7105 3.99307 38.7105C4.20266 38.7105 4.40746 38.6047 4.52499 38.4128L6.10397 35.8366C6.22188 35.6443 6.22661 35.4033 6.11634 35.2064C6.00607 35.0095 5.79813 34.8878 5.5725 34.8878Z" fill="black"/>
<path d="M29.2172 8.40397H30.1816L29.1843 10.0312C29.0045 10.3248 29.0965 10.7084 29.3901 10.8883C29.4918 10.9506 29.6041 10.9802 29.7152 10.9802C29.9248 10.9802 30.1296 10.8745 30.2471 10.6826L31.8261 8.10637C31.944 7.91402 31.9488 7.67302 31.8385 7.4761C31.7282 7.27925 31.5203 7.15736 31.2946 7.15736H30.3301L31.3274 5.53011C31.5072 5.23657 31.4153 4.85292 31.1216 4.67301C30.8283 4.49318 30.4445 4.58516 30.2646 4.8787L28.6856 7.45489C28.5677 7.64723 28.563 7.88823 28.6733 8.08516C28.7837 8.28208 28.9915 8.40397 29.2172 8.40397Z" fill="black"/>
<path d="M17.1663 35.3931C17.5105 35.3931 17.7896 35.114 17.7896 34.7698C17.7896 34.4255 17.5105 34.1465 17.1663 34.1465C16.822 34.1465 16.543 34.4255 16.543 34.7698C16.543 35.114 16.822 35.3931 17.1663 35.3931Z" fill="black"/>
<path d="M17.1663 37.9624C17.5105 37.9624 17.7896 37.6834 17.7896 37.3391C17.7896 36.9949 17.5105 36.7158 17.1663 36.7158C16.822 36.7158 16.543 36.9949 16.543 37.3391C16.543 37.6834 16.822 37.9624 17.1663 37.9624Z" fill="black"/>
</g>
</svg>
