<svg width="39" height="39" viewBox="0 0 39 39" fill="none" xmlns="http://www.w3.org/2000/svg">
<g>
<path d="M31.8839 24.9228H30.7713V21.0284C30.7713 19.7004 30.2437 18.4269 29.3047 17.4879C28.3657 16.5489 27.0922 16.0214 25.7642 16.0214C24.4363 16.0214 23.1627 16.5489 22.2237 17.4879C21.2847 18.4269 20.7572 19.7004 20.7572 21.0284V24.3664H19.6445V21.0284C19.6445 19.4053 20.2893 17.8488 21.437 16.7011C22.5846 15.5534 24.1412 14.9087 25.7642 14.9087C27.3873 14.9087 28.9439 15.5534 30.0915 16.7011C31.2392 17.8488 31.8839 19.4053 31.8839 21.0284V24.9228Z" fill="#428DC5"/>
<path d="M17.4199 23.8105H32.9974V26.0359H17.4199V23.8105Z" fill="#6CBAE5"/>
<path d="M31.3286 36.6095H19.0892L17.9766 26.0391H32.4413L31.3286 36.6095Z" fill="#4799CF"/>
<path d="M32.9971 23.674V27.6761C32.9971 28.2749 32.5367 28.7909 31.938 28.8187C31.7875 28.8258 31.6372 28.8024 31.4961 28.7498C31.355 28.6972 31.2261 28.6165 31.1171 28.5126C31.008 28.4087 30.9212 28.2838 30.8619 28.1454C30.8025 28.007 30.7719 27.858 30.7717 27.7074C30.7717 28.0025 30.6545 28.2855 30.4458 28.4942C30.2372 28.7029 29.9542 28.8201 29.6591 28.8201C29.364 28.8201 29.081 28.7029 28.8723 28.4942C28.6636 28.2855 28.5464 28.0025 28.5464 27.7074C28.5464 28.0025 28.4292 28.2855 28.2205 28.4942C28.0118 28.7029 27.7288 28.8201 27.4337 28.8201C27.1386 28.8201 26.8556 28.7029 26.6469 28.4942C26.4383 28.2855 26.321 28.0025 26.321 27.7074C26.3213 27.9027 26.27 28.0946 26.1722 28.2637C26.0742 28.4327 25.9337 28.5732 25.7647 28.6713C25.6009 28.7665 25.4152 28.8178 25.2258 28.8201C24.6041 28.8291 24.0957 28.2985 24.0957 27.6768V23.674C24.0957 23.2682 24.2569 22.8791 24.5438 22.5921C24.8307 22.3052 25.2199 22.144 25.6256 22.144H31.4672C31.8729 22.144 32.2621 22.3052 32.549 22.5921C32.8359 22.8791 32.9971 23.2682 32.9971 23.674Z" fill="#FD9226"/>
<path d="M19.0898 36.6089H31.3293V38.8342H19.0898V36.6089Z" fill="#6CBAE5"/>
<path d="M28.5488 32.1621H29.6615V34.9438H28.5488V32.1621Z" fill="#6CBAE5"/>
<path d="M28.5488 29.9312H29.6615V31.0438H28.5488V29.9312Z" fill="#6CBAE5"/>
<path d="M26.32 27.7102C26.3203 27.9055 26.2689 28.0974 26.1712 28.2665C26.0731 28.4355 25.9327 28.576 25.7637 28.6741V25.4849H26.32V27.7102Z" fill="#E08122"/>
<path d="M28.5466 27.7102C28.5467 27.9056 28.4953 28.0975 28.3976 28.2667C28.3 28.4359 28.1594 28.5764 27.9902 28.6741V25.4849H28.5466V27.7102Z" fill="#E08122"/>
<path d="M30.7712 27.7102C30.7713 27.9056 30.7199 28.0975 30.6222 28.2667C30.5246 28.4359 30.3841 28.5764 30.2148 28.6741V25.4849H30.7712V27.7102Z" fill="#E08122"/>
<path d="M22.9844 38.8345H5.18164L6.29431 34.3838H21.8717L22.9844 38.8345Z" fill="#FBB540"/>
<path d="M6.84931 32.1616H21.3141C21.4616 32.1616 21.6031 32.2202 21.7075 32.3246C21.8118 32.4289 21.8704 32.5704 21.8704 32.718V34.387H6.29297V32.718C6.29297 32.5704 6.35158 32.4289 6.45592 32.3246C6.56025 32.2202 6.70176 32.1616 6.84931 32.1616Z" fill="#C17450"/>
<path d="M12.9665 34.3838H15.1918L15.7482 38.8345H12.4102L12.9665 34.3838Z" fill="#EA9D2D"/>
<path d="M7.40625 38.8345L8.51892 34.3838H10.7443L9.6316 38.8345H7.40625Z" fill="#EA9D2D"/>
<path d="M14.0814 6.56836C14.3765 6.56836 14.6595 6.68559 14.8682 6.89425C15.0769 7.10292 15.1941 7.38593 15.1941 7.68103V32.1598H12.9688V7.68103C12.9688 7.38593 13.086 7.10292 13.2946 6.89425C13.5033 6.68559 13.7863 6.56836 14.0814 6.56836Z" fill="#8F563B"/>
<path d="M17.4199 34.3838H19.6453L20.7579 38.8345H18.5326L17.4199 34.3838Z" fill="#EA9D2D"/>
<path d="M31.8835 21.6333V21.0352C31.8835 19.4122 31.2388 17.8556 30.0911 16.708C28.9434 15.5603 27.3869 14.9155 25.7638 14.9155C24.1408 14.9155 22.5842 15.5603 21.4365 16.708C20.2889 17.8556 19.6441 19.4122 19.6441 21.0352V23.2606H17.4188C17.2712 23.2606 17.1297 23.3192 17.0254 23.4235C16.9211 23.5279 16.8624 23.6694 16.8624 23.8169V26.0423C16.8624 26.1898 16.9211 26.3313 17.0254 26.4357C17.1297 26.54 17.2712 26.5986 17.4188 26.5986H17.4744L18.0013 31.6056H15.7498V7.68317C15.7498 7.24052 15.5739 6.816 15.2609 6.503C14.9479 6.19 14.5234 6.01416 14.0808 6.01416C13.6381 6.01416 13.2136 6.19 12.9006 6.503C12.5876 6.816 12.4117 7.24052 12.4117 7.68317V31.6056H6.84838C6.55339 31.606 6.27058 31.7233 6.06199 31.9319C5.8534 32.1405 5.73606 32.4233 5.73571 32.7183V34.3188L4.63965 38.7031C4.61915 38.7851 4.61761 38.8707 4.63515 38.9534C4.65269 39.0361 4.68885 39.1138 4.74088 39.1804C4.79291 39.247 4.85944 39.3009 4.93542 39.338C5.0114 39.3751 5.09483 39.3944 5.17937 39.3944H31.3272C31.4747 39.3944 31.6163 39.3357 31.7206 39.2314C31.8249 39.1271 31.8835 38.9856 31.8835 38.838V36.6419L32.6688 29.182C32.9378 29.0344 33.1619 28.817 33.3175 28.5526C33.473 28.2882 33.5542 27.9866 33.5525 27.6799V23.6778C33.552 23.1971 33.3857 22.7312 33.0816 22.3588C32.7776 21.9863 32.3545 21.7301 31.8835 21.6333ZM20.7568 21.0352C20.7568 20.3777 20.8863 19.7266 21.1379 19.1191C21.3896 18.5117 21.7584 17.9597 22.2233 17.4947C22.6883 17.0298 23.2402 16.661 23.8477 16.4094C24.4552 16.1577 25.1063 16.0282 25.7638 16.0282C26.4214 16.0282 27.0725 16.1577 27.6799 16.4094C28.2874 16.661 28.8394 17.0298 29.3043 17.4947C29.7693 17.9597 30.1381 18.5117 30.3897 19.1191C30.6413 19.7266 30.7709 20.3777 30.7709 21.0352V21.5916H25.6247C25.144 21.5921 24.6781 21.7585 24.3057 22.0625C23.9332 22.3665 23.677 22.7897 23.5802 23.2606H20.7568V21.0352ZM17.9751 24.3733H23.5385V25.4859H17.9751V24.3733ZM18.5931 26.5986H23.5385V27.6807C23.5394 27.9078 23.5852 28.1324 23.6733 28.3417C23.7613 28.551 23.8898 28.7409 24.0514 28.9004C24.2064 29.0552 24.3908 29.1774 24.5937 29.2598C24.7967 29.3422 25.0141 29.3831 25.2331 29.3802C25.6348 29.3731 26.0206 29.2219 26.3202 28.9542C26.6259 29.2285 27.0221 29.3802 27.4328 29.3802C27.8436 29.3802 28.2398 29.2285 28.5455 28.9542C28.8511 29.2284 29.2472 29.3801 29.6578 29.3802C30.0684 29.3803 30.4646 29.2288 30.7703 28.9548C30.9861 29.1487 31.2492 29.2824 31.533 29.3424L30.8265 36.0563H22.8602L22.4258 34.3188V32.7183C22.4255 32.4233 22.3081 32.1405 22.0995 31.9319C21.8909 31.7233 21.6081 31.606 21.3131 31.6056H19.1199L18.5931 26.5986ZM13.5244 7.68317C13.5244 7.53562 13.583 7.39411 13.6874 7.28978C13.7917 7.18545 13.9332 7.12683 14.0808 7.12683C14.2283 7.12683 14.3698 7.18545 14.4741 7.28978C14.5785 7.39411 14.6371 7.53562 14.6371 7.68317V31.6056H13.5244V7.68317ZM6.84838 32.7183H21.3131V33.831H6.84838V32.7183ZM8.11724 38.2817L8.95175 34.9437H10.0302L9.1957 38.2817H8.11724ZM6.7264 34.9437H7.80486L6.97036 38.2817H5.8919L6.7264 34.9437ZM11.1771 34.9437H12.3379L11.9206 38.2817H10.3426L11.1771 34.9437ZM13.0419 38.2817L13.4592 34.9437H14.7023L15.1196 38.2817H13.0419ZM16.2409 38.2817L15.8236 34.9437H16.9844L17.8189 38.2817H16.2409ZM18.9658 38.2817L18.1313 34.9437H19.2098L20.0443 38.2817H18.9658ZM21.1912 38.2817L20.3567 34.9437H21.4351L22.2696 38.2817H21.1912ZM30.7709 38.2817H23.4165L23.1383 37.169H30.7709V38.2817ZM32.4399 26.0423V27.6799C32.4425 27.8264 32.3893 27.9685 32.2913 28.0775C32.1932 28.1865 32.0574 28.2542 31.9114 28.2669C31.836 28.2707 31.7608 28.2591 31.6901 28.2329C31.6194 28.2067 31.5547 28.1664 31.5001 28.1144C31.4455 28.0624 31.402 27.9999 31.3722 27.9306C31.3425 27.8613 31.3272 27.7867 31.3272 27.7113V25.4859H30.2145V27.7113C30.2145 27.8588 30.1559 28.0003 30.0516 28.1047C29.9472 28.209 29.8057 28.2676 29.6582 28.2676C29.5106 28.2676 29.3691 28.209 29.2648 28.1047C29.1605 28.0003 29.1018 27.8588 29.1018 27.7113V25.4859H27.9892V27.7113C27.9892 27.8588 27.9306 28.0003 27.8262 28.1047C27.7219 28.209 27.5804 28.2676 27.4328 28.2676C27.2853 28.2676 27.1438 28.209 27.0394 28.1047C26.9351 28.0003 26.8765 27.8588 26.8765 27.7113V25.4859H25.7638V27.7113C25.764 27.8574 25.7066 27.9977 25.6042 28.1018C25.5017 28.2059 25.3623 28.2655 25.2163 28.2676H25.2086C25.0669 28.2662 24.9316 28.2087 24.8322 28.1077C24.7755 28.0519 24.7303 27.9855 24.6993 27.9123C24.6682 27.839 24.652 27.7603 24.6514 27.6808V23.6778C24.6517 23.4197 24.7544 23.1722 24.9369 22.9897C25.1194 22.8072 25.3669 22.7045 25.625 22.7043H31.4666C31.7247 22.7045 31.9722 22.8072 32.1547 22.9897C32.3372 23.1722 32.4399 23.4197 32.4401 23.6778L32.4399 26.0423Z" fill="black"/>
<path d="M28.5449 32.1616H29.6576V34.9433H28.5449V32.1616Z" fill="black"/>
<path d="M28.5449 29.9355H29.6576V31.0482H28.5449V29.9355Z" fill="black"/>
</g>
</svg>
