<svg width="39" height="39" viewBox="0 0 39 39" fill="none" xmlns="http://www.w3.org/2000/svg">
<g>
<path d="M11.8409 16.1385H12.4518V16.5211C12.4518 18.5979 13.9897 20.9578 15.8931 22.1172L15.8929 24.0364C15.8929 24.2166 15.7754 24.3757 15.6031 24.4289L11.9342 25.5584L11.9421 25.5668C13.9355 27.6596 16.5631 28.7061 19.1907 28.7061C21.8183 28.7061 24.4459 27.6596 26.4392 25.5668L26.4474 25.5581L22.778 24.4288C22.6058 24.3756 22.4884 24.2165 22.4884 24.0363L22.4882 22.1015C24.3926 20.9415 25.9297 18.5839 25.9297 16.5062V16.1383H26.5406C27.0622 16.1383 27.4851 15.7154 27.4851 15.1938V13.3439C27.4851 12.8223 27.0623 12.3994 26.5406 12.3994H25.9297H12.4519H11.841C11.3193 12.3994 10.8965 12.8223 10.8965 13.3439V15.1938C10.8965 15.7156 11.3193 16.1385 11.8409 16.1385Z" fill="#FED9A8"/>
<path d="M26.4386 25.5653L26.4467 25.5566L22.7773 24.4273C22.7128 24.4074 22.6559 24.3726 22.61 24.3273C22.5336 24.2518 22.4877 24.1474 22.4877 24.0348L22.4875 22.1001C22.0312 22.3781 21.5539 22.5881 21.0713 22.708L20.9975 22.7264C20.708 22.7984 20.4558 22.8571 20.2266 22.9031V28.6495C22.4986 28.4103 24.7078 27.3825 26.4386 25.5653Z" fill="#EABE92"/>
<path d="M25.9293 12.3994H23.6694V16.5061C23.6694 19.0817 21.3076 22.0887 18.8117 22.7094L18.7378 22.7278C18.4737 22.7934 18.2405 22.8481 18.0273 22.8922C19.1008 23.1161 19.6553 23.0616 20.9977 22.7278L21.0715 22.7094C21.5553 22.5892 22.0338 22.3783 22.4912 22.0992C22.6059 22.0293 22.7192 21.9549 22.8309 21.8766C22.8345 21.874 22.838 21.8718 22.8416 21.8692C22.8886 21.8363 22.935 21.8021 22.9814 21.7676C22.9979 21.7553 23.0146 21.7431 23.0311 21.7306C23.0753 21.6972 23.1191 21.6631 23.1627 21.6285C23.1795 21.6151 23.1963 21.6015 23.213 21.5879C23.2574 21.5519 23.3017 21.5157 23.3455 21.4785C23.3535 21.4716 23.3614 21.4646 23.3694 21.4577C23.5149 21.333 23.6564 21.2016 23.7936 21.0647C23.8111 21.0471 23.8287 21.0297 23.8461 21.0121C23.8833 20.9742 23.9201 20.9357 23.9567 20.8971C23.9759 20.8768 23.9948 20.8564 24.0137 20.8358C24.0495 20.7971 24.0851 20.7582 24.1201 20.7189C24.1373 20.6995 24.154 20.6799 24.171 20.6604C24.2454 20.5749 24.3183 20.4879 24.3891 20.3993C24.3976 20.3885 24.4064 20.3781 24.4149 20.3674C24.4451 20.3292 24.4744 20.2904 24.5039 20.2517C24.5247 20.2244 24.5457 20.1971 24.5661 20.1695C24.5937 20.1325 24.6207 20.095 24.6475 20.0575C24.6692 20.0272 24.6907 19.9967 24.7119 19.9661C24.7373 19.9295 24.7626 19.893 24.7873 19.8562C24.81 19.8224 24.8321 19.7882 24.8541 19.7541C24.8765 19.7195 24.8994 19.6851 24.9212 19.6502C24.9615 19.5859 25.0007 19.5212 25.039 19.4559C25.0574 19.4246 25.0749 19.3929 25.0927 19.3614C25.1157 19.3209 25.1386 19.2805 25.1608 19.2398C25.1787 19.2068 25.1962 19.1736 25.2136 19.1404C25.2348 19.0997 25.2558 19.059 25.2761 19.0182C25.2923 18.9858 25.3085 18.9534 25.3241 18.9209C25.3459 18.8757 25.367 18.8301 25.3878 18.7845C25.4005 18.7565 25.4137 18.7287 25.4261 18.7006C25.4576 18.6292 25.4878 18.5575 25.5166 18.4856C25.5252 18.4641 25.533 18.4425 25.5414 18.421C25.5622 18.3674 25.5826 18.3135 25.6019 18.2598C25.6121 18.2313 25.6217 18.2028 25.6315 18.1743C25.648 18.1263 25.6638 18.0781 25.679 18.0299C25.6881 18.0011 25.6971 17.9722 25.7057 17.9435C25.721 17.8921 25.7354 17.8408 25.7493 17.7893C25.7559 17.7648 25.7629 17.7404 25.7692 17.716C25.7884 17.6411 25.8061 17.5662 25.8219 17.4913C25.8243 17.4802 25.8261 17.4693 25.8283 17.4582C25.8415 17.3935 25.8536 17.329 25.8643 17.2646C25.8685 17.2393 25.872 17.2142 25.8758 17.189C25.8835 17.1378 25.8905 17.0867 25.8965 17.0358C25.8997 17.0089 25.9027 16.982 25.9054 16.9552C25.9107 16.9033 25.9148 16.8516 25.9183 16.7999C25.9199 16.7762 25.9219 16.7524 25.923 16.7288C25.9268 16.6547 25.9292 16.5807 25.9292 16.5073C25.9292 16.507 25.9292 16.5067 25.9292 16.5067V16.1385L25.9293 12.3994Z" fill="#EABE92"/>
<path d="M27.4148 10.8324H27.0636V10.065C27.0636 10.0036 27.0628 9.94245 27.0613 9.88143C26.9673 6.17888 23.9649 3.25488 20.367 3.25488H18.0151C14.4171 3.25488 11.4147 6.17888 11.3207 9.88143C11.3191 9.94245 11.3184 10.0036 11.3184 10.065V10.8324H10.9672C10.6413 10.8324 10.377 11.1044 10.377 11.4399V12.2287C10.377 12.5643 10.6412 12.8363 10.9672 12.8363H27.4148C27.7408 12.8363 28.0051 12.5643 28.0051 12.2288V11.44C28.0051 11.1044 27.7408 10.8324 27.4148 10.8324Z" fill="#FFA227"/>
<path d="M27.414 10.8324H27.0628V10.065C27.0628 10.0036 27.062 9.94245 27.0604 9.88143C26.9664 6.17888 23.964 3.25488 20.3661 3.25488H18.0996C21.6976 3.25488 24.7 6.17888 24.7939 9.88143C24.7955 9.94245 24.7962 10.0036 24.7962 10.065V10.8324H25.1474C25.4734 10.8324 25.7377 11.1044 25.7377 11.4399V12.2288C25.7377 12.5643 25.4734 12.8363 25.1474 12.8363H27.414C27.7399 12.8363 28.0042 12.5643 28.0042 12.2288V11.4399C28.0042 11.1044 27.74 10.8324 27.414 10.8324Z" fill="#F78B0B"/>
<path d="M19.523 7.30688H18.8566C18.1246 7.30688 17.5312 6.71349 17.5312 5.98149V3.59931C17.5312 2.86732 18.1246 2.27393 18.8566 2.27393H19.523C20.255 2.27393 20.8483 2.86732 20.8483 3.59931V5.98149C20.8483 6.71349 20.255 7.30688 19.523 7.30688Z" fill="#FFCC5A"/>
<path d="M19.5254 2.27393H18.857C18.7655 2.27393 18.6761 2.28322 18.5898 2.30099V7.27989C18.6762 7.29758 18.7656 7.30695 18.857 7.30695H19.5254C20.2568 7.30695 20.8499 6.71311 20.8499 5.98052V3.60036C20.8498 2.86777 20.2568 2.27393 19.5254 2.27393Z" fill="#FFB000"/>
<path d="M33.7917 27.6326L25.8877 24.8391C25.7278 24.7826 25.5498 24.823 25.43 24.9431L24.884 25.4898C21.7526 28.626 16.6287 28.626 13.4974 25.4898L12.9514 24.9431C12.8316 24.823 12.6535 24.7826 12.4937 24.8391L4.58985 27.6326C2.48914 28.3751 1.03385 30.3019 0.892252 32.5286L0.54938 37.9211C0.504853 38.6208 1.05956 39.2128 1.75962 39.2128H19.1117H19.2701H36.6221C37.3221 39.2128 37.8768 38.6207 37.8323 37.9211L37.4895 32.5285C37.3477 30.3019 35.8924 28.375 33.7917 27.6326Z" fill="#FFCC5A"/>
<path d="M37.8323 37.9217L37.4895 32.5291C37.3479 30.3025 35.8927 28.3756 33.7919 27.6331L33.418 27.501C34.4353 28.5842 35.0957 30.423 35.1786 31.728L35.6547 39.2132H36.6222C37.3222 39.2133 37.8768 38.6213 37.8323 37.9217Z" fill="#FFB000"/>
<path d="M5.76172 27.2203V39.2149H10.0188V25.7158L5.76172 27.2203Z" fill="#F2F2F2"/>
<path d="M28.3613 25.7158V39.2149H32.6184V27.2203L28.3613 25.7158Z" fill="#F2F2F2"/>
<path d="M25.8865 24.8391C25.7266 24.7826 25.5486 24.823 25.4288 24.9431L24.8828 25.4898C23.3171 27.0578 21.2533 27.8419 19.1895 27.8419C17.1257 27.8419 15.0618 27.0578 13.4962 25.4898L12.9502 24.9431C12.8304 24.823 12.6523 24.7826 12.4925 24.8391L10.9668 25.3783L12.3007 26.7489C14.1392 28.5744 16.5838 29.5789 19.1894 29.5789C21.795 29.5789 24.2396 28.5743 26.0782 26.7489L27.412 25.3783L25.8865 24.8391Z" fill="#FFA227"/>
<path d="M30.3594 39.2161H32.6193V27.2215L30.3594 26.4229V39.2161Z" fill="#E6E6E6"/>
<path d="M7.75977 39.2149H10.0197V25.7158L7.75977 26.5145V39.2149Z" fill="#E6E6E6"/>
<path d="M15.9869 8.06833C16.3466 7.18851 16.1009 6.25563 15.4381 5.98468C14.7754 5.71372 13.9465 6.2073 13.5868 7.08712C13.2271 7.96694 13.4728 8.89983 14.1356 9.17078C14.7984 9.44173 15.6273 8.94815 15.9869 8.06833Z" fill="#FFA233"/>
<path d="M38.3765 37.8879L38.0337 32.4954C37.8779 30.0461 36.284 27.9358 33.973 27.1191L32.8003 26.7045L28.5432 25.2C28.5431 25.2 28.543 25.2 28.5429 25.1999L26.0691 24.3256C26.0449 24.317 26.0203 24.3096 25.9957 24.3031C25.9853 24.3003 25.9748 24.2982 25.9644 24.2957C25.9506 24.2925 25.9366 24.2894 25.9227 24.2867C25.9091 24.2842 25.8954 24.2822 25.8817 24.2801C25.8713 24.2786 25.8611 24.2773 25.8508 24.2762C25.8347 24.2744 25.8187 24.2728 25.8025 24.2719C25.796 24.2714 25.7895 24.2713 25.7829 24.2711C25.7688 24.2705 25.7547 24.2693 25.7405 24.2693C25.691 24.2693 25.6423 24.2741 25.5942 24.2812C25.5918 24.2816 25.5895 24.2819 25.5871 24.2822C25.4968 24.2963 25.4098 24.3226 25.3277 24.3605C25.3273 24.3606 25.3269 24.3609 25.3265 24.361C25.2863 24.3797 25.2472 24.4007 25.2096 24.4248C25.2083 24.4256 25.2069 24.4263 25.2057 24.4271C25.1935 24.435 25.1819 24.4434 25.1701 24.4518C25.1569 24.4611 25.144 24.4708 25.1312 24.4808C25.1227 24.4876 25.1141 24.4942 25.1057 24.5013C25.0851 24.5187 25.0648 24.5367 25.0455 24.5559L23.0328 23.9365L23.0326 22.4006C23.0667 22.3777 23.1002 22.3538 23.134 22.3303C23.1378 22.3277 23.1416 22.3252 23.1453 22.3225C24.6935 21.2404 25.881 19.5184 26.3048 17.8163C26.3068 17.8082 26.3087 17.8002 26.3107 17.7921C26.3289 17.7178 26.3455 17.6437 26.3607 17.5696C26.3638 17.5546 26.367 17.5397 26.37 17.5247C26.4017 17.3636 26.4267 17.2028 26.444 17.0433C26.4467 17.019 26.4487 16.9948 26.451 16.9705C26.456 16.9169 26.4603 16.8635 26.4636 16.8102C26.4654 16.7819 26.4671 16.7537 26.4684 16.7255C26.469 16.712 26.4703 16.6983 26.4707 16.6848H26.5388C27.3607 16.6848 28.0295 16.016 28.0295 15.194V13.3442C28.0295 13.2957 28.0262 13.2475 28.0216 13.1996C28.3381 12.9946 28.5492 12.6358 28.5492 12.2269V11.4384C28.5492 10.8696 28.142 10.3957 27.6079 10.3015V10.0634C27.6079 9.99738 27.607 9.93156 27.6053 9.86605C27.5908 9.2923 27.5105 8.72252 27.3666 8.17238C27.2904 7.88056 26.9919 7.70597 26.7001 7.78213C26.4083 7.85837 26.2335 8.15686 26.3098 8.44869C26.4325 8.91772 26.5009 9.40391 26.5133 9.89393C26.5147 9.95023 26.5155 10.0067 26.5155 10.0635V10.8309C26.5155 11.1325 26.76 11.3771 27.0616 11.3771H27.4128C27.4336 11.3771 27.4568 11.4023 27.4568 11.4385V12.2272C27.4568 12.2634 27.4337 12.2886 27.4128 12.2886H27.3331H11.045H10.9665C10.9457 12.2886 10.9225 12.2634 10.9225 12.2272V11.4385C10.9225 11.4023 10.9456 11.3771 10.9665 11.3771H11.3177C11.6193 11.3771 11.8638 11.1326 11.8638 10.8309V10.0636C11.8638 10.0069 11.8646 9.95038 11.8661 9.89393C11.9419 6.90936 14.142 4.3855 16.9855 3.88919V5.98105C16.9855 7.01296 17.825 7.8526 18.857 7.8526H19.5233C20.5552 7.8526 21.3947 7.01303 21.3947 5.98105V3.88949C23.0495 4.17914 24.5497 5.1636 25.4923 6.60495C25.6574 6.85742 25.9959 6.92818 26.2484 6.76304C26.5008 6.59798 26.5717 6.25938 26.4065 6.00698C25.2254 4.20103 23.2961 3.0051 21.1939 2.75728C20.8853 2.1471 20.2526 1.72754 19.5233 1.72754H18.857C18.128 1.72754 17.4955 2.1468 17.1866 2.75668C15.5284 2.95 13.9859 3.72083 12.8113 4.95086C11.5443 6.27759 10.8208 8.02328 10.774 9.86612C10.7723 9.93186 10.7715 9.9976 10.7715 10.0637V10.3018C10.2375 10.3961 9.83013 10.8699 9.83013 11.4387V12.2273C9.83013 12.6356 10.0406 12.9942 10.3567 13.1993C10.3519 13.2474 10.3487 13.2958 10.3487 13.3445V15.1945C10.3487 16.0164 11.0175 16.6852 11.8395 16.6852H11.9071C11.9082 16.7175 11.9106 16.75 11.9123 16.7824C11.9125 16.7862 11.9127 16.7899 11.9129 16.7937C11.9224 16.9627 11.9402 17.1332 11.9667 17.3047C11.9704 17.3292 11.9749 17.3537 11.979 17.3782C11.9876 17.4292 11.9968 17.4804 12.0068 17.5315C12.0144 17.5706 12.0223 17.6097 12.0307 17.6489C12.0371 17.6785 12.0441 17.708 12.051 17.7375C12.4696 19.5526 13.7558 21.3543 15.3455 22.4189L15.3454 23.9368L13.3344 24.556C13.3151 24.5368 13.2951 24.5189 13.2744 24.5016C13.266 24.4946 13.2575 24.4879 13.249 24.481C13.2363 24.4711 13.2234 24.4615 13.2103 24.4522C13.1984 24.4438 13.1867 24.4353 13.1745 24.4274C13.1736 24.4268 13.1727 24.4264 13.1718 24.4258C13.1339 24.4013 13.0942 24.3801 13.0534 24.3611C13.0532 24.361 13.053 24.3609 13.0528 24.3608C12.9706 24.3229 12.8835 24.2965 12.7931 24.2824C12.7908 24.282 12.7886 24.2817 12.7863 24.2814C12.7382 24.2743 12.6894 24.2694 12.6398 24.2694C12.6257 24.2694 12.6116 24.2706 12.5975 24.2712C12.5909 24.2715 12.5844 24.2717 12.5778 24.272C12.5617 24.273 12.5456 24.2746 12.5296 24.2763C12.5192 24.2774 12.509 24.2789 12.4987 24.2803C12.485 24.2823 12.4712 24.2843 12.4576 24.2869C12.4438 24.2895 12.43 24.2926 12.4162 24.2958C12.4056 24.2983 12.3951 24.3004 12.3846 24.3032C12.36 24.3098 12.3355 24.3172 12.3113 24.3257L10.7856 24.8648C10.7854 24.8649 10.7853 24.865 10.7851 24.8651L9.83778 25.1998C9.83755 25.1999 9.83733 25.2 9.83703 25.2001L5.57992 26.7046L5.57977 26.7047L4.40716 27.1191C2.09611 27.9359 0.502218 30.0462 0.346524 32.4955L0.305371 33.1419C0.286181 33.443 0.514811 33.7025 0.815855 33.7217C1.1157 33.7398 1.37641 33.5121 1.39553 33.2112L1.43668 32.5647C1.56449 30.5531 2.87346 28.8198 4.77109 28.1492L5.21569 27.9921V38.6681H1.75879C1.57311 38.6681 1.40077 38.5935 1.27349 38.4579C1.14576 38.3218 1.08182 38.1439 1.09373 37.9573L1.25588 35.4071C1.27507 35.1061 1.04643 34.8466 0.745391 34.8274C0.444498 34.8083 0.184833 35.0368 0.165643 35.3378L0.00350287 37.888C-0.0272311 38.3719 0.145404 38.8522 0.477031 39.2055C0.808134 39.5583 1.27529 39.7606 1.75886 39.7606H5.76193H10.019H28.3612H32.6183H36.6214C37.105 39.7606 37.5721 39.5583 37.9032 39.2055C38.2347 38.8519 38.4073 38.3717 38.3765 37.8879ZM18.8569 2.81994H19.5232C19.8831 2.81994 20.1859 3.06567 20.275 3.39797C20.2756 3.40037 20.2758 3.40269 20.2764 3.40509C20.2851 3.43897 20.2915 3.4718 20.2959 3.50396V3.50404C20.3002 3.5362 20.3023 3.56775 20.3023 3.59909V5.98105C20.3023 6.41072 19.9528 6.76019 19.5232 6.76019H18.8569C18.4273 6.76019 18.0778 6.41072 18.0778 5.98105V3.59909C18.0778 3.56775 18.0799 3.5362 18.0842 3.50411C18.0842 3.50396 18.0842 3.50381 18.0842 3.50381C18.0885 3.47158 18.095 3.43882 18.1037 3.40501C18.1043 3.40277 18.1045 3.40052 18.1051 3.39819C18.1939 3.06574 18.4968 2.81994 18.8569 2.81994ZM10.8198 26.0113L11.9097 27.1313C11.9119 27.1337 11.914 27.1358 11.9163 27.138C13.8575 29.0653 16.4406 30.1267 19.19 30.1267C21.9393 30.1267 24.5225 29.0653 26.4637 27.138C26.4659 27.1358 26.468 27.1337 26.4703 27.1313L27.5602 26.0113L27.8148 26.1013V38.668H10.5651V26.1014L10.8198 26.0113ZM12.6117 25.3781L13.1102 25.8773C14.7279 27.4975 16.887 28.3897 19.1901 28.3897C21.4931 28.3897 23.6523 27.4975 25.2699 25.8773L25.7684 25.3781L26.4261 25.6105L25.6908 26.3661C23.9559 28.0869 21.6476 29.0343 19.1901 29.0343C16.7325 29.0343 14.4242 28.0869 12.6894 26.3661L11.9541 25.6105L12.6117 25.3781ZM12.9974 16.5215V13.3838H25.3821V16.1344C25.3821 16.1359 25.3818 16.1373 25.3818 16.1387V16.5066C25.3818 16.5185 25.3811 16.5304 25.381 16.5422C25.3805 16.5946 25.3791 16.6472 25.3764 16.7001C25.3751 16.7257 25.373 16.7516 25.3712 16.7773C25.3681 16.8196 25.3647 16.8621 25.3602 16.9047C25.3577 16.9296 25.355 16.9547 25.3519 16.9797C25.3458 17.0304 25.3387 17.0813 25.3306 17.1323C25.3282 17.1475 25.3263 17.1626 25.3237 17.1778C24.9618 19.3277 22.9676 21.6754 20.9393 22.1797L20.8652 22.1981C20.1433 22.3777 19.6319 22.4815 19.154 22.4815H19.1539C18.6704 22.4815 18.1731 22.3792 17.4244 22.1904C15.1902 21.6271 12.9974 18.8192 12.9974 16.5215ZM26.9373 15.1942C26.9373 15.4138 26.7586 15.5925 26.5389 15.5925H26.4745V13.381H26.9373V15.1942ZM11.441 15.1943V13.3809H11.905V15.5925H11.8392C11.6197 15.5925 11.441 15.4139 11.441 15.1943ZM15.7625 24.9512C16.1661 24.8267 16.4373 24.4593 16.4375 24.0367L16.4376 23.0087C16.6746 23.107 16.915 23.1886 17.1573 23.2498C17.9718 23.4551 18.5595 23.574 19.1539 23.574C19.1539 23.574 19.1539 23.574 19.154 23.574C19.7437 23.574 20.3247 23.4582 21.1287 23.2583L21.2028 23.2398C21.4484 23.1787 21.6951 23.0961 21.9404 22.9935L21.9405 24.0369C21.9407 24.4592 22.2119 24.8265 22.6158 24.9512L24.1564 25.4252C24.1504 25.4306 24.1443 25.436 24.1383 25.4412C24.0635 25.507 23.9876 25.5712 23.9107 25.6338C23.899 25.6433 23.8873 25.6526 23.8755 25.662C23.7966 25.7252 23.7168 25.7871 23.6358 25.8468C23.627 25.8533 23.6181 25.8595 23.6092 25.866C23.5242 25.9281 23.4383 25.9886 23.3511 26.0468C23.3493 26.048 23.3476 26.0491 23.3459 26.0503C23.2581 26.1088 23.1691 26.1651 23.079 26.2197C23.0723 26.2237 23.0656 26.2281 23.0588 26.2321C22.9717 26.2846 22.8834 26.3347 22.7944 26.3835C22.7826 26.39 22.7708 26.3966 22.7589 26.4031C22.6721 26.45 22.5843 26.4949 22.4958 26.5383C22.4817 26.5452 22.4676 26.5521 22.4535 26.5589C22.3654 26.6014 22.2766 26.642 22.1868 26.6809C22.1726 26.6871 22.1582 26.6932 22.1439 26.6993C22.053 26.738 21.9614 26.7751 21.8691 26.8102C21.8569 26.8148 21.8448 26.8192 21.8327 26.8237C21.7371 26.8595 21.6408 26.8935 21.5437 26.9254C21.5374 26.9275 21.5311 26.9293 21.5248 26.9313C21.4257 26.9634 21.3258 26.9935 21.2252 27.0215C21.2209 27.0228 21.2166 27.0242 21.2122 27.0254C21.1126 27.0529 21.0121 27.078 20.9112 27.1014C20.8993 27.1041 20.8875 27.1071 20.8756 27.1098C20.7783 27.1318 20.6804 27.1517 20.582 27.17C20.5666 27.1729 20.5513 27.1757 20.5358 27.1785C20.4388 27.1958 20.3413 27.2113 20.2433 27.2248C20.2269 27.2271 20.2105 27.2292 20.194 27.2314C20.0956 27.2444 19.9967 27.2556 19.8974 27.2648C19.8825 27.2661 19.8675 27.2673 19.8525 27.2686C19.7506 27.2774 19.6485 27.2845 19.5458 27.2892C19.5356 27.2897 19.5254 27.2899 19.5151 27.2903C19.4071 27.2948 19.2987 27.2976 19.1901 27.2976C19.0813 27.2976 18.973 27.2948 18.865 27.2903C18.8548 27.2899 18.8445 27.2897 18.8342 27.2892C18.7315 27.2846 18.6294 27.2774 18.5276 27.2686C18.5126 27.2673 18.4976 27.2661 18.4826 27.2648C18.3832 27.2556 18.2843 27.2444 18.1859 27.2314C18.1695 27.2292 18.1531 27.2271 18.1368 27.2248C18.0387 27.2113 17.9412 27.1958 17.8441 27.1785C17.8288 27.1757 17.8134 27.1729 17.798 27.17C17.6996 27.1517 17.6016 27.1319 17.5043 27.1098C17.4924 27.1071 17.4807 27.1041 17.4688 27.1014C17.3678 27.078 17.2673 27.0529 17.1676 27.0253C17.1633 27.0241 17.1591 27.0227 17.1548 27.0215C17.054 26.9935 16.9539 26.9633 16.8546 26.9311C16.8486 26.929 16.8424 26.9272 16.8364 26.9253C16.7391 26.8935 16.6428 26.8593 16.547 26.8235C16.5349 26.819 16.5229 26.8146 16.5108 26.8101C16.4184 26.7751 16.3268 26.738 16.2359 26.6992C16.2216 26.6931 16.2072 26.687 16.1929 26.6808C16.1033 26.6419 16.0145 26.6013 15.9264 26.5589C15.9122 26.552 15.8978 26.5451 15.8837 26.5381C15.7954 26.4949 15.7077 26.45 15.6211 26.4032C15.6089 26.3967 15.597 26.3899 15.5849 26.3832C15.4961 26.3347 15.4081 26.2845 15.3212 26.2322C15.3141 26.2279 15.3071 26.2234 15.3 26.2191C15.2105 26.1649 15.1221 26.1088 15.0347 26.0508C15.0326 26.0494 15.0305 26.048 15.0283 26.0466C14.9415 25.9886 14.856 25.9283 14.7713 25.8666C14.7621 25.8599 14.7527 25.8533 14.7434 25.8464C14.6629 25.787 14.5834 25.7256 14.5051 25.6627C14.4928 25.6529 14.4805 25.6432 14.4683 25.6333C14.3917 25.5712 14.3163 25.5072 14.242 25.4419C14.2357 25.4363 14.2295 25.4307 14.2231 25.4252L15.7625 24.9512ZM6.30802 38.6681V27.6059L9.47272 26.4874V38.668H6.30802V38.6681ZM28.9073 38.6681V26.4875L32.072 27.6059V38.6681H28.9073ZM37.1065 38.4578C36.9792 38.5934 36.8069 38.668 36.6212 38.668H33.1644V27.9919L33.6089 28.149C35.5066 28.8197 36.8155 30.5529 36.9434 32.5646L37.2862 37.9571C37.2981 38.1439 37.2343 38.3216 37.1065 38.4578Z" fill="#051C1B"/>
</g>
</svg>
