<svg width="39" height="39" viewBox="0 0 39 39" fill="none" xmlns="http://www.w3.org/2000/svg">
<g>
<path d="M5.75786 3.19934V1.91998C5.75786 1.2134 5.18508 0.640625 4.4785 0.640625C3.77192 0.640625 3.19922 1.2134 3.19922 1.91998V3.19934" fill="#FEDD0A"/>
<path d="M35.1817 3.19934V1.91998C35.1817 1.2134 34.6089 0.640625 33.9023 0.640625C33.1957 0.640625 32.623 1.2134 32.623 1.91998V3.19934" fill="#FFA800"/>
<path d="M4.09288 34.671L5.75604 31.3447H3.1974L1.84766 34.0441" fill="#FEDD0A"/>
<path d="M36.5314 34.0441L35.1817 31.3447H32.623L34.2862 34.671" fill="#FEDD0A"/>
<path d="M3.19727 5.75684V13.4328V15.9915V28.7848H5.75591V5.75684H3.19727Z" fill="#FEDD0A"/>
<path d="M35.1817 5.75586V13.4319V15.9905V28.7839H32.623V5.75586H35.1817Z" fill="#FFA800"/>
<path d="M4.47662 3.19727H36.46C37.1666 3.19727 37.7393 3.77004 37.7393 4.47662C37.7393 5.18321 37.1666 5.75598 36.46 5.75598H4.47662C3.77004 5.75598 3.19727 5.18321 3.19727 4.47662C3.19734 3.77004 3.77012 3.19727 4.47662 3.19727Z" fill="#FFA800"/>
<path d="M4.47662 28.7852H36.46C37.1666 28.7852 37.7393 29.3579 37.7393 30.0645C37.7393 30.7711 37.1666 31.3439 36.46 31.3439H4.47662C3.77004 31.3439 3.19727 30.7711 3.19727 30.0645C3.19734 29.3579 3.77012 28.7852 4.47662 28.7852Z" fill="#FFA800"/>
<path d="M1.91998 3.19727H33.9033C34.6099 3.19727 35.1827 3.77004 35.1827 4.47662C35.1827 5.18321 34.6099 5.75598 33.9033 5.75598H1.91998C1.2134 5.75598 0.640625 5.18321 0.640625 4.47662C0.640625 3.77004 1.2134 3.19727 1.91998 3.19727Z" fill="white"/>
<path d="M1.91998 28.7852H33.9033C34.6099 28.7852 35.1827 29.3579 35.1827 30.0645C35.1827 30.7711 34.6099 31.3439 33.9033 31.3439H1.91998C1.2134 31.3439 0.640625 30.7711 0.640625 30.0645C0.640625 29.3579 1.2134 28.7852 1.91998 28.7852Z" fill="white"/>
<path d="M3.83795 3.19727H34.542C35.2485 3.19727 35.8213 3.77004 35.8213 4.47662C35.8213 5.18321 35.2485 5.75598 34.542 5.75598H3.83795C3.13137 5.75598 2.55859 5.18321 2.55859 4.47662C2.55859 3.77004 3.13137 3.19727 3.83795 3.19727Z" fill="#FEDD0A"/>
<path d="M3.83795 28.7852H34.542C35.2485 28.7852 35.8213 29.3579 35.8213 30.0645C35.8213 30.7711 35.2485 31.3439 34.542 31.3439H3.83795C3.13137 31.3439 2.55859 30.7711 2.55859 30.0645C2.55859 29.3579 3.13137 28.7852 3.83795 28.7852Z" fill="#FEDD0A"/>
<path d="M36.461 6.3966H1.919C0.859202 6.3966 0 5.53739 0 4.4776C0 3.4178 0.859202 2.55859 1.919 2.55859H36.461C37.5208 2.55859 38.38 3.4178 38.38 4.4776C38.38 5.53739 37.5209 6.3966 36.461 6.3966ZM1.919 3.83795C1.56571 3.83795 1.27936 4.12438 1.27936 4.4776C1.27936 4.83081 1.56578 5.11724 1.919 5.11724H36.461C36.8143 5.11724 37.1006 4.83081 37.1006 4.4776C37.1006 4.12438 36.8143 3.83795 36.461 3.83795H1.919Z" fill="black"/>
<path d="M36.461 31.9816H1.919C0.859202 31.9816 0 31.1224 0 30.0626C0 29.0028 0.859202 28.1436 1.919 28.1436H36.461C37.5208 28.1436 38.38 29.0028 38.38 30.0626C38.38 31.1224 37.5209 31.9816 36.461 31.9816ZM1.919 29.4228C1.56571 29.4228 1.27936 29.7092 1.27936 30.0625C1.27936 30.4158 1.56578 30.7021 1.919 30.7021H36.461C36.8143 30.7021 37.1006 30.4157 37.1006 30.0625C37.1006 29.7093 36.8143 29.4228 36.461 29.4228H1.919Z" fill="black"/>
<path d="M4.09249 35.3089C3.8709 35.3087 3.66514 35.1939 3.54872 35.0053C3.43231 34.8167 3.42181 34.5813 3.52091 34.3831L4.72119 31.9825H3.59302L2.42018 34.3285C2.26149 34.6433 1.87807 34.7704 1.56278 34.6127C1.2475 34.455 1.11909 34.072 1.27576 33.7562L2.62535 31.0567C2.73375 30.84 2.95526 30.7031 3.19753 30.7031H5.75632C5.97806 30.7031 6.1839 30.8179 6.30046 31.0065C6.41703 31.1951 6.42767 31.4305 6.3285 31.6289L4.66527 34.9553C4.55687 35.1722 4.33506 35.3092 4.09249 35.3089Z" fill="black"/>
<path d="M2.55962 37.7413C3.61946 37.7413 4.47862 36.8822 4.47862 35.8223C4.47862 34.7625 3.61946 33.9033 2.55962 33.9033C1.49979 33.9033 0.640625 34.7625 0.640625 35.8223C0.640625 36.8822 1.49979 37.7413 2.55962 37.7413Z" fill="#FEDD0A"/>
<path d="M35.8213 37.7413C36.8812 37.7413 37.7403 36.8822 37.7403 35.8223C37.7403 34.7625 36.8812 33.9033 35.8213 33.9033C34.7615 33.9033 33.9023 34.7625 33.9023 35.8223C33.9023 36.8822 34.7615 37.7413 35.8213 37.7413Z" fill="#FEDD0A"/>
<path d="M2.55864 38.381C1.14555 38.381 0 37.2354 0 35.8223C0 34.4092 1.14555 33.2637 2.55864 33.2637C3.97173 33.2637 5.11728 34.4092 5.11728 35.8223C5.11571 37.2347 3.97113 38.3793 2.55864 38.381ZM2.55864 34.543C1.85206 34.543 1.27928 35.1157 1.27928 35.8223C1.27928 36.5289 1.85206 37.1017 2.55864 37.1017C3.26522 37.1017 3.838 36.5288 3.838 35.8223C3.83733 35.116 3.26492 34.5436 2.55864 34.543Z" fill="black"/>
<path d="M34.2856 35.3098C34.0431 35.3104 33.8211 35.1734 33.7128 34.9563L32.0499 31.6299C31.9508 31.4316 31.9614 31.1961 32.078 31.0075C32.1945 30.8189 32.4004 30.7041 32.6221 30.7041H35.1807C35.423 30.7041 35.6445 30.841 35.7529 31.0577L37.1028 33.7572C37.2595 34.073 37.1311 34.456 36.8158 34.6137C36.5005 34.7713 36.1171 34.6442 35.9584 34.3294L34.7852 31.9835H33.6571L34.8571 34.3841C34.9563 34.5823 34.9457 34.8176 34.8293 35.0063C34.713 35.1948 34.5072 35.3097 34.2856 35.3098Z" fill="black"/>
<path d="M35.8204 38.381C34.4073 38.381 33.2617 37.2354 33.2617 35.8223C33.2617 34.4092 34.4073 33.2637 35.8204 33.2637C37.2334 33.2637 38.379 34.4092 38.379 35.8223C38.3775 37.2348 37.2328 38.3795 35.8204 38.381ZM35.8204 34.543C35.1138 34.543 34.541 35.1157 34.541 35.8223C34.541 36.5289 35.1138 37.1017 35.8204 37.1017C36.5269 37.1017 37.0997 36.5289 37.0997 35.8223C37.0989 35.116 36.5266 34.5438 35.8204 34.543Z" fill="black"/>
<path d="M5.75688 3.838C5.40359 3.838 5.11724 3.55157 5.11724 3.19836V1.919C5.11724 1.56571 4.83081 1.27936 4.4776 1.27936C4.12438 1.27936 3.83788 1.56571 3.83788 1.919V3.19836C3.83788 3.55165 3.55145 3.838 3.19824 3.838C2.84502 3.838 2.55859 3.55157 2.55859 3.19836V1.919C2.55859 0.859202 3.4178 0 4.4776 0C5.53739 0 6.3966 0.859202 6.3966 1.919V3.19836C6.39652 3.55157 6.11017 3.838 5.75688 3.838Z" fill="black"/>
<path d="M5.75683 14.0734C5.40354 14.0734 5.11719 13.7871 5.11719 13.4338V5.75781C5.11719 5.40452 5.40361 5.11816 5.75683 5.11816C6.11012 5.11816 6.39647 5.40459 6.39647 5.75781V13.4338C6.39647 13.7871 6.11012 14.0734 5.75683 14.0734Z" fill="black"/>
<path d="M5.75688 29.4254H3.19824C2.84494 29.4254 2.55859 29.1391 2.55859 28.7858V5.75781C2.55859 5.40452 2.84502 5.11816 3.19824 5.11816C3.55145 5.11816 3.83788 5.40452 3.83788 5.75781V28.1462H5.11723V15.9924C5.11723 15.6392 5.40366 15.3528 5.75688 15.3528C6.11017 15.3528 6.39652 15.6392 6.39652 15.9924V28.7858C6.39652 29.1391 6.11017 29.4254 5.75688 29.4254Z" fill="black"/>
<path d="M35.1807 3.838C35.0111 3.83808 34.8483 3.77069 34.7283 3.65067C34.6083 3.53066 34.541 3.368 34.541 3.19828V1.919C34.541 1.56571 34.2546 1.27936 33.9013 1.27936C33.5481 1.27936 33.2617 1.56578 33.2617 1.919V3.19836C33.2617 3.55165 32.9753 3.838 32.6221 3.838C32.2688 3.838 31.9824 3.55157 31.9824 3.19836V1.919C31.9824 0.859202 32.8416 0 33.9014 0C34.9612 0 35.8204 0.859202 35.8204 1.919V3.19836C35.8205 3.368 35.7531 3.53074 35.6331 3.65075C35.5131 3.77076 35.3504 3.83808 35.1807 3.838Z" fill="black"/>
<path d="M35.1808 29.4254H32.6221C32.4525 29.4255 32.2898 29.3581 32.1698 29.2381C32.0498 29.1182 31.9824 28.9554 31.9824 28.7857V15.9924C31.9824 15.6392 32.2688 15.3528 32.6221 15.3528C32.9754 15.3528 33.2617 15.6392 33.2617 15.9924V28.1461H34.5411V5.75781C34.5411 5.40452 34.8276 5.11816 35.1808 5.11816C35.5341 5.11816 35.8204 5.40459 35.8204 5.75781V28.7858C35.8205 28.9554 35.7531 29.1182 35.6331 29.2382C35.5132 29.3581 35.3505 29.4255 35.1808 29.4254Z" fill="black"/>
<path d="M32.6221 14.0734C32.4525 14.0735 32.2898 14.0061 32.1698 13.8861C32.0498 13.7662 31.9824 13.6034 31.9824 13.4337V5.75781C31.9824 5.40452 32.2688 5.11816 32.6221 5.11816C32.9754 5.11816 33.2617 5.40459 33.2617 5.75781V13.4338C33.2618 13.6034 33.1944 13.7662 33.0744 13.8862C32.9545 14.0061 32.7918 14.0735 32.6221 14.0734Z" fill="black"/>
<path d="M35.1826 13.4346H3.19922V15.9932H35.1826V13.4346Z" fill="#FFA800"/>
<path d="M33.2636 13.4346H3.19922V15.9932H33.2636V13.4346Z" fill="#FEDD0A"/>
<path d="M35.1815 16.6319H3.19824C2.84494 16.6319 2.55859 16.3455 2.55859 15.9923V13.4336C2.55859 13.0803 2.84502 12.7939 3.19824 12.7939H35.1816C35.3512 12.7939 35.514 12.8613 35.634 12.9813C35.7539 13.1012 35.8213 13.264 35.8213 13.4337V15.9923C35.8214 16.1619 35.754 16.3247 35.634 16.4447C35.514 16.5646 35.3512 16.6319 35.1815 16.6319ZM3.83788 15.3526H34.5419V14.0732H3.83788V15.3526Z" fill="black"/>
<path d="M32.6214 29.4257C32.5265 29.4256 32.4328 29.4044 32.3472 29.3636L5.48124 16.5702C5.27442 16.4723 5.13567 16.2714 5.1173 16.0433C5.09894 15.8152 5.20396 15.5947 5.39248 15.4651C5.58101 15.3355 5.82448 15.3164 6.03093 15.4152L32.8969 28.2086C33.1671 28.337 33.3122 28.6356 33.2462 28.9274C33.1801 29.2191 32.9206 29.4262 32.6214 29.4257Z" fill="black"/>
<path d="M5.75703 29.4268C5.45809 29.4268 5.19895 29.2198 5.13298 28.9281C5.06709 28.6365 5.21192 28.3381 5.48185 28.2095L32.3479 15.4162C32.5543 15.3174 32.7977 15.3364 32.9863 15.466C33.1749 15.5956 33.2798 15.8162 33.2615 16.0443C33.2432 16.2724 33.1044 16.4733 32.8975 16.5712L6.03154 29.3645C5.94586 29.4055 5.85208 29.4268 5.75703 29.4268Z" fill="black"/>
</g>
</svg>
