<svg width="39" height="39" viewBox="0 0 39 39" fill="none" xmlns="http://www.w3.org/2000/svg">
<g>
<path d="M21.5887 29.9175V39.5125H1.1993C0.869469 39.5125 0.599609 39.2432 0.599609 38.9128V34.715C0.599609 32.0644 2.74649 29.9175 5.39711 29.9175H9.59492L11.9937 31.1169L13.7927 30.5172L15.5918 31.1169L17.9905 29.9175H21.5887Z" fill="#ED5565"/>
<path d="M26.6872 32.3167H27.5807H27.5867C27.9231 32.3107 28.1864 32.0474 28.1864 31.717V30.5176H26.6812H25.188V31.717H25.182C25.182 32.0474 25.4518 32.3167 25.7817 32.3167H26.6872ZM29.9855 33.5161H31.7845V31.1173C31.7845 30.1224 30.981 29.3249 29.9855 29.3183V33.5161ZM35.3827 26.3198V39.5129H21.5898V29.9179V26.3198H25.7877H28.1864H32.3842H34.783H35.3827Z" fill="#FFD2A6"/>
<path d="M28.1861 30.5156V31.715C28.1861 32.0454 27.9228 32.3087 27.5864 32.3147H27.5804H26.6869H25.7813C25.4515 32.3147 25.1816 32.0454 25.1816 31.715H25.1876V30.5156H26.6809H28.1861Z" fill="#F5F7FA"/>
<path d="M35.3809 26.3198H37.7796V39.5129H35.3809V26.3198Z" fill="#F7C292"/>
<path d="M31.7834 31.1155V33.5142H29.9844V29.3164C30.9799 29.323 31.7834 30.1206 31.7834 31.1155Z" fill="#F5F7FA"/>
<path d="M23.987 15.5237H22.7877H4.79703H3.59766C3.59766 15.5237 3.92808 15.1639 4.79703 14.7202C6.16432 14.0245 8.8869 13.125 13.7923 13.125C18.6978 13.125 21.421 14.0245 22.7877 14.7202C23.6572 15.1639 23.987 15.5237 23.987 15.5237Z" fill="#656D78"/>
<path d="M22.7875 15.5234V18.5219C22.7875 21.9701 20.8445 24.9685 17.99 26.4803C16.7367 27.1394 15.3094 27.5172 13.7922 27.5172C12.2756 27.5172 10.8477 27.1394 9.59438 26.4803C6.73986 24.9685 4.79688 21.9701 4.79688 18.5219V15.5234H22.7875Z" fill="#FFE7CF"/>
<path d="M20.9872 15.5234V18.5219C20.9872 21.9701 19.0448 24.9685 16.1897 26.4803C15.1882 27.0075 14.074 27.3505 12.8926 27.4686C13.1888 27.498 13.4875 27.5172 13.7921 27.5172C15.3093 27.5172 16.7366 27.1394 17.9899 26.4803C20.8444 24.9685 22.7874 21.9701 22.7874 18.5219V15.5234H20.9872Z" fill="#F4D3A6"/>
<path d="M22.7875 13.1276V14.7228C21.4208 14.0272 18.6976 13.1276 13.7922 13.1276C8.88674 13.1276 6.16416 14.0272 4.79688 14.7228V13.1276C4.79688 8.15683 8.82078 4.13232 13.7922 4.13232C18.7576 4.13232 22.7875 8.15683 22.7875 13.1276ZM15.5913 8.92982C15.5913 7.93434 14.7817 7.13076 13.7922 7.13076C12.7967 7.13076 11.9931 7.93434 11.9931 8.92982C11.9931 9.91931 12.7967 10.7289 13.7922 10.7289C14.7817 10.7289 15.5913 9.91931 15.5913 8.92982Z" fill="#ED5565"/>
<path d="M13.7933 4.13232C13.4893 4.13232 13.1888 4.14852 12.8926 4.1779C17.4364 4.62887 20.9884 8.46087 20.9884 13.1276V14.0164C21.7506 14.2485 22.3437 14.4961 22.7886 14.7228V13.1276C22.7886 8.15683 18.7587 4.13232 13.7933 4.13232Z" fill="#DA4453"/>
<path d="M17.9913 26.481V29.9166L15.5926 31.1159L13.7935 30.5163L11.9945 31.1159L9.5957 29.9166V26.481C10.849 27.14 12.2769 27.5178 13.7935 27.5178C15.3107 27.5178 16.738 27.14 17.9913 26.481Z" fill="#FFCE54"/>
<path d="M13.7932 7.12891C14.7827 7.12891 15.5923 7.93249 15.5923 8.92797C15.5923 9.91745 14.7827 10.727 13.7932 10.727C12.7977 10.727 11.9941 9.91745 11.9941 8.92797C11.9941 7.93249 12.7977 7.12891 13.7932 7.12891Z" fill="#FFCE54"/>
<path d="M0.599688 35.3174C0.26806 35.3174 0 35.0493 0 34.7177C0 31.7409 2.42154 29.3193 5.39839 29.3193C5.73001 29.3193 5.99807 29.5874 5.99807 29.919C5.99807 30.2507 5.73001 30.5187 5.39839 30.5187C3.08299 30.5187 1.19938 32.4023 1.19938 34.7177C1.19938 35.0493 0.931315 35.3174 0.599688 35.3174Z" fill="black"/>
<path d="M9.59512 30.5193L5.39851 30.5187C5.06689 30.5187 4.79883 30.2501 4.79883 29.919C4.79883 29.5874 5.06749 29.3193 5.39851 29.3193L9.59512 29.3199C9.92675 29.3199 10.1948 29.5886 10.1948 29.9196C10.1948 30.2512 9.92615 30.5193 9.59512 30.5193Z" fill="black"/>
<path d="M0.600287 39.5121C0.26926 39.5121 0.000599688 39.244 0.000599688 38.9124L0 34.7164C0 34.3854 0.26806 34.1167 0.599688 34.1167C0.930715 34.1167 1.19938 34.3848 1.19938 34.7164L1.19997 38.9124C1.19997 39.2434 0.931914 39.5121 0.600287 39.5121Z" fill="black"/>
<path d="M1.19937 40.1116C0.53792 40.1116 0 39.5736 0 38.9122C0 38.5806 0.26806 38.3125 0.599687 38.3125C0.931315 38.3125 1.19937 38.5806 1.19937 38.9122V38.9134C1.531 38.9134 1.79906 39.1809 1.79906 39.5125C1.79906 39.8435 1.531 40.1116 1.19937 40.1116Z" fill="black"/>
<path d="M9.59578 30.519C9.26415 30.519 8.99609 30.2509 8.99609 29.9193V26.4825C8.99609 26.1509 9.26415 25.8828 9.59578 25.8828C9.92741 25.8828 10.1955 26.1509 10.1955 26.4825V29.9193C10.1955 30.2509 9.92741 30.519 9.59578 30.519Z" fill="black"/>
<path d="M17.9903 30.5184C17.6587 30.5184 17.3906 30.2503 17.3906 29.9187V26.4825C17.3906 26.1509 17.6587 25.8828 17.9903 25.8828C18.3219 25.8828 18.59 26.1509 18.59 26.4825V29.9187C18.59 30.2503 18.3219 30.5184 17.9903 30.5184Z" fill="black"/>
<path d="M13.7923 28.12C8.50182 28.12 4.19727 23.8154 4.19727 18.525C4.19727 18.194 4.46533 17.9253 4.79695 17.9253C5.12858 17.9253 5.39664 18.194 5.39664 18.525C5.39664 23.1546 9.16268 26.9206 13.7923 26.9206C18.4219 26.9206 22.1879 23.1546 22.1879 18.525C22.1879 18.194 22.456 17.9253 22.7876 17.9253C23.1192 17.9253 23.3873 18.194 23.3873 18.525C23.3873 23.8154 19.0827 28.12 13.7923 28.12Z" fill="black"/>
<path d="M22.7876 13.7254C22.456 13.7254 22.1879 13.4568 22.1879 13.1258C22.1879 8.49617 18.4219 4.73014 13.7923 4.73014C9.16268 4.73014 5.39664 8.49617 5.39664 13.1258C5.39664 13.4568 5.12858 13.7254 4.79695 13.7254C4.46533 13.7254 4.19727 13.4568 4.19727 13.1258C4.19727 7.83532 8.50182 3.53076 13.7923 3.53076C19.0827 3.53076 23.3873 7.83532 23.3873 13.1258C23.3873 13.4568 23.1192 13.7254 22.7876 13.7254Z" fill="black"/>
<path d="M4.79695 19.1237C4.46533 19.1237 4.19727 18.855 4.19727 18.524V15.525C4.19727 15.194 4.46533 14.9253 4.79695 14.9253C5.12858 14.9253 5.39664 15.194 5.39664 15.525V18.524C5.39664 18.855 5.12858 19.1237 4.79695 19.1237Z" fill="black"/>
<path d="M22.7891 19.1237C22.4575 19.1237 22.1895 18.855 22.1895 18.524V15.525C22.1895 15.194 22.4575 14.9253 22.7891 14.9253C23.1208 14.9253 23.3888 15.194 23.3888 15.525V18.524C23.3888 18.855 23.1208 19.1237 22.7891 19.1237Z" fill="black"/>
<path d="M23.9871 16.1247H3.59773C3.26611 16.1247 2.99805 15.856 2.99805 15.525C2.99805 15.194 3.26611 14.9253 3.59773 14.9253H23.9871C24.3187 14.9253 24.5868 15.194 24.5868 15.525C24.5868 15.856 24.3187 16.1247 23.9871 16.1247Z" fill="black"/>
<path d="M23.9879 16.125C23.8248 16.125 23.6617 16.0584 23.5436 15.9277C23.5274 15.9121 21.3517 13.7262 13.7933 13.7262C6.23479 13.7262 4.05912 15.9121 4.03753 15.9337C3.81025 16.1712 3.43245 16.1849 3.19257 15.9613C2.9527 15.7376 2.93351 15.3658 3.15419 15.1229C3.25014 15.0168 5.60092 12.5269 13.7933 12.5269C21.9856 12.5269 24.3364 15.0168 24.4323 15.1229C24.6548 15.3682 24.6362 15.7478 24.3909 15.9703C24.2758 16.074 24.1319 16.125 23.9879 16.125Z" fill="black"/>
<path d="M22.7891 15.3208C22.4575 15.3208 22.1895 15.0521 22.1895 14.7211V13.1265C22.1895 12.7955 22.4575 12.5269 22.7891 12.5269C23.1208 12.5269 23.3888 12.7955 23.3888 13.1265V14.7211C23.3888 15.0521 23.1208 15.3208 22.7891 15.3208Z" fill="black"/>
<path d="M4.79695 15.3208C4.46533 15.3208 4.19727 15.0521 4.19727 14.7211V13.1265C4.19727 12.7955 4.46533 12.5269 4.79695 12.5269C5.12858 12.5269 5.39664 12.7955 5.39664 13.1265V14.7211C5.39664 15.0521 5.12858 15.3208 4.79695 15.3208Z" fill="black"/>
<path d="M13.7933 11.3283C12.4704 11.3283 11.3945 10.2524 11.3945 8.92951C11.3945 7.6066 12.4704 6.53076 13.7933 6.53076C15.1162 6.53076 16.192 7.6066 16.192 8.92951C16.192 10.2524 15.1162 11.3283 13.7933 11.3283ZM13.7933 7.73014C13.1318 7.73014 12.5939 8.26806 12.5939 8.92951C12.5939 9.59097 13.1318 10.1289 13.7933 10.1289C14.4547 10.1289 14.9927 9.59097 14.9927 8.92951C14.9927 8.26806 14.4547 7.73014 13.7933 7.73014Z" fill="black"/>
<path d="M13.793 2.40014C13.4614 2.40014 13.1934 2.13148 13.1934 1.80045V1.20076C13.1934 0.869734 13.4614 0.601074 13.793 0.601074C14.1247 0.601074 14.3927 0.869734 14.3927 1.20076V1.80045C14.3927 2.13148 14.1247 2.40014 13.793 2.40014Z" fill="black"/>
<path d="M11.9937 31.7157C11.9038 31.7157 11.812 31.6953 11.7269 31.6527L9.3281 30.4551C9.03186 30.3076 8.91132 29.9472 9.05944 29.6509C9.20697 29.3541 9.56918 29.2353 9.86363 29.3823L12.2624 30.5798C12.5586 30.7274 12.6792 31.0878 12.531 31.384C12.4261 31.5945 12.2138 31.7157 11.9937 31.7157Z" fill="black"/>
<path d="M11.9944 31.715C11.7431 31.715 11.5086 31.5555 11.4253 31.3042C11.3209 30.99 11.4906 30.6505 11.8055 30.5456L13.6045 29.9477C13.9182 29.8446 14.2582 30.0137 14.3632 30.3279C14.4675 30.6422 14.2978 30.9816 13.9829 31.0865L12.1839 31.6844C12.1209 31.7048 12.0568 31.715 11.9944 31.715Z" fill="black"/>
<path d="M15.5929 31.7132C15.3728 31.7132 15.1605 31.5921 15.0555 31.381C14.9074 31.0847 15.028 30.7243 15.3242 30.5768L17.723 29.3792C18.0192 29.2323 18.3796 29.3516 18.5271 29.6479C18.6753 29.9441 18.5547 30.3045 18.2585 30.4521L15.8597 31.6496C15.7746 31.6928 15.6822 31.7132 15.5929 31.7132Z" fill="black"/>
<path d="M15.5922 31.7179C15.5299 31.7179 15.4657 31.7077 15.4033 31.6873L13.6043 31.0894C13.29 30.9844 13.1197 30.6456 13.2241 30.3308C13.329 30.0172 13.6684 29.8474 13.9827 29.9506L15.7817 30.5485C16.096 30.6534 16.2663 30.9922 16.1619 31.3071C16.078 31.5583 15.8435 31.7179 15.5922 31.7179Z" fill="black"/>
<path d="M13.8097 34.1134C13.4781 34.1134 13.207 33.8454 13.207 33.5138C13.207 33.1821 13.4721 32.9141 13.8031 32.9141H13.8097C14.1407 32.9141 14.4094 33.1821 14.4094 33.5138C14.4094 33.8454 14.1407 34.1134 13.8097 34.1134Z" fill="black"/>
<path d="M35.3808 40.1112H21.588C21.2563 40.1112 20.9883 39.8432 20.9883 39.5116V26.3184C20.9883 25.9868 21.2563 25.7188 21.588 25.7188H35.3808C35.7124 25.7188 35.9805 25.9868 35.9805 26.3184V39.5116C35.9805 39.8432 35.7124 40.1112 35.3808 40.1112ZM22.1877 38.9119H34.7811V26.9181H22.1877V38.9119Z" fill="black"/>
<path d="M26.6856 37.7181C26.354 37.7181 26.0859 37.45 26.0859 37.1184V32.3209C26.0859 31.9893 26.354 31.7212 26.6856 31.7212C27.0173 31.7212 27.2853 31.9893 27.2853 32.3209V37.1184C27.2853 37.45 27.0173 37.7181 26.6856 37.7181Z" fill="black"/>
<path d="M25.7835 32.9167C25.1227 32.9167 24.5859 32.3793 24.5859 31.7191C24.5859 31.4013 24.8366 31.1716 25.1538 31.1542C25.4627 31.1362 25.7487 31.4025 25.7853 31.7179C26.1163 31.7179 26.3838 31.9859 26.3838 32.317C26.3838 32.6486 26.1151 32.9167 25.7835 32.9167Z" fill="black"/>
<path d="M27.5841 32.9193C27.2524 32.9193 26.9844 32.6512 26.9844 32.3196C26.9844 31.988 27.2524 31.7199 27.5841 31.7199C27.5841 31.3883 27.8527 31.1196 28.1843 31.1196C28.516 31.1196 28.7846 31.3871 28.7846 31.7187C28.7846 32.3802 28.2461 32.9193 27.5841 32.9193Z" fill="black"/>
<path d="M27.5859 32.9171H25.7833C25.4517 32.9171 25.1836 32.6491 25.1836 32.3175C25.1836 31.9858 25.4517 31.7178 25.7833 31.7178H27.5859C27.9176 31.7178 28.1856 31.9858 28.1856 32.3175C28.1856 32.6491 27.9176 32.9171 27.5859 32.9171Z" fill="black"/>
<path d="M25.1856 32.3176C24.854 32.3176 24.5859 32.0495 24.5859 31.7179V29.3179C24.5859 28.9863 24.854 28.7183 25.1856 28.7183C25.5173 28.7183 25.7853 28.9863 25.7853 29.3179V31.7179C25.7853 32.0495 25.5173 32.3176 25.1856 32.3176Z" fill="black"/>
<path d="M28.1837 32.3176C27.852 32.3176 27.584 32.0495 27.584 31.7179V29.3179C27.584 28.9863 27.852 28.7183 28.1837 28.7183C28.5153 28.7183 28.7834 28.9863 28.7834 29.3179V31.7179C28.7834 32.0495 28.5153 32.3176 28.1837 32.3176Z" fill="black"/>
<path d="M29.9825 37.7172C29.6509 37.7172 29.3828 37.4491 29.3828 37.1175V29.3179C29.3828 28.9863 29.6509 28.7183 29.9825 28.7183C30.3141 28.7183 30.5822 28.9863 30.5822 29.3179V37.1175C30.5822 37.4491 30.3141 37.7172 29.9825 37.7172Z" fill="black"/>
<path d="M31.7813 31.7203C31.4496 31.7203 31.1816 31.4522 31.1816 31.1206C31.1816 30.4574 30.6424 29.9176 29.9786 29.9176C29.647 29.9176 29.3789 29.6496 29.3789 29.3179C29.3789 28.9863 29.647 28.7183 29.9786 28.7183C31.3033 28.7183 32.3809 29.7959 32.3809 31.1206C32.3809 31.4522 32.1129 31.7203 31.7813 31.7203Z" fill="black"/>
<path d="M31.7813 34.1165C31.4497 34.1165 31.1816 33.8484 31.1816 33.5168V31.1217C31.1816 30.79 31.4497 30.522 31.7813 30.522C32.113 30.522 32.381 30.79 32.381 31.1217V33.5168C32.381 33.8484 32.113 34.1165 31.7813 34.1165Z" fill="black"/>
<path d="M31.7816 34.1134H29.9825C29.6509 34.1134 29.3828 33.8454 29.3828 33.5138C29.3828 33.1821 29.6509 32.9141 29.9825 32.9141H31.7816C32.1132 32.9141 32.3812 33.1821 32.3812 33.5138C32.3812 33.8454 32.1132 34.1134 31.7816 34.1134Z" fill="black"/>
<path d="M28.1847 31.1169H25.1856C24.854 31.1169 24.5859 30.8488 24.5859 30.5172C24.5859 30.1855 24.854 29.9175 25.1856 29.9175H28.1847C28.5163 29.9175 28.7844 30.1855 28.7844 30.5172C28.7844 30.8488 28.5163 31.1169 28.1847 31.1169Z" fill="black"/>
<path d="M26.6837 31.1158C26.352 31.1158 26.084 30.8478 26.084 30.5161V29.3179C26.084 28.9863 26.352 28.7183 26.6837 28.7183C27.0153 28.7183 27.2834 28.9863 27.2834 29.3179V30.5161C27.2834 30.8478 27.0153 31.1158 26.6837 31.1158Z" fill="black"/>
<path d="M37.7809 40.1112H35.3809C35.0493 40.1112 34.7812 39.8432 34.7812 39.5116C34.7812 39.1799 35.0493 38.9119 35.3809 38.9119H37.1812V26.9181H35.3809C35.0493 26.9181 34.7812 26.6501 34.7812 26.3184C34.7812 25.9868 35.0493 25.7188 35.3809 25.7188H37.7809C38.1125 25.7188 38.3806 25.9868 38.3806 26.3184V39.5116C38.3806 39.8432 38.1125 40.1112 37.7809 40.1112Z" fill="black"/>
<path d="M32.3838 24.221C32.0521 24.221 31.7841 23.953 31.7841 23.6213C31.7841 22.1329 30.5733 20.9215 29.0855 20.9215C27.5976 20.9215 26.3869 22.1329 26.3869 23.6213C26.3869 23.953 26.1188 24.221 25.7872 24.221C25.4556 24.221 25.1875 23.953 25.1875 23.6213C25.1875 21.4715 26.9362 19.7222 29.0855 19.7222C31.2348 19.7222 32.9834 21.4715 32.9834 23.6207C32.9834 23.953 32.7154 24.221 32.3838 24.221Z" fill="black"/>
<path d="M25.7872 26.9192C25.4556 26.9192 25.1875 26.6512 25.1875 26.3195V23.6221C25.1875 23.2905 25.4556 23.0225 25.7872 23.0225C26.1188 23.0225 26.3869 23.2905 26.3869 23.6221V26.3195C26.3869 26.6512 26.1188 26.9192 25.7872 26.9192Z" fill="black"/>
<path d="M32.3829 26.9192C32.0513 26.9192 31.7832 26.6512 31.7832 26.3195V23.6221C31.7832 23.2905 32.0513 23.0225 32.3829 23.0225C32.7145 23.0225 32.9826 23.2905 32.9826 23.6221V26.3195C32.9826 26.6512 32.7145 26.9192 32.3829 26.9192Z" fill="black"/>
<path d="M34.7841 24.2204C34.4525 24.2204 34.1845 23.9524 34.1845 23.6207C34.1845 22.1323 32.9737 20.9215 31.4859 20.9215C29.998 20.9215 28.7873 22.1323 28.7873 23.6207C28.7873 23.9524 28.5192 24.2204 28.1876 24.2204C27.856 24.2204 27.5879 23.9524 27.5879 23.6207C27.5879 21.4709 29.3366 19.7222 31.4859 19.7222C33.6351 19.7222 35.3838 21.4715 35.3838 23.6207C35.3838 23.9524 35.1158 24.2204 34.7841 24.2204Z" fill="black"/>
<path d="M28.1876 26.9192C27.856 26.9192 27.5879 26.6512 27.5879 26.3195V23.6221C27.5879 23.2905 27.856 23.0225 28.1876 23.0225C28.5192 23.0225 28.7873 23.2905 28.7873 23.6221V26.3195C28.7873 26.6512 28.5192 26.9192 28.1876 26.9192Z" fill="black"/>
<path d="M34.7833 26.9192C34.4517 26.9192 34.1836 26.6512 34.1836 26.3195V23.6221C34.1836 23.2905 34.4517 23.0225 34.7833 23.0225C35.1149 23.0225 35.383 23.2905 35.383 23.6221V26.3195C35.383 26.6512 35.1149 26.9192 34.7833 26.9192Z" fill="black"/>
<path d="M21.5872 30.5187H17.9903C17.6587 30.5187 17.3906 30.2507 17.3906 29.919C17.3906 29.5874 17.6587 29.3193 17.9903 29.3193H21.5872C21.9189 29.3193 22.1869 29.5874 22.1869 29.919C22.1869 30.2507 21.9189 30.5187 21.5872 30.5187Z" fill="black"/>
</g>
</svg>
