<svg width="39" height="39" viewBox="0 0 39 39" fill="none" xmlns="http://www.w3.org/2000/svg">
<g>
<path d="M17.3914 24.5225H30.5845C32.175 24.5225 33.7003 25.1543 34.825 26.2789C35.9496 27.4035 36.5814 28.9289 36.5814 30.5193V38.915H11.3945V30.5193C11.3945 28.9289 12.0263 27.4035 13.151 26.2789C14.2756 25.1543 15.8009 24.5225 17.3914 24.5225Z" fill="#84D2F4"/>
<path d="M33.583 31.119V25.3314C32.6726 24.8015 31.6379 24.5224 30.5845 24.5225H17.3914C15.8009 24.5225 14.2756 25.1543 13.151 26.2789C12.0263 27.4035 11.3945 28.9289 11.3945 30.5193V38.915H36.5814V34.1175C35.7862 34.1175 35.0235 33.8016 34.4612 33.2392C33.8989 32.6769 33.583 31.9143 33.583 31.119Z" fill="#57B7EB"/>
<path d="M20.6657 8.58368C20.7241 8.851 20.8721 9.0903 21.0853 9.26188C21.2984 9.43346 21.5638 9.52701 21.8375 9.52699H25.3066L25.7528 4.95617C25.176 4.80764 24.583 4.7315 23.9873 4.72949C22.5987 4.72888 21.2398 5.13204 20.0762 5.88989L20.6657 8.58368Z" fill="#CC5144"/>
<path d="M31.1838 14.3262H16.7913C15.7977 14.3262 14.9922 15.1316 14.9922 16.1252C14.9922 17.1188 15.7977 17.9243 16.7913 17.9243H31.1838C32.1773 17.9243 32.9828 17.1188 32.9828 16.1252C32.9828 15.1316 32.1773 14.3262 31.1838 14.3262Z" fill="#FFE7CF"/>
<path d="M20.3906 20.9248H27.5869V24.5229C27.5869 25.4772 27.2078 26.3924 26.533 27.0672C25.8582 27.742 24.943 28.1211 23.9888 28.1211C23.0345 28.1211 22.1193 27.742 21.4445 27.0672C20.7697 26.3924 20.3906 25.4772 20.3906 24.5229V20.9248Z" fill="#FFE7CF"/>
<path d="M25.1881 26.9217C24.5481 26.9214 23.9197 26.7505 23.3678 26.4265C22.8158 26.1024 22.3603 25.637 22.0482 25.0782C23.0665 25.1976 24.0986 25.0754 25.0609 24.7215C26.0232 24.3675 26.8886 23.7919 27.5869 23.0411V20.9248H20.3906V24.5229C20.392 25.3067 20.6493 26.0686 21.1234 26.6927C21.5974 27.3169 22.2623 27.7692 23.0169 27.9808C23.7716 28.1925 24.5747 28.152 25.3042 27.8655C26.0337 27.5789 26.6497 27.062 27.0586 26.3934C26.4957 26.7386 25.8484 26.9215 25.1881 26.9217Z" fill="#FFE7CF"/>
<path d="M17.3906 14.3262H30.5838V17.3246C30.5838 19.0741 29.8888 20.752 28.6517 21.9891C27.4146 23.2262 25.7367 23.9212 23.9872 23.9212C22.2377 23.9212 20.5598 23.2262 19.3227 21.9891C18.0856 20.752 17.3906 19.0741 17.3906 17.3246V14.3262Z" fill="#FFE7CF"/>
<path d="M31.1837 11.9287H16.7912C16.1288 11.9287 15.5918 12.4657 15.5918 13.1281C15.5918 13.7905 16.1288 14.3275 16.7912 14.3275H31.1837C31.8461 14.3275 32.383 13.7905 32.383 13.1281C32.383 12.4657 31.8461 11.9287 31.1837 11.9287Z" fill="#F89C8D"/>
<path d="M26.5074 9.52901L26.9871 4.58159C25.0331 3.98192 22.9442 3.98192 20.9902 4.58159L21.47 9.52901H26.5074Z" fill="#F89C8D"/>
<path d="M32.3828 35.3154H36.5806V38.9136H32.3828V35.3154Z" fill="#F9E109"/>
<path d="M11.3945 35.3154H15.5923V38.9136H11.3945V35.3154Z" fill="#F9E109"/>
<path d="M16.7912 11.9287C16.4731 11.9287 16.168 12.0551 15.9431 12.28C15.7182 12.5049 15.5918 12.81 15.5918 13.1281C15.5918 13.4462 15.7182 13.7512 15.9431 13.9762C16.168 14.2011 16.4731 14.3275 16.7912 14.3275H31.1837C31.5018 14.3275 31.8068 14.2011 32.0318 13.9762C32.2567 13.7512 32.383 13.4462 32.383 13.1281H17.9905C17.6725 13.1281 17.3674 13.0017 17.1425 12.7768C16.9175 12.5519 16.7912 12.2468 16.7912 11.9287Z" fill="#F8664F"/>
<path d="M22.1882 10.7267C21.393 10.7267 20.6303 10.4108 20.068 9.84846C19.5057 9.28614 19.1898 8.52348 19.1898 7.72824V6.57324C18.4351 7.24589 17.8313 8.07055 17.4178 8.99307C17.0044 9.9156 16.7908 10.9151 16.791 11.9261H31.1835C31.1811 11.5239 31.145 11.1227 31.0756 10.7267H22.1882Z" fill="#CC5144"/>
<path d="M25.3925 8.32974C24.6476 8.32983 23.9293 8.05261 23.3776 7.55209C22.8258 7.05156 22.4802 6.36358 22.4079 5.62215L22.2772 4.28125C21.8421 4.35344 21.4123 4.4538 20.9902 4.58169L21.47 9.52912H26.5074L26.6273 8.32974H25.3925Z" fill="#F8664F"/>
<path d="M26.386 23.3215C24.6364 23.3215 22.9586 22.6265 21.7215 21.3894C20.4844 20.1523 19.7894 18.4744 19.7894 16.7249V16.1252H30.5838V14.3262H17.3906V17.3246C17.3887 18.4332 17.6667 19.5244 18.1988 20.497C18.731 21.4696 19.5 22.292 20.4348 22.8882C21.3695 23.4843 22.4396 23.8348 23.5458 23.9072C24.6521 23.9796 25.7587 23.7715 26.7632 23.3023C26.6378 23.3095 26.5131 23.3215 26.386 23.3215Z" fill="#FFE7CF"/>
<path d="M31.1845 24.5225H27.5864L23.9883 34.1175V38.915H32.3839V32.9181L31.1845 24.5225Z" fill="#F9E109"/>
<path d="M16.7912 24.5225H20.3893L23.9874 34.1175V38.915H15.5918V32.9181L16.7912 24.5225Z" fill="#F9E109"/>
<path d="M30.9507 37.7156C30.4068 37.7156 29.8699 37.5922 29.3806 37.3548C28.8912 37.1175 28.462 36.7722 28.1253 36.3451C27.7885 35.918 27.553 35.4201 27.4364 34.8888C27.3198 34.3576 27.3252 33.8068 27.4521 33.2779L29.5534 24.5225H27.5864L23.9883 34.1175V38.915H32.3839V37.7156H30.9507Z" fill="#FCBC04"/>
<path d="M23.9883 36.5146H32.3839V38.9134H23.9883V36.5146Z" fill="#F89C8D"/>
<path d="M30.9507 37.714C30.4453 37.7149 29.9456 37.6084 29.4845 37.4017C29.0234 37.1949 28.6115 36.8926 28.276 36.5146H23.9883V38.9134H32.3839V37.714H30.9507Z" fill="#F8664F"/>
<path d="M21.9485 37.7156C21.1963 37.7156 20.4716 37.433 19.9181 36.9237C19.3646 36.4143 19.0227 35.7156 18.9602 34.966L18.0907 24.5225H16.7912L15.5918 32.9181V38.915H23.9874V37.7156H21.9485Z" fill="#FCBC04"/>
<path d="M15.5918 36.5146H23.9874V38.9134H15.5918V36.5146Z" fill="#F89C8D"/>
<path d="M19.5497 36.5146H15.5918V38.9134H23.9874V37.714H21.9485C21.483 37.714 21.0239 37.6056 20.6075 37.3975C20.1912 37.1893 19.829 36.887 19.5497 36.5146Z" fill="#F8664F"/>
<path d="M11.3938 34.1139V31.7152H6.59633V29.3164H1.79883V38.9114H16.1913V34.1139H11.3938Z" fill="#F8664F"/>
<path d="M13.7933 37.7121C13.4752 37.7121 13.1701 37.5857 12.9452 37.3608C12.7203 37.1359 12.5939 36.8308 12.5939 36.5127H11.3945V38.9114H16.192V37.7121H13.7933Z" fill="#CC5144"/>
<path d="M8.99445 37.7121C8.67636 37.7121 8.37129 37.5857 8.14637 37.3608C7.92144 37.1359 7.79508 36.8308 7.79508 36.5127H6.5957V38.9114H11.3932V37.7121H8.99445Z" fill="#CC5144"/>
<path d="M4.19758 37.7121C3.87948 37.7121 3.57442 37.5857 3.34949 37.3608C3.12457 37.1359 2.9982 36.8308 2.9982 36.5127H1.79883V38.9114H6.59633V37.7121H4.19758Z" fill="#CC5144"/>
<path d="M13.7933 35.3136C13.4752 35.3136 13.1701 35.1873 12.9452 34.9623C12.7203 34.7374 12.5939 34.4324 12.5939 34.1143H11.3945V36.513H16.192V35.3136H13.7933Z" fill="#CC5144"/>
<path d="M8.99445 35.3136C8.67636 35.3136 8.37129 35.1873 8.14637 34.9623C7.92144 34.7374 7.79508 34.4324 7.79508 34.1143H6.5957V36.513H11.3932V35.3136H8.99445Z" fill="#CC5144"/>
<path d="M4.19758 35.3136C3.87948 35.3136 3.57442 35.1873 3.34949 34.9623C3.12457 34.7374 2.9982 34.4324 2.9982 34.1143H1.79883V36.513H6.59633V35.3136H4.19758Z" fill="#CC5144"/>
<path d="M4.19758 30.5158C3.87948 30.5158 3.57442 30.3894 3.34949 30.1645C3.12457 29.9396 2.9982 29.6345 2.9982 29.3164H1.79883V31.7152H6.59633V30.5158H4.19758Z" fill="#CC5144"/>
<path d="M8.99445 32.9142C8.67636 32.9142 8.37129 32.7879 8.14637 32.5629C7.92144 32.338 7.79508 32.0329 7.79508 31.7148H6.5957V34.1136H11.3932V32.9142H8.99445Z" fill="#CC5144"/>
<path d="M4.19758 32.9142C3.87948 32.9142 3.57442 32.7879 3.34949 32.5629C3.12457 32.338 2.9982 32.0329 2.9982 31.7148H1.79883V34.1136H6.59633V32.9142H4.19758Z" fill="#CC5144"/>
<path d="M11.3937 34.1139V31.7152H6.59623V29.3164H1.96484C2.04236 29.4534 2.14645 29.5734 2.271 29.6696C2.39555 29.7658 2.53805 29.8362 2.69015 29.8766C2.84225 29.9169 3.00088 29.9266 3.15674 29.9048C3.3126 29.8831 3.46255 29.8304 3.59779 29.75C3.77945 29.8575 3.9864 29.9148 4.19748 29.9161C4.23406 29.9161 4.26884 29.9083 4.30423 29.9053C4.39308 30.1605 4.53848 30.3923 4.72956 30.5834C4.92064 30.7745 5.15245 30.9199 5.40765 31.0087C5.40465 31.0441 5.39686 31.0789 5.39686 31.1155C5.39582 31.3596 5.46962 31.5983 5.60833 31.7992C5.74705 32.0001 5.944 32.1537 6.17268 32.2393C6.40136 32.3249 6.65077 32.3384 6.88733 32.2779C7.12389 32.2174 7.33623 32.0859 7.49576 31.9011C7.60722 32.0305 7.74525 32.1345 7.90047 32.2059C8.05568 32.2773 8.22445 32.3145 8.39529 32.3148C8.43187 32.3148 8.46666 32.307 8.50204 32.304C8.62326 32.6567 8.85141 32.9628 9.15474 33.1797C9.45806 33.3966 9.82146 33.5135 10.1944 33.5142C10.1933 33.7584 10.2671 33.997 10.4058 34.1979C10.5445 34.3989 10.7415 34.5525 10.9702 34.6381C11.1989 34.7237 11.4483 34.7371 11.6848 34.6767C11.9214 34.6162 12.1337 34.4846 12.2933 34.2998C12.4173 34.4442 12.5742 34.5568 12.7507 34.6278C12.9273 34.6989 13.1184 34.7265 13.3079 34.7083C13.4974 34.6901 13.6797 34.6266 13.8395 34.5231C13.9993 34.4197 14.1319 34.2793 14.2261 34.1139H11.3937Z" fill="#CC5144"/>
<path d="M14.3916 32.3161C14.2208 32.3164 14.052 32.3536 13.8968 32.425C13.7416 32.4964 13.6036 32.6004 13.4921 32.7298C13.3725 32.5904 13.2222 32.4804 13.0531 32.4084C13.2017 32.0514 13.2313 31.656 13.1375 31.2809C13.0438 30.9057 12.8316 30.5708 12.5325 30.3257C12.2335 30.0806 11.8634 29.9384 11.4771 29.9201C11.0909 29.9019 10.709 30.0085 10.3881 30.2243C10.271 30.118 10.1337 30.0362 9.98436 29.9839C9.83503 29.9315 9.67672 29.9097 9.51881 29.9196C9.36089 29.9296 9.20657 29.9711 9.065 30.0418C8.92343 30.1125 8.79748 30.2109 8.69462 30.3311L8.68742 30.3227C8.92048 29.9765 9.02595 29.5601 8.98578 29.1447C8.94561 28.7294 8.76228 28.3409 8.4672 28.0458C8.17212 27.7507 7.78364 27.5674 7.36827 27.5272C6.9529 27.4871 6.53648 27.5925 6.19032 27.8256C6.00399 27.6555 5.76782 27.5499 5.5168 27.5245C5.26578 27.4992 5.01326 27.5553 4.79665 27.6847C4.61449 27.5773 4.40718 27.52 4.19574 27.5186C3.98429 27.5172 3.77623 27.5717 3.59264 27.6766C3.40905 27.7815 3.25645 27.933 3.15032 28.1159C3.04418 28.2988 2.98828 28.5065 2.98828 28.7179C2.98828 28.9294 3.04418 29.1371 3.15032 29.3199C3.25645 29.5028 3.40905 29.6544 3.59264 29.7593C3.77623 29.8642 3.98429 29.9187 4.19574 29.9173C4.40718 29.9159 4.61449 29.8586 4.79665 29.7512C4.9783 29.8587 5.18526 29.916 5.39634 29.9173C5.43292 29.9173 5.4677 29.9095 5.50308 29.9065C5.59193 30.1617 5.73734 30.3935 5.92842 30.5846C6.11949 30.7757 6.3513 30.9211 6.60651 31.0099C6.60351 31.0453 6.59571 31.0801 6.59571 31.1167C6.59467 31.3608 6.66848 31.5995 6.80719 31.8004C6.9459 32.0013 7.14286 32.155 7.37153 32.2405C7.60021 32.3261 7.84962 32.3396 8.08618 32.2791C8.32274 32.2186 8.53508 32.0871 8.69462 31.9023C8.80608 32.0318 8.94411 32.1357 9.09932 32.2071C9.25453 32.2785 9.4233 32.3157 9.59415 32.3161C9.63073 32.3161 9.66551 32.3083 9.70089 32.3053C9.82212 32.6579 10.0503 32.964 10.3536 33.1809C10.6569 33.3978 11.0203 33.5147 11.3932 33.5154C11.3922 33.7596 11.466 33.9982 11.6047 34.1992C11.7434 34.4001 11.9404 34.5537 12.169 34.6393C12.3977 34.7249 12.6471 34.7383 12.8837 34.6779C13.1202 34.6174 13.3326 34.4859 13.4921 34.301C13.6239 34.453 13.7917 34.5694 13.9802 34.6395C14.1688 34.7097 14.3719 34.7312 14.5709 34.7023C14.77 34.6734 14.9585 34.5948 15.1193 34.474C15.28 34.3531 15.4078 34.1937 15.4908 34.0105C15.5738 33.8273 15.6095 33.6261 15.5944 33.4256C15.5793 33.225 15.5141 33.0314 15.4046 32.8627C15.2951 32.6939 15.145 32.5554 14.968 32.4599C14.791 32.3644 14.5928 32.3149 14.3916 32.3161Z" fill="#D0D8DA"/>
<path d="M14.9923 33.513C14.8215 33.5126 14.6527 33.4755 14.4975 33.4041C14.3423 33.3327 14.2043 33.2287 14.0928 33.0992C13.9333 33.284 13.7209 33.4156 13.4844 33.476C13.2478 33.5365 12.9984 33.5231 12.7697 33.4375C12.541 33.3519 12.3441 33.1983 12.2054 32.9973C12.0667 32.7964 11.9929 32.5578 11.9939 32.3136C11.621 32.3129 11.2576 32.196 10.9543 31.9791C10.6509 31.7622 10.4228 31.4561 10.3016 31.1034C10.2662 31.1064 10.2314 31.1142 10.1948 31.1142C10.024 31.1139 9.85521 31.0767 9.7 31.0053C9.54478 30.9339 9.40676 30.8299 9.2953 30.7005C9.13576 30.8853 8.92342 31.0168 8.68686 31.0773C8.4503 31.1378 8.20089 31.1243 7.97221 31.0387C7.74354 30.9531 7.54658 30.7995 7.40787 30.5986C7.26916 30.3976 7.19535 30.159 7.19639 29.9149C7.19639 29.8783 7.20419 29.8435 7.20719 29.8081C6.95198 29.7193 6.72017 29.5739 6.5291 29.3828C6.33802 29.1917 6.19261 28.9599 6.10376 28.7047C6.06838 28.7077 6.0336 28.7155 5.99702 28.7155C5.78594 28.7142 5.57898 28.6569 5.39733 28.5494C5.22778 28.65 5.03582 28.7068 4.8388 28.7146C4.64178 28.7224 4.44592 28.681 4.26894 28.5941C4.09196 28.5072 3.93943 28.3775 3.82516 28.2168C3.71089 28.0562 3.63847 27.8695 3.61446 27.6738C3.4745 27.7495 3.35109 27.8524 3.25145 27.9765C3.15182 28.1006 3.07797 28.2433 3.03425 28.3963C2.99054 28.5493 2.97782 28.7095 2.99687 28.8675C3.01591 29.0254 3.06632 29.178 3.14514 29.3163C3.22396 29.4545 3.3296 29.5756 3.45587 29.6724C3.58213 29.7692 3.72646 29.8399 3.8804 29.8802C4.03434 29.9205 4.19477 29.9296 4.35228 29.907C4.50979 29.8844 4.66121 29.8306 4.79764 29.7487C4.9793 29.8563 5.18625 29.9136 5.39733 29.9149C5.43391 29.9149 5.46869 29.9071 5.50407 29.9041C5.59293 30.1593 5.73833 30.3911 5.92941 30.5822C6.12049 30.7732 6.3523 30.9186 6.6075 31.0075C6.6045 31.0429 6.5967 31.0777 6.5967 31.1142C6.59566 31.3584 6.66947 31.597 6.80818 31.798C6.94689 31.9989 7.14385 32.1525 7.37253 32.2381C7.6012 32.3237 7.85061 32.3372 8.08717 32.2767C8.32373 32.2162 8.53608 32.0847 8.69561 31.8998C8.80707 32.0293 8.9451 32.1333 9.10031 32.2047C9.25553 32.2761 9.42429 32.3132 9.59514 32.3136C9.63172 32.3136 9.6665 32.3058 9.70189 32.3028C9.82311 32.6555 10.0513 32.9615 10.3546 33.1784C10.6579 33.3953 11.0213 33.5123 11.3942 33.513C11.3932 33.7572 11.467 33.9958 11.6057 34.1967C11.7444 34.3977 11.9414 34.5513 12.17 34.6369C12.3987 34.7224 12.6481 34.7359 12.8847 34.6754C13.1212 34.6149 13.3336 34.4834 13.4931 34.2986C13.6526 34.4834 13.865 34.6149 14.1015 34.6754C14.3381 34.7359 14.5875 34.7224 14.8162 34.6369C15.0449 34.5513 15.2418 34.3977 15.3805 34.1967C15.5192 33.9958 15.5931 33.7572 15.592 33.513C15.5903 33.4601 15.5849 33.4074 15.5758 33.3553C15.3983 33.4575 15.1972 33.5118 14.9923 33.513Z" fill="#93999A"/>
<path d="M7.99774 15.8458C7.52943 16.3141 7.52943 17.0734 7.99774 17.5417C8.46606 18.01 9.22535 18.01 9.69366 17.5417L12.2375 14.9978C12.7059 14.5295 12.7059 13.7702 12.2375 13.3019C11.7692 12.8336 11.0099 12.8336 10.5416 13.3019L7.99774 15.8458Z" fill="#F9E109"/>
<path d="M3.75736 25.1702C3.63223 25.045 3.54747 24.8852 3.51402 24.7114C3.48056 24.5376 3.49994 24.3578 3.56966 24.1951L5.36212 20.0123C5.41929 19.8796 5.50806 19.7628 5.62068 19.6722C5.7333 19.5817 5.86636 19.52 6.00827 19.4926C6.15019 19.4652 6.29664 19.473 6.43487 19.5152C6.57311 19.5573 6.69893 19.6327 6.80137 19.7346L9.19173 22.125C9.29383 22.2273 9.36933 22.3531 9.41164 22.4913C9.45395 22.6296 9.46179 22.7761 9.43446 22.918C9.40714 23.06 9.34548 23.1931 9.25487 23.3057C9.16427 23.4184 9.04747 23.5071 8.91467 23.5642L4.73305 25.3579C4.57028 25.4277 4.39034 25.4471 4.21643 25.4136C4.04253 25.3802 3.88263 25.2954 3.75736 25.1702Z" fill="#D0D8DA"/>
<path d="M9.03854 21.9727L5.33248 23.5606C5.21147 23.6127 5.08036 23.637 4.94873 23.6318C4.81711 23.6267 4.68831 23.5922 4.57173 23.5308C4.45516 23.4695 4.35377 23.3829 4.27497 23.2773C4.19618 23.1718 4.14197 23.05 4.11631 22.9208L3.56939 24.1963C3.49982 24.3591 3.48056 24.5389 3.51412 24.7127C3.54767 24.8865 3.63249 25.0463 3.75765 25.1714C3.88281 25.2966 4.04258 25.3814 4.21638 25.415C4.39017 25.4485 4.57003 25.4293 4.73279 25.3597L8.91561 23.5666C9.04841 23.5095 9.16521 23.4207 9.25581 23.3081C9.34642 23.1955 9.40807 23.0623 9.4354 22.9204C9.46273 22.7784 9.45489 22.632 9.41258 22.4937C9.37027 22.3555 9.29477 22.2297 9.19266 22.1274L9.03854 21.9727Z" fill="#93999A"/>
<path d="M12.238 13.7951L9.69417 16.339C9.58279 16.4504 9.45055 16.5388 9.30501 16.5991C9.15946 16.6594 9.00346 16.6905 8.84591 16.6905C8.68837 16.6905 8.53237 16.6594 8.38682 16.5991C8.24128 16.5388 8.10904 16.4504 7.99766 16.339C7.92529 16.2647 7.86299 16.1813 7.81235 16.0907C7.67089 16.3421 7.62475 16.6361 7.68241 16.9187C7.74007 17.2013 7.89765 17.4537 8.12628 17.6296C8.35491 17.8055 8.63926 17.8931 8.92723 17.8763C9.21519 17.8596 9.48748 17.7396 9.69417 17.5384L12.238 14.9945C12.4245 14.8076 12.5438 14.5642 12.5775 14.3024C12.6111 14.0405 12.5571 13.7748 12.4239 13.5469C12.3729 13.6373 12.3105 13.7208 12.238 13.7951Z" fill="#FCBC04"/>
<path d="M33.5822 38.3139C33.5822 37.8367 33.7717 37.3791 34.1091 37.0417C34.4465 36.7043 34.9041 36.5148 35.3812 36.5148H36.5806V35.3154H32.3828V38.9136H33.5822V38.3139Z" fill="#FCBC04"/>
<path d="M29.3851 33.5158C29.5441 33.5158 29.6967 33.4526 29.8091 33.3401C29.9216 33.2277 29.9848 33.0751 29.9848 32.9161C29.9848 32.757 29.9216 32.6045 29.8091 32.4921C29.6967 32.3796 29.5441 32.3164 29.3851 32.3164H27.586C27.427 32.3164 27.2744 32.3796 27.162 32.4921C27.0495 32.6045 26.9863 32.757 26.9863 32.9161C26.9863 33.0751 27.0495 33.2277 27.162 33.3401C27.2744 33.4526 27.427 33.5158 27.586 33.5158H29.3851Z" fill="#323232"/>
<path d="M20.389 32.3164H18.5899C18.4309 32.3164 18.2783 32.3796 18.1659 32.4921C18.0534 32.6045 17.9902 32.757 17.9902 32.9161C17.9902 33.0751 18.0534 33.2277 18.1659 33.3401C18.2783 33.4526 18.4309 33.5158 18.5899 33.5158H20.389C20.548 33.5158 20.7006 33.4526 20.813 33.3401C20.9255 33.2277 20.9887 33.0751 20.9887 32.9161C20.9887 32.757 20.9255 32.6045 20.813 32.4921C20.7006 32.3796 20.548 32.3164 20.389 32.3164Z" fill="#323232"/>
<path d="M36.5815 33.5182C36.4224 33.5182 36.2699 33.5814 36.1574 33.6939C36.045 33.8063 35.9818 33.9589 35.9818 34.1179V34.7176H32.9834V32.9185C32.9834 32.89 32.9814 32.8616 32.9774 32.8334L32.6451 30.5054C32.634 30.4274 32.6076 30.3524 32.5674 30.2845C32.5273 30.2167 32.4742 30.1575 32.4112 30.1102C32.3481 30.063 32.2764 30.0286 32.2001 30.009C32.1237 29.9895 32.0443 29.9851 31.9663 29.9963C31.8883 30.0074 31.8132 30.0338 31.7454 30.074C31.6776 30.1141 31.6184 30.1672 31.5711 30.2302C31.5238 30.2933 31.4894 30.365 31.4699 30.4413C31.4503 30.5177 31.446 30.5971 31.4572 30.6751L31.784 32.9611V35.917H26.3868C26.2277 35.917 26.0752 35.9802 25.9628 36.0926C25.8503 36.2051 25.7871 36.3576 25.7871 36.5167C25.7871 36.6757 25.8503 36.8283 25.9628 36.9407C26.0752 37.0532 26.2277 37.1164 26.3868 37.1164H31.784V38.9154C31.784 39.0745 31.8472 39.227 31.9596 39.3395C32.0721 39.4519 32.2246 39.5151 32.3837 39.5151C32.5427 39.5151 32.6952 39.4519 32.8077 39.3395C32.9202 39.227 32.9834 39.0745 32.9834 38.9154V35.917H35.9818V38.9154C35.9818 39.0745 36.045 39.227 36.1574 39.3395C36.2699 39.4519 36.4224 39.5151 36.5815 39.5151C36.7405 39.5151 36.8931 39.4519 37.0055 39.3395C37.118 39.227 37.1812 39.0745 37.1812 38.9154V34.1179C37.1812 33.9589 37.118 33.8063 37.0055 33.6939C36.8931 33.5814 36.7405 33.5182 36.5815 33.5182Z" fill="#323232"/>
<path d="M30.5839 23.9215H28.1852V23.1581C29.7199 22.0532 30.758 20.3886 31.0751 18.5243H31.1836C31.6877 18.526 32.1794 18.3683 32.5885 18.0738C32.9977 17.7793 33.3032 17.3631 33.4616 16.8845C33.62 16.4059 33.6231 15.8895 33.4704 15.4091C33.3177 14.9287 33.0171 14.5089 32.6115 14.2095C32.8508 13.8993 32.9813 13.5189 32.9827 13.1271C32.9827 12.6499 32.7931 12.1923 32.4557 11.855C32.1183 11.5176 31.6607 11.328 31.1836 11.328H21.5886C21.4295 11.328 21.277 11.3912 21.1646 11.5037C21.0521 11.6161 20.9889 11.7687 20.9889 11.9277C20.9889 12.0868 21.0521 12.2393 21.1646 12.3518C21.277 12.4642 21.4295 12.5274 21.5886 12.5274H31.1836C31.3426 12.5274 31.4952 12.5906 31.6076 12.703C31.7201 12.8155 31.7833 12.968 31.7833 13.1271C31.7833 13.2861 31.7201 13.4387 31.6076 13.5511C31.4952 13.6636 31.3426 13.7268 31.1836 13.7268H16.7911C16.632 13.7268 16.4795 13.6636 16.3671 13.5511C16.2546 13.4387 16.1914 13.2861 16.1914 13.1271C16.1914 12.968 16.2546 12.8155 16.3671 12.703C16.4795 12.5906 16.632 12.5274 16.7911 12.5274H19.1898C19.3489 12.5274 19.5014 12.4642 19.6139 12.3518C19.7264 12.2393 19.7895 12.0868 19.7895 11.9277C19.7895 11.7687 19.7264 11.6161 19.6139 11.5037C19.5014 11.3912 19.3489 11.328 19.1898 11.328H17.4214C17.5047 10.4149 17.7778 9.52926 18.2231 8.72778L18.6327 9.75205C18.662 9.82521 18.7055 9.89188 18.7605 9.94826C18.8156 10.0046 18.8812 10.0496 18.9537 10.0806C19.0261 10.1117 19.1039 10.1281 19.1828 10.129C19.2616 10.13 19.3398 10.1154 19.4129 10.0861C19.4861 10.0568 19.5528 10.0134 19.6091 9.9583C19.6655 9.90323 19.7105 9.8376 19.7415 9.76516C19.7725 9.69271 19.789 9.61486 19.7899 9.53606C19.7908 9.45726 19.7763 9.37904 19.747 9.30588L19.0495 7.56259C19.4854 7.07004 19.9925 6.64555 20.5541 6.30324L20.875 9.58893C20.8909 9.74718 20.969 9.89264 21.0921 9.99329C21.2153 10.0939 21.3734 10.1416 21.5316 10.1257C21.6899 10.1097 21.8353 10.0316 21.936 9.90848C22.0366 9.78534 22.0842 9.62725 22.0683 9.469L21.6342 5.02171C23.179 4.6337 24.7957 4.6337 26.3405 5.02171L25.9063 9.469C25.8981 9.54782 25.9055 9.6275 25.9282 9.70344C25.9509 9.77937 25.9884 9.85005 26.0386 9.91139C26.0888 9.97273 26.1507 10.0235 26.2206 10.0608C26.2905 10.0981 26.3672 10.1212 26.4461 10.1287C26.466 10.1309 26.486 10.1319 26.506 10.1316C26.6546 10.1315 26.7978 10.0762 26.9079 9.9765C27.0181 9.87679 27.0873 9.73975 27.1021 9.59193L27.4224 6.31284C27.9826 6.65602 28.4889 7.08042 28.9246 7.57218L28.2301 9.30828C28.171 9.45603 28.1729 9.62124 28.2356 9.76755C28.2982 9.91387 28.4164 10.0293 28.5642 10.0885C28.7119 10.1476 28.8771 10.1457 29.0234 10.083C29.1698 10.0204 29.2852 9.9022 29.3444 9.75445L29.7491 8.74097C29.9285 9.05796 30.0812 9.38933 30.2055 9.73166C30.26 9.87979 30.3706 10.0005 30.5135 10.0676C30.6564 10.1346 30.8199 10.1427 30.9687 10.09C31.1174 10.0373 31.2394 9.92802 31.3082 9.78595C31.3769 9.64388 31.3869 9.48044 31.3359 9.33107C31.0845 8.63096 30.7339 7.97057 30.2949 7.37009L30.5413 6.75541C30.6005 6.60765 30.5985 6.44245 30.5359 6.29613C30.4733 6.14982 30.3551 6.03438 30.2073 5.97522C30.0595 5.91605 29.8943 5.918 29.748 5.98065C29.6017 6.04329 29.4863 6.16149 29.4271 6.30924L29.4103 6.35242C28.8588 5.81506 28.2307 5.36238 27.5465 5.00912L27.5855 4.63971C27.599 4.50221 27.5645 4.36427 27.4881 4.24921C27.4116 4.13415 27.2977 4.04903 27.1657 4.00824C25.0964 3.37616 22.8855 3.37616 20.8162 4.00824C20.6842 4.04903 20.5703 4.13415 20.4938 4.24921C20.4173 4.36427 20.3829 4.50221 20.3964 4.63971L20.4318 4.99952C19.7449 5.3512 19.1141 5.80312 18.5602 6.34043L18.5476 6.30744C18.5183 6.23428 18.4749 6.16761 18.4198 6.11123C18.3647 6.05485 18.2991 6.00986 18.2267 5.97885C18.1542 5.94783 18.0764 5.93139 17.9976 5.93045C17.9188 5.92952 17.8405 5.94412 17.7674 5.97342C17.6942 6.00271 17.6276 6.04613 17.5712 6.10119C17.5148 6.15626 17.4698 6.22189 17.4388 6.29433C17.4078 6.36678 17.3913 6.44463 17.3904 6.52343C17.3895 6.60223 17.4041 6.68045 17.4334 6.75361L17.6774 7.36349C16.8134 8.55403 16.3044 9.96502 16.2094 11.433C15.9398 11.5228 15.6956 11.6758 15.4973 11.8794C15.2989 12.0829 15.1522 12.3309 15.0694 12.6028C14.9865 12.8746 14.97 13.1623 15.0211 13.4418C15.0722 13.7214 15.1895 13.9846 15.3632 14.2095C14.9576 14.5089 14.657 14.9287 14.5043 15.4091C14.3516 15.8895 14.3547 16.4059 14.5131 16.8845C14.6714 17.3631 14.977 17.7793 15.3861 18.0738C15.7953 18.3683 16.287 18.526 16.7911 18.5243H16.8996C17.2167 20.3886 18.2548 22.0532 19.7895 23.1581V23.9215H17.3908C16.1734 23.9191 14.9794 24.2548 13.9417 24.8913C12.904 25.5278 12.0635 26.44 11.5138 27.5262C11.4416 27.6679 11.4287 27.8325 11.4778 27.9838C11.527 28.135 11.6342 28.2606 11.7759 28.3328C11.8599 28.376 11.9531 28.3984 12.0476 28.3981C12.1583 28.3982 12.2668 28.3677 12.3612 28.3099C12.4557 28.2521 12.5322 28.1693 12.5825 28.0707C12.933 27.381 13.4285 26.7752 14.0349 26.2947C14.6414 25.8142 15.3444 25.4705 16.0961 25.287C16.0785 25.3461 16.0642 25.4061 16.0535 25.4669L15.1366 31.8835C14.7143 31.6867 14.2313 31.6651 13.7933 31.8235C13.7933 31.7888 13.7933 31.7534 13.7933 31.718C13.7933 31.3186 13.6937 30.9254 13.5033 30.5743C13.3129 30.2231 13.0378 29.9251 12.7031 29.7072C12.3683 29.4893 11.9844 29.3584 11.5862 29.3265C11.1881 29.2946 10.7882 29.3626 10.423 29.5243C10.1677 29.3897 9.88349 29.3191 9.59484 29.3187C9.59492 28.9192 9.49524 28.5261 9.30486 28.1749C9.11447 27.8238 8.83942 27.5257 8.50464 27.3078C8.16987 27.0899 7.78598 26.9591 7.38782 26.9271C6.98965 26.8952 6.58982 26.9632 6.2246 27.125C6.00646 27.0107 5.76697 26.943 5.52129 26.9261C5.27562 26.9091 5.0291 26.9434 4.79734 27.0266C4.60516 26.9565 4.40223 26.9204 4.19766 26.9199C3.72052 26.9199 3.26292 27.1094 2.92553 27.4468C2.58814 27.7842 2.39859 28.2418 2.39859 28.719H1.79891C1.63986 28.719 1.48733 28.7821 1.37486 28.8946C1.2624 29.0071 1.19922 29.1596 1.19922 29.3187V34.1162C1.19922 34.2752 1.2624 34.4277 1.37486 34.5402C1.48733 34.6527 1.63986 34.7158 1.79891 34.7158H5.99672V38.314H2.39859V37.1146H4.19766C4.3567 37.1146 4.50924 37.0514 4.6217 36.9389C4.73416 36.8265 4.79734 36.674 4.79734 36.5149C4.79734 36.3559 4.73416 36.2033 4.6217 36.0909C4.50924 35.9784 4.3567 35.9152 4.19766 35.9152H1.79891C1.63986 35.9152 1.48733 35.9784 1.37486 36.0909C1.2624 36.2033 1.19922 36.3559 1.19922 36.5149V38.9137C1.19922 39.0727 1.2624 39.2252 1.37486 39.3377C1.48733 39.4502 1.63986 39.5133 1.79891 39.5133H16.1914C16.3505 39.5133 16.503 39.4502 16.6154 39.3377C16.7279 39.2252 16.7911 39.0727 16.7911 38.9137V37.1146H23.3877V38.9137C23.3877 39.0727 23.4508 39.2252 23.5633 39.3377C23.6758 39.4502 23.8283 39.5133 23.9873 39.5133C24.1464 39.5133 24.2989 39.4502 24.4114 39.3377C24.5239 39.2252 24.587 39.0727 24.587 38.9137V34.2247L28.0011 25.1208H30.1437C30.288 25.121 30.4274 25.1732 30.5364 25.2678C30.6453 25.3624 30.7165 25.4931 30.7368 25.636L31.1176 28.2992C31.1401 28.4566 31.2243 28.5987 31.3515 28.6941C31.4145 28.7414 31.4862 28.7758 31.5625 28.7953C31.6388 28.8148 31.7182 28.8192 31.7962 28.808C31.8741 28.7969 31.9491 28.7705 32.0169 28.7304C32.0847 28.6902 32.1439 28.6371 32.1911 28.5741C32.2384 28.5111 32.2727 28.4394 32.2923 28.3631C32.3118 28.2868 32.3162 28.2074 32.305 28.1295L31.9242 25.4675C31.9132 25.4067 31.8988 25.3467 31.881 25.2876C33.0497 25.5776 34.0879 26.2499 34.8307 27.1976C35.5736 28.1452 35.9785 29.3139 35.9811 30.518V31.7174C35.9811 31.8764 36.0443 32.029 36.1567 32.1414C36.2692 32.2539 36.4217 32.3171 36.5808 32.3171C36.7398 32.3171 36.8924 32.2539 37.0048 32.1414C37.1173 32.029 37.1805 31.8764 37.1805 31.7174V30.518C37.1784 28.7691 36.4827 27.0925 35.2461 25.8558C34.0095 24.6192 32.3328 23.9235 30.5839 23.9215ZM23.9873 32.4082L22.4989 28.4389C23.4561 28.8123 24.5186 28.8123 25.4758 28.4389L23.9873 32.4082ZM31.1836 17.3249V14.9262C31.5017 14.9262 31.8068 15.0525 32.0317 15.2774C32.2566 15.5024 32.383 15.8074 32.383 16.1255C32.383 16.4436 32.2566 16.7487 32.0317 16.9736C31.8068 17.1985 31.5017 17.3249 31.1836 17.3249ZM15.5917 16.1255C15.5917 15.8074 15.7181 15.5024 15.943 15.2774C16.1679 15.0525 16.473 14.9262 16.7911 14.9262V17.3249C16.473 17.3249 16.1679 17.1985 15.943 16.9736C15.7181 16.7487 15.5917 16.4436 15.5917 16.1255ZM17.9905 17.3249V14.9262H29.9842V17.3249C29.9842 18.9154 29.3524 20.4407 28.2278 21.5653C27.1031 22.69 25.5778 23.3218 23.9873 23.3218C22.3969 23.3218 20.8715 22.69 19.7469 21.5653C18.6223 20.4407 17.9905 18.9154 17.9905 17.3249ZM23.9873 24.5212C25.0228 24.5211 26.0459 24.296 26.9858 23.8615V24.415L26.1828 26.5559C25.904 26.8605 25.5648 27.1038 25.1868 27.2703C24.8088 27.4367 24.4003 27.5227 23.9873 27.5227C23.5743 27.5227 23.1659 27.4367 22.7879 27.2703C22.4099 27.1038 22.0707 26.8605 21.7919 26.5559L20.9889 24.412V23.8615C21.9288 24.296 22.9519 24.5211 23.9873 24.5212ZM11.9936 35.9152V35.2106C12.2384 35.2988 12.4997 35.332 12.7588 35.3079C13.0179 35.2837 13.2685 35.2028 13.4928 35.0709C13.8204 35.2635 14.2012 35.3458 14.5791 35.3056C14.957 35.2654 15.3119 35.1049 15.5917 34.8478V35.9152H11.9936ZM7.19609 32.8106C7.44073 32.8996 7.70202 32.9333 7.96122 32.9093C8.22042 32.8854 8.47111 32.8044 8.69531 32.6721C8.88523 32.7833 9.09401 32.8585 9.31119 32.894C9.44882 33.1299 9.6259 33.3404 9.83472 33.5165H7.19609V32.8106ZM7.19609 34.7158H10.7942V35.9152H7.19609V34.7158ZM4.4975 28.2038C4.58923 28.2574 4.69353 28.2856 4.79974 28.2856C4.90595 28.2856 5.01025 28.2574 5.10199 28.2038C5.21118 28.1448 5.33559 28.1199 5.45909 28.1324C5.5826 28.1449 5.69949 28.1943 5.79462 28.274C5.89418 28.3627 6.02046 28.4157 6.1535 28.4246C6.28654 28.4335 6.41875 28.3978 6.52924 28.3232C6.76003 28.1682 7.0375 28.0981 7.31421 28.1251C7.59092 28.152 7.84967 28.2743 8.04622 28.4709C8.24277 28.6675 8.36491 28.9263 8.39175 29.203C8.41859 29.4797 8.34847 29.7572 8.19337 29.9879C8.12261 30.0963 8.08798 30.2243 8.09445 30.3536C8.10091 30.4828 8.14814 30.6067 8.22936 30.7075C8.28416 30.7762 8.3534 30.832 8.43216 30.871C8.51091 30.9099 8.59727 30.9311 8.68512 30.933C8.7726 30.9337 8.85923 30.9157 8.93925 30.8804C9.01928 30.845 9.09087 30.7931 9.14928 30.7279C9.20001 30.6674 9.2625 30.6177 9.33298 30.582C9.40346 30.5464 9.48046 30.5254 9.55929 30.5203C9.63813 30.5153 9.71717 30.5263 9.79163 30.5527C9.86608 30.5791 9.9344 30.6203 9.99244 30.6739C10.092 30.7626 10.2183 30.8156 10.3513 30.8245C10.4844 30.8334 10.6166 30.7978 10.7271 30.7231C10.941 30.5793 11.1956 30.5082 11.4531 30.5205C11.7107 30.5327 11.9574 30.6276 12.1567 30.7911C12.3561 30.9545 12.4975 31.1779 12.5599 31.428C12.6223 31.6782 12.6025 31.9418 12.5033 32.1798C12.4729 32.2525 12.4572 32.3306 12.457 32.4094C12.4568 32.4883 12.4721 32.5664 12.5021 32.6393C12.5322 32.7122 12.5763 32.7785 12.6319 32.8343C12.6876 32.8902 12.7537 32.9345 12.8266 32.9648C12.9105 33.0007 12.9846 33.0559 13.043 33.1261C13.0993 33.1906 13.1688 33.2423 13.2467 33.2777C13.3247 33.3132 13.4093 33.3315 13.4949 33.3315C13.5805 33.3315 13.6652 33.3132 13.7431 33.2777C13.821 33.2423 13.8905 33.1906 13.9468 33.1261C14.0017 33.0613 14.0699 33.0091 14.1468 32.973C14.2237 32.9368 14.3074 32.9177 14.3923 32.9168C14.5514 32.9168 14.7039 32.98 14.8164 33.0924C14.9289 33.2049 14.992 33.3574 14.992 33.5165C14.992 33.6755 14.9289 33.828 14.8164 33.9405C14.7039 34.053 14.5514 34.1162 14.3923 34.1162C14.3071 34.1157 14.2229 34.0968 14.1456 34.0607C14.0683 34.0247 13.9996 33.9724 13.9444 33.9075C13.8881 33.843 13.8187 33.7914 13.7408 33.7561C13.6629 33.7207 13.5784 33.7024 13.4928 33.7024C13.4073 33.7024 13.3227 33.7207 13.2448 33.7561C13.167 33.7914 13.0975 33.843 13.0412 33.9075C12.986 33.9724 12.9174 34.0247 12.8401 34.0607C12.7627 34.0968 12.6786 34.1157 12.5933 34.1162C12.4342 34.1162 12.2817 34.053 12.1692 33.9405C12.0568 33.828 11.9936 33.6755 11.9936 33.5165C11.9936 33.3574 11.9304 33.2049 11.818 33.0924C11.7055 32.98 11.553 32.9168 11.3939 32.9168C11.1457 32.9152 10.904 32.8367 10.7023 32.692C10.5006 32.5473 10.3487 32.3436 10.2677 32.109C10.2109 31.9813 10.1153 31.8748 9.99456 31.8045C9.87377 31.7342 9.73392 31.7037 9.59484 31.7174C9.50955 31.7169 9.42538 31.698 9.34806 31.662C9.27075 31.626 9.20213 31.5737 9.14688 31.5087C9.0889 31.4471 9.01893 31.398 8.94127 31.3645C8.86361 31.3309 8.77991 31.3136 8.69531 31.3136C8.61071 31.3136 8.52701 31.3309 8.44935 31.3645C8.3717 31.398 8.30172 31.4471 8.24375 31.5087C8.16523 31.6009 8.06046 31.6669 7.94344 31.6979C7.82642 31.7289 7.70271 31.7235 7.58885 31.6824C7.47498 31.6413 7.37637 31.5664 7.30619 31.4677C7.23601 31.3691 7.1976 31.2514 7.19609 31.1303L7.20449 31.0595C7.21533 30.9271 7.18186 30.7948 7.10936 30.6834C7.03685 30.5721 6.92941 30.4879 6.8039 30.4443C6.63384 30.3856 6.47935 30.289 6.35209 30.1618C6.22483 30.0347 6.12812 29.8803 6.06928 29.7102C6.0132 29.5821 5.91786 29.4752 5.79703 29.4048C5.6762 29.3344 5.53612 29.3042 5.39703 29.3187C5.29126 29.3182 5.1876 29.289 5.09719 29.2341C5.00546 29.1806 4.90115 29.1524 4.79495 29.1524C4.68874 29.1524 4.58443 29.1806 4.4927 29.2341C4.40204 29.2871 4.299 29.3152 4.19399 29.3156C4.08898 29.3161 3.98571 29.2888 3.89463 29.2365C3.80354 29.1843 3.72786 29.1089 3.67523 29.018C3.6226 28.9271 3.59489 28.824 3.59489 28.719C3.59489 28.614 3.6226 28.5108 3.67523 28.4199C3.72786 28.3291 3.80354 28.2537 3.89463 28.2014C3.98571 28.1492 4.08898 28.1219 4.19399 28.1223C4.299 28.1227 4.40204 28.1508 4.4927 28.2038H4.4975ZM2.39859 29.9183H2.86635C3.03365 30.1062 3.23869 30.2568 3.46808 30.3601C3.69747 30.4634 3.94607 30.5172 4.19766 30.518C4.40223 30.5175 4.60516 30.4814 4.79734 30.4113C4.89963 30.4488 5.00525 30.4765 5.11278 30.494C5.24729 30.7297 5.4211 30.9406 5.62671 31.1177H2.39859V29.9183ZM2.39859 32.3171H5.99672V33.5165H2.39859V32.3171ZM7.19609 37.1146H10.7942V38.314H7.19609V37.1146ZM15.5917 38.314H11.9936V37.1146H15.5917V38.314ZM16.7911 35.9152V34.1162C16.7911 33.9571 16.7279 33.8046 16.6154 33.6921C16.503 33.5796 16.3505 33.5165 16.1914 33.5165C16.1904 33.3828 16.1745 33.2496 16.144 33.1195C16.1622 33.0811 16.176 33.0409 16.1854 32.9995L17.2379 25.633C17.2589 25.4907 17.3303 25.3607 17.4392 25.2666C17.5481 25.1726 17.6871 25.1209 17.831 25.1208H19.9736L23.3877 34.2247V35.9152H16.7911Z" fill="#323232"/>
<path d="M3.33371 25.5956C3.54298 25.8063 3.81094 25.949 4.10257 26.005C4.39421 26.0611 4.69598 26.0279 4.96846 25.9098L9.15128 24.1179C9.37439 24.0222 9.57066 23.8733 9.72292 23.6843C9.87519 23.4952 9.97881 23.2717 10.0247 23.0333C10.0706 22.7949 10.0574 22.5489 9.98631 22.3168C9.91517 22.0847 9.78824 21.8735 9.61663 21.7018L8.76868 20.8538C8.93154 20.5197 8.98568 20.143 8.92352 19.7766C8.86135 19.4102 8.68599 19.0724 8.42206 18.8107C8.36562 18.7544 8.32108 18.6873 8.2911 18.6134C8.26112 18.5396 8.24631 18.4604 8.24755 18.3807C8.43993 18.4502 8.64269 18.4867 8.84724 18.4887C9.08358 18.4891 9.31767 18.4428 9.53605 18.3524C9.75444 18.262 9.95281 18.1294 10.1198 17.9621L12.6636 15.4183C13.0009 15.0809 13.1904 14.6234 13.1904 14.1463C13.1904 13.6693 13.0009 13.2118 12.6636 12.8744C12.3263 12.5371 11.8688 12.3477 11.3917 12.3477C10.9147 12.3477 10.4571 12.5371 10.1198 12.8744L7.5753 15.4183C7.30405 15.6923 7.12802 16.0463 7.07317 16.4279C7.01832 16.8096 7.08755 17.1988 7.27066 17.5382C7.08781 17.8766 7.01826 18.2648 7.07222 18.6457C7.12619 19.0266 7.30083 19.3801 7.5705 19.6545L7.22748 19.3114C7.05583 19.1397 6.84469 19.0126 6.61255 18.9414C6.38041 18.8702 6.13435 18.857 5.89591 18.9029C5.65747 18.9488 5.43392 19.0525 5.24485 19.2048C5.05577 19.3572 4.90692 19.5536 4.81134 19.7768L3.01827 23.9596C2.90005 24.2324 2.86691 24.5344 2.92319 24.8263C2.97947 25.1182 3.12255 25.3863 3.33371 25.5956ZM8.42146 16.2668L10.9659 13.7254C11.0784 13.6129 11.2309 13.5498 11.3899 13.5498C11.5489 13.5498 11.7014 13.6129 11.8139 13.7254C11.9263 13.8378 11.9895 13.9903 11.9895 14.1493C11.9895 14.3083 11.9263 14.4609 11.8139 14.5733L9.27002 17.1172C9.15756 17.2296 9.00505 17.2928 8.84604 17.2928C8.68702 17.2928 8.53452 17.2296 8.42206 17.1172C8.36599 17.0615 8.32148 16.9953 8.29109 16.9223C8.2607 16.8494 8.24503 16.7712 8.24498 16.6921C8.24492 16.6131 8.26048 16.5349 8.29077 16.4619C8.32106 16.3889 8.36547 16.3226 8.42146 16.2668ZM4.1205 24.4328L5.91296 20.2499C5.93091 20.2066 5.9595 20.1685 5.99609 20.1392C6.03267 20.1098 6.07606 20.0902 6.12226 20.082C6.14194 20.0777 6.16207 20.0757 6.18222 20.076C6.21944 20.0759 6.25629 20.0833 6.2906 20.0977C6.3249 20.1122 6.35596 20.1333 6.38192 20.16L7.15252 20.9312L6.72854 21.3558C6.67126 21.4111 6.62558 21.4773 6.59415 21.5504C6.56272 21.6236 6.54618 21.7023 6.54549 21.7819C6.54479 21.8615 6.55997 21.9405 6.59012 22.0142C6.62027 22.0879 6.6648 22.1549 6.72111 22.2112C6.77741 22.2675 6.84437 22.312 6.91807 22.3421C6.99177 22.3723 7.07073 22.3875 7.15036 22.3868C7.22999 22.3861 7.30868 22.3695 7.38184 22.3381C7.45501 22.3067 7.52118 22.261 7.5765 22.2037L8.00048 21.7791L8.77168 22.5509C8.80464 22.584 8.82902 22.6246 8.84269 22.6692C8.85636 22.7139 8.85889 22.7612 8.85008 22.807C8.84127 22.8528 8.82137 22.8958 8.79213 22.9322C8.76289 22.9686 8.72519 22.9972 8.68232 23.0157L4.4977 24.8082C4.44542 24.8312 4.38737 24.8378 4.33125 24.8271C4.27513 24.8164 4.22359 24.7889 4.18347 24.7482C4.14241 24.7081 4.11443 24.6565 4.1032 24.6002C4.09196 24.5439 4.09799 24.4856 4.1205 24.4328Z" fill="#323232"/>
</g>
</svg>
