<svg width="39" height="39" viewBox="0 0 39 39" fill="none" xmlns="http://www.w3.org/2000/svg">
<g>
<path d="M34.1818 9.10594V39.69H2.99805V9.10594L18.5899 5.50781L34.1818 9.10594Z" fill="#0093B9"/>
<path d="M7.79492 15.6992H29.3837V39.6867H7.79492V15.6992Z" fill="#E3E4E2"/>
<path d="M34.1818 9.10594V11.7048L18.5899 7.94104L2.99805 11.7048V9.10594L18.5899 5.50781L34.1818 9.10594Z" fill="#0884A9"/>
<path d="M17.3902 12.7021H19.7889C20.4513 12.7021 20.9883 12.1652 20.9883 11.5028C20.9883 10.8404 20.4513 10.3034 19.7889 10.3034H17.3902C16.7278 10.3034 16.1908 10.8404 16.1908 11.5028C16.1908 12.1652 16.7278 12.7021 17.3902 12.7021Z" fill="#57C3C1"/>
<path d="M35.9811 8.50641L18.5902 4.30859L1.19922 8.50641V10.9052L18.5902 6.70734L35.9811 10.9052V8.50641Z" fill="#E3E4E2"/>
<path d="M7.79492 15.6992H29.3837V25.8939H7.79492V15.6992Z" fill="#C9C9C8"/>
<path d="M22.788 39.69V30.095H11.9936V20.5H1.19922V39.69H22.788Z" fill="#F8BC1E"/>
<path d="M15.5918 30.0938H19.1899V33.6919H15.5918V30.0938Z" fill="#F9DA62"/>
<path d="M22.7884 30.6914H21.8889C21.6503 30.6914 21.4215 30.7862 21.2528 30.9549C21.0841 31.1236 20.9894 31.3524 20.9894 31.5909V33.113C20.9893 34.3793 20.4862 35.5937 19.5908 36.4891C18.6954 37.3845 17.481 37.8876 16.2147 37.8877H13.4933C13.2547 37.8877 13.0259 37.9824 12.8572 38.1511C12.6885 38.3198 12.5938 38.5486 12.5938 38.7872V39.6867H22.7884V30.6914Z" fill="#F5A922"/>
<path d="M4.79688 30.0938H8.395V33.6919H4.79688V30.0938Z" fill="#F9DA62"/>
<path d="M11.9935 30.6914H11.094C10.8554 30.6914 10.6266 30.7862 10.4579 30.9549C10.2892 31.1236 10.1945 31.3524 10.1945 31.5909V33.113C10.1944 34.3793 9.69128 35.5937 8.79589 36.4891C7.90049 37.3845 6.6861 37.8876 5.41982 37.8877H2.69836C2.45979 37.8877 2.23099 37.9824 2.06229 38.1511C1.8936 38.3198 1.79883 38.5486 1.79883 38.7872V39.6867H11.9935V30.6914Z" fill="#F5A922"/>
<path d="M4.79688 20.5H8.395V24.0981H4.79688V20.5Z" fill="#F9DA62"/>
<path d="M11.9935 21.0977H11.094C10.8554 21.0977 10.6266 21.1924 10.4579 21.3611C10.2892 21.5298 10.1945 21.7586 10.1945 21.9972V23.5193C10.1944 24.7856 9.69128 25.9999 8.79589 26.8953C7.90049 27.7907 6.6861 28.2938 5.41982 28.2939H2.69836C2.45979 28.2939 2.23099 28.3887 2.06229 28.5574C1.8936 28.7261 1.79883 28.9549 1.79883 29.1934V30.093H11.9935V21.0977Z" fill="#F5A922"/>
<path d="M8.99609 36.6914H10.1955V37.8908H8.99609V36.6914Z" fill="black"/>
<path d="M22.788 29.4934H12.5934V20.4981C12.5934 20.3391 12.5302 20.1865 12.4177 20.0741C12.3053 19.9616 12.1527 19.8984 11.9937 19.8984H1.1993C1.04025 19.8984 0.887717 19.9616 0.775254 20.0741C0.662791 20.1865 0.599609 20.3391 0.599609 20.4981V39.6881C0.599609 39.8472 0.662791 39.9997 0.775254 40.1122C0.887717 40.2246 1.04025 40.2878 1.1993 40.2878H22.788C22.9471 40.2878 23.0996 40.2246 23.2121 40.1122C23.3246 39.9997 23.3877 39.8472 23.3877 39.6881V30.0931C23.3877 29.9341 23.3246 29.7815 23.2121 29.6691C23.0996 29.5566 22.9471 29.4934 22.788 29.4934ZM16.1915 30.6928H18.5902V33.0916H16.1915V30.6928ZM5.39711 21.0978H7.79586V23.4966H5.39711V21.0978ZM1.79898 21.0978H4.19773V24.0962C4.19773 24.2553 4.26092 24.4078 4.37338 24.5203C4.48584 24.6328 4.63837 24.6959 4.79742 24.6959H8.39555C8.55459 24.6959 8.70713 24.6328 8.81959 24.5203C8.93205 24.4078 8.99523 24.2553 8.99523 24.0962V21.0978H11.394V29.4934H1.79898V21.0978ZM5.39711 30.6928H7.79586V33.0916H5.39711V30.6928ZM1.79898 30.6928H4.19773V33.6912C4.19773 33.8503 4.26092 34.0028 4.37338 34.1153C4.48584 34.2278 4.63837 34.2909 4.79742 34.2909H8.39555C8.55459 34.2909 8.70713 34.2278 8.81959 34.1153C8.93205 34.0028 8.99523 33.8503 8.99523 33.6912V30.6928H11.394V39.0884H1.79898V30.6928ZM22.1884 39.0884H12.5934V30.6928H14.9921V33.6912C14.9921 33.8503 15.0553 34.0028 15.1678 34.1153C15.2802 34.2278 15.4328 34.2909 15.5918 34.2909H19.1899C19.349 34.2909 19.5015 34.2278 19.614 34.1153C19.7264 34.0028 19.7896 33.8503 19.7896 33.6912V30.6928H22.1884V39.0884Z" fill="black"/>
<path d="M19.7891 36.6914H20.9884V37.8908H19.7891V36.6914Z" fill="black"/>
<path d="M8.99609 27.0938H10.1955V28.2931H8.99609V27.0938Z" fill="black"/>
<path d="M35.8405 11.4862C35.8866 11.4974 35.9338 11.503 35.9813 11.503C36.0863 11.5029 36.1896 11.4753 36.2807 11.4229C36.3718 11.3705 36.4475 11.2951 36.5004 11.2043C36.5549 11.1085 36.5827 10.9998 36.5809 10.8895V8.50455C36.5809 8.36998 36.5357 8.23933 36.4524 8.13361C36.3692 8.02788 36.2528 7.95323 36.122 7.92166L18.731 3.72384C18.6386 3.70143 18.5421 3.70143 18.4496 3.72384L1.05868 7.92166C0.927867 7.95323 0.811476 8.02788 0.728226 8.13361C0.644976 8.23933 0.599704 8.36998 0.599692 8.50455V10.8863C0.597643 11.0119 0.63354 11.1351 0.702689 11.24C0.771308 11.3409 0.869035 11.4185 0.98286 11.4625C1.09669 11.5065 1.22121 11.5147 1.33986 11.4862L2.39875 11.2307V18.6992H3.59813V10.9412L18.5903 7.32234L33.5825 10.9412V39.0886H29.9844V15.7008C29.9844 15.5418 29.9212 15.3892 29.8087 15.2768C29.6963 15.1643 29.5437 15.1011 29.3847 15.1011H7.79594C7.63689 15.1011 7.48436 15.1643 7.3719 15.2768C7.25944 15.3892 7.19625 15.5418 7.19625 15.7008V18.0996C7.19625 18.2586 7.25944 18.4111 7.3719 18.5236C7.48436 18.6361 7.63689 18.6992 7.79594 18.6992H28.785V19.8986H13.7928V21.098H28.785V22.2974H13.7928V23.4967H28.785V24.6961H13.7928V25.8955H28.785V39.0886H24.5872V40.288H36.5809V39.0886H34.7819V11.2307L35.8405 11.4862ZM8.39563 17.4999V16.3005H28.785V17.4999H8.39563ZM18.5903 6.1058C18.5429 6.10578 18.4957 6.11141 18.4496 6.12259L1.79907 10.1416V8.97681L18.5903 4.92367L35.3816 8.97681V10.1417L18.731 6.12259C18.685 6.11141 18.6377 6.10578 18.5903 6.1058Z" fill="black"/>
<path d="M19.7896 13.3012C20.2667 13.3012 20.7243 13.1117 21.0617 12.7743C21.3991 12.4369 21.5887 11.9793 21.5887 11.5022C21.5887 11.025 21.3991 10.5674 21.0617 10.2301C20.7243 9.89267 20.2667 9.70313 19.7896 9.70312H17.3909C16.9137 9.70313 16.4561 9.89267 16.1187 10.2301C15.7813 10.5674 15.5918 11.025 15.5918 11.5022C15.5918 11.9793 15.7813 12.4369 16.1187 12.7743C16.4561 13.1117 16.9137 13.3012 17.3909 13.3012H19.7896ZM16.7912 11.5022C16.7914 11.3432 16.8546 11.1908 16.967 11.0783C17.0794 10.9659 17.2319 10.9027 17.3909 10.9025H19.7896C19.9487 10.9025 20.1012 10.9657 20.2137 11.0781C20.3261 11.1906 20.3893 11.3431 20.3893 11.5022C20.3893 11.6612 20.3261 11.8138 20.2137 11.9262C20.1012 12.0387 19.9487 12.1019 19.7896 12.1019H17.3909C17.2319 12.1017 17.0794 12.0385 16.967 11.926C16.8546 11.8136 16.7914 11.6612 16.7912 11.5022Z" fill="black"/>
</g>
</svg>
