<svg width="39" height="39" viewBox="0 0 39 39" fill="none" xmlns="http://www.w3.org/2000/svg">
<g>
<path d="M32.4077 27.5308L24.598 24.7744H13.7816L5.97183 27.5308C4.5304 28.0396 3.56641 29.402 3.56641 30.9306V38.595H34.8131V30.9307C34.8131 29.4021 33.8491 28.0396 32.4077 27.5308Z" fill="#96C3F0"/>
<path d="M13.1806 29.5806H10.7773V33.7866H13.1806V29.5806Z" fill="#FFD164"/>
<path d="M27.6025 29.5806H25.1992V33.7866H27.6025V29.5806Z" fill="#FFD164"/>
<path d="M28.8049 38.5956H9.57617V34.9902C9.57617 33.9945 10.3833 33.1875 11.3788 33.1875H27.0022C27.9978 33.1875 28.8049 33.9946 28.8049 34.9902V38.5956Z" fill="#FFE17D"/>
<path d="M19.1905 1.33887C13.8807 1.33887 9.57617 5.64335 9.57617 10.9532V27.1775C9.57617 29.1686 11.1904 30.7828 13.1816 30.7828H25.1995C27.1907 30.7828 28.8049 29.1686 28.8049 27.1775V10.9532C28.8049 5.64335 24.5004 1.33887 19.1905 1.33887Z" fill="#9C969E"/>
<path d="M13.1816 27.1787V12.1562H9.57617V27.1787C9.57617 29.1698 11.1904 30.7841 13.1816 30.7841H16.787C14.7957 30.7841 13.1816 29.1699 13.1816 27.1787Z" fill="#867E88"/>
<path d="M19.1905 1.33887C13.8807 1.33887 9.57617 5.64335 9.57617 10.9532V12.155H28.8049V10.9532C28.8049 5.64335 24.5004 1.33887 19.1905 1.33887Z" fill="#B7B2B8"/>
<path d="M20.9932 1.5136C20.4086 1.40258 19.8073 1.33887 19.1905 1.33887C13.8807 1.33887 9.57617 5.64335 9.57617 10.9532V12.1551H13.1816V10.9532C13.1816 6.26013 16.5459 2.35811 20.9932 1.5136Z" fill="#AEA8AF"/>
<path d="M25.7991 19.3653H12.5794C12.2475 19.3653 11.9785 19.0962 11.9785 18.7644V15.159C11.9785 14.8271 12.2475 14.5581 12.5794 14.5581H25.7991C26.131 14.5581 26.4 14.8271 26.4 15.159V18.7644C26.4 19.0962 26.131 19.3653 25.7991 19.3653Z" fill="#7DA5D7"/>
<path d="M25.7991 19.3659H12.5794C12.2475 19.3659 11.9785 19.0969 11.9785 18.7651V16.9624H26.4V18.7651C26.4 19.0969 26.131 19.3659 25.7991 19.3659Z" fill="#96C3F0"/>
<path d="M9.57542 12.1562H7.77276C7.44091 12.1562 7.17188 12.4253 7.17188 12.7571V14.5598C7.17188 14.8917 7.44091 15.1607 7.77276 15.1607H9.57542V12.1562Z" fill="#6F6571"/>
<path d="M30.6073 12.1562H28.8047V15.1608H30.6073C30.9392 15.1608 31.2082 14.8917 31.2082 14.5599V12.7572C31.2083 12.4253 30.9392 12.1562 30.6073 12.1562Z" fill="#867E88"/>
<path d="M32.5944 27.0008L29.3659 25.8613V15.7224H30.6064C31.2478 15.7224 31.7695 15.2007 31.7695 14.5593V12.7566C31.7695 12.1153 31.2478 11.5935 30.6064 11.5935H29.3659V10.9539C29.3659 5.34254 24.8007 0.777344 19.1894 0.777344C13.578 0.777344 9.01285 5.34254 9.01285 10.9539V11.5935H7.7724C7.13103 11.5935 6.6093 12.1153 6.6093 12.7566V14.5593C6.6093 15.2007 7.13103 15.7224 7.7724 15.7224H9.01285V25.8613L5.78443 27.0008C4.12127 27.5877 3.00391 29.167 3.00391 30.9308V38.5951C3.00391 38.9056 3.25563 39.1573 3.56611 39.1573C3.8766 39.1573 4.12832 38.9056 4.12832 38.5951V30.9308C4.12832 29.6429 4.94427 28.4897 6.15864 28.0611L9.01285 27.0537V27.1781C9.01285 28.3166 9.47214 29.3495 10.2147 30.1024V32.9319C9.49792 33.3386 9.01285 34.1084 9.01285 34.9898V38.5951C9.01285 38.9056 9.26457 39.1573 9.57506 39.1573C9.88555 39.1573 10.1373 38.9056 10.1373 38.5951V34.9897C10.1373 34.3057 10.6938 33.7493 11.3778 33.7493H21.5931C21.9036 33.7493 22.1553 33.4976 22.1553 33.1871C22.1553 32.8766 21.9036 32.6249 21.5931 32.6249H13.7427V31.3457H24.6364V32.6249H23.9968C23.6863 32.6249 23.4346 32.8766 23.4346 33.1871C23.4346 33.4976 23.6863 33.7493 23.9968 33.7493H27.001C27.685 33.7493 28.2415 34.3057 28.2415 34.9897V38.5951C28.2415 38.9056 28.4932 39.1573 28.8037 39.1573C29.1142 39.1573 29.3659 38.9056 29.3659 38.5951V34.9897C29.3659 34.1084 28.881 33.3387 28.1643 32.932V30.1022C28.9067 29.3493 29.3659 28.3165 29.3659 27.1781V27.0537L32.2202 28.0611C33.4346 28.4897 34.2505 29.6429 34.2505 30.9308V38.5951C34.2505 38.9056 34.5022 39.1573 34.8127 39.1573C35.1232 39.1573 35.3749 38.9056 35.3749 38.5951V30.9308C35.3749 29.1671 34.2575 27.5877 32.5944 27.0008ZM30.6065 12.7179C30.6278 12.7179 30.6452 12.7353 30.6452 12.7566V14.5593C30.6452 14.5806 30.6278 14.598 30.6065 14.598H29.366V12.7179L30.6065 12.7179ZM10.1373 10.9539C10.1373 5.96254 14.198 1.90176 19.1894 1.90176C24.1807 1.90176 28.2415 5.96254 28.2415 10.9539V11.5935H26.9623V10.954C26.9623 10.6435 26.7106 10.3918 26.4001 10.3918C26.0896 10.3918 25.8379 10.6435 25.8379 10.954V11.5935H12.5409V10.954C12.5409 10.6435 12.2892 10.3918 11.9787 10.3918C11.6682 10.3918 11.4165 10.6435 11.4165 10.954V11.5935H10.1373V10.9539ZM7.77232 14.598C7.75096 14.598 7.73364 14.5806 7.73364 14.5593V12.7566C7.73364 12.7353 7.75096 12.7179 7.77232 12.7179H9.01277V14.598L7.77232 14.598ZM11.3778 32.6249C11.3648 32.6249 11.352 32.6256 11.3391 32.6258V30.9155C11.7344 31.111 12.1648 31.2452 12.6182 31.3067V32.6248H11.3778V32.6249ZM27.001 32.6249H25.7608V31.3067C26.2142 31.2452 26.6447 31.111 27.0399 30.9155V32.6258C27.0269 32.6256 27.0141 32.6249 27.001 32.6249ZM25.1983 30.2213H13.1805C11.5025 30.2213 10.1373 28.8561 10.1373 27.1781V12.7179H28.2416V27.1781C28.2415 28.8561 26.8763 30.2213 25.1983 30.2213Z" fill="black"/>
<path d="M11.9851 35.0303H11.9791C11.6686 35.0303 11.4199 35.282 11.4199 35.5925C11.4199 35.903 11.6746 36.1547 11.9851 36.1547C12.2956 36.1547 12.5473 35.903 12.5473 35.5925C12.5473 35.282 12.2956 35.0303 11.9851 35.0303Z" fill="black"/>
<path d="M26.4011 35.0303H26.3951C26.0847 35.0303 25.8359 35.282 25.8359 35.5925C25.8359 35.903 26.0907 36.1547 26.4011 36.1547C26.7116 36.1547 26.9633 35.903 26.9633 35.5925C26.9633 35.282 26.7116 35.0303 26.4011 35.0303Z" fill="black"/>
<path d="M25.8007 13.9966H15.5855C15.275 13.9966 15.0233 14.2483 15.0233 14.5588C15.0233 14.8693 15.275 15.121 15.5855 15.121H25.8007C25.8221 15.121 25.8394 15.1383 25.8394 15.1597V18.7651C25.8394 18.7864 25.8221 18.8038 25.8007 18.8038H12.5811C12.5597 18.8038 12.5424 18.7864 12.5424 18.7651V15.1597C12.5424 15.1383 12.5597 15.121 12.5811 15.121H13.1818C13.4923 15.121 13.744 14.8693 13.744 14.5588C13.744 14.2483 13.4923 13.9966 13.1818 13.9966H12.5811C11.9397 13.9966 11.418 14.5183 11.418 15.1597V18.7651C11.418 19.4064 11.9397 19.9282 12.5811 19.9282H25.8007C26.4421 19.9282 26.9638 19.4064 26.9638 18.7651V15.1597C26.9638 14.5183 26.4421 13.9966 25.8007 13.9966Z" fill="black"/>
<path d="M14.3825 17.5253H23.9969C24.3073 17.5253 24.5591 17.2736 24.5591 16.9631C24.5591 16.6526 24.3073 16.4009 23.9969 16.4009H14.3825C14.072 16.4009 13.8203 16.6526 13.8203 16.9631C13.8203 17.2736 14.072 17.5253 14.3825 17.5253Z" fill="black"/>
</g>
</svg>
