<svg xmlns="http://www.w3.org/2000/svg" version="1.1" xmlns:xlink="http://www.w3.org/1999/xlink" width="512" height="512" x="0" y="0" viewBox="0 0 520 520" style="enable-background:new 0 0 512 512" xml:space="preserve" class=""><g><path d="M130 185c20.575 0 39.726-8.172 54.004-23.006a85.349 85.349 0 0 1 13.726-19.768C202.55 132.119 205 121.281 205 110c0-41.355-33.645-75-75-75s-75 33.645-75 75 33.645 75 75 75zM260 275c41.355 0 75-33.645 75-75s-33.645-75-75-75-75 33.645-75 75 33.645 75 75 75zM335.996 161.994C350.274 176.828 369.425 185 390 185c41.355 0 75-33.645 75-75s-33.645-75-75-75-75 33.645-75 75c0 11.28 2.449 22.117 7.27 32.224a85.36 85.36 0 0 1 13.726 19.77z" fill="#fc2b5a" opacity="1" data-original="#000000" class=""></path><path d="M390 195c-15.853 0-31.034 3.428-45.174 10.188-2.044 33.756-23.873 62.24-54.018 74.009C339.307 292.698 375 337.257 375 390v15h120V300c0-57.897-47.103-105-105-105zM229.192 279.197c-30.145-11.77-51.975-40.253-54.019-74.009C161.034 198.428 145.853 195 130 195c-57.897 0-105 47.103-105 105v105h120v-15c0-52.743 35.693-97.302 84.192-110.803z" fill="#fc2b5a" opacity="1" data-original="#000000" class=""></path><path d="M260 285c-57.897 0-105 47.104-105 105v105h210V390c0-57.896-47.103-105-105-105z" fill="#fc2b5a" opacity="1" data-original="#000000" class=""></path></g></svg>