<svg xmlns="http://www.w3.org/2000/svg" version="1.1" xmlns:xlink="http://www.w3.org/1999/xlink" width="512" height="512" x="0" y="0" viewBox="0 0 512 512" style="enable-background:new 0 0 512 512" xml:space="preserve" class=""><g><path d="M155 0H15C6.716 0 0 6.716 0 15v35h170V15c0-8.284-6.716-15-15-15zM504.464 142.989a14.997 14.997 0 0 0-15.036.063L341 229.852V156a15 15 0 0 0-22.572-12.948L170 229.852V80H0v417c0 8.284 6.716 15 15 15h482c8.284 0 15-6.716 15-15V156a15 15 0 0 0-7.536-13.011zM230 406.5c0 8.284-6.716 15-15 15h-60c-8.284 0-15-6.716-15-15v-60c0-8.284 6.716-15 15-15h60c8.284 0 15 6.716 15 15v60zm171 0c0 8.284-6.716 15-15 15h-60c-8.284 0-15-6.716-15-15v-60c0-8.284 6.716-15 15-15h60c8.284 0 15 6.716 15 15v60z" fill="#fc2b5a" opacity="1" data-original="#000000" class=""></path></g></svg>