<svg width="39" height="39" viewBox="0 0 39 39" fill="none" xmlns="http://www.w3.org/2000/svg">
<g>
<path d="M31.9851 17.544V30.977H6.39844V17.544C6.40055 16.8383 6.97209 16.2668 7.67777 16.2646H8.24068L11.4262 23.9407H24.5394C25.9175 21.833 27.1219 19.6167 28.1407 17.3137H28.1471C28.2942 16.9683 28.4414 16.6165 28.5757 16.2646H30.7058C31.4115 16.2668 31.983 16.8383 31.9851 17.544Z" fill="#02A9F4"/>
<path d="M30.7042 16.2646H28.7852C29.4908 16.2668 30.0624 16.8383 30.0645 17.544V30.977H31.9835V17.544C31.9814 16.8383 31.4098 16.2668 30.7042 16.2646Z" fill="#0377BC"/>
<path d="M13.4339 35.4552H3.19922L6.39755 30.9775H31.9842L35.1826 35.4552H24.9479H13.4339Z" fill="#7F8E94"/>
<path d="M31.9835 30.9775H30.0645L33.2628 35.4552H35.1818L31.9835 30.9775Z" fill="#545C60"/>
<path d="M13.4339 35.4531H3.19922V37.3721C3.19922 38.432 4.05838 39.2911 5.11822 39.2911H33.2636C34.3234 39.2911 35.1826 38.432 35.1826 37.3721V35.4531H13.4339Z" fill="#9E9E9E"/>
<path d="M33.2627 35.4531V37.3721C33.2627 38.432 32.4036 39.2911 31.3438 39.2911H33.2627C34.3226 39.2911 35.1817 38.432 35.1817 37.3721V35.4531H33.2627Z" fill="#707070"/>
<path d="M19.1906 36.7325H23.6683L24.9476 35.4532L24.3079 33.5342H14.0733L13.4336 35.4532L14.7129 36.7325H19.1906Z" fill="#607D8B"/>
<path d="M16.6322 18.0224V23.9393H11.4253L8.23974 16.2633L5.78982 10.3464C5.72416 10.1895 5.72369 10.0129 5.78851 9.85565C5.85333 9.69841 5.97809 9.57346 6.13524 9.5084L11.4573 7.30795C11.784 7.17424 12.1576 7.32822 12.2952 7.65337L13.0244 9.42525L14.0031 11.7856L14.9818 14.1524L15.9669 16.5191L16.6322 18.0224Z" fill="#9D27B0"/>
<path d="M21.7629 9.22754L21.7501 20.6392V23.9399H16.6328V18.023L16.6392 9.24673C17.0214 10.3424 18.0322 11.0948 19.1915 11.1465C21.1105 11.1465 21.7629 9.22754 21.7629 9.22754Z" fill="#F44335"/>
<path d="M19.841 11.0659L19.8301 20.6392V23.9399H21.7491V20.6392L21.7619 9.22754C21.4392 10.1037 20.7304 10.7821 19.841 11.0659Z" fill="#C81E1E"/>
<path d="M21.7629 9.22929C21.7629 9.22929 21.1105 11.1483 19.1915 11.1483C18.0322 11.0966 17.0214 10.3441 16.6392 9.24848C16.6358 9.24259 16.6336 9.23606 16.6328 9.22929L17.4964 6.06934C17.9959 6.42543 18.5855 6.6338 19.1979 6.67062C19.808 6.63269 20.3953 6.42437 20.893 6.06934L21.7629 9.22929Z" fill="#FFEB3A"/>
<path d="M20.8916 6.06934C20.3939 6.42437 19.8066 6.63269 19.1964 6.67062C19.176 6.67062 19.1568 6.66487 19.1363 6.66423L19.8425 9.22929C19.5546 9.99618 18.9772 10.6194 18.2344 10.9647C18.5378 11.0879 18.8625 11.1502 19.19 11.1483C21.109 11.1483 21.7615 9.22929 21.7615 9.22929L20.8916 6.06934Z" fill="#FDD834"/>
<path d="M20.8927 6.06814C20.395 6.42317 19.8078 6.63149 19.1976 6.66942C18.5853 6.6326 17.9956 6.42423 17.4961 6.06814L18.3852 2.80583C18.4869 2.44199 18.8191 2.1909 19.1968 2.19239C19.5746 2.19388 19.9048 2.44759 20.0036 2.81223L20.8927 6.06814Z" fill="#607D8B"/>
<path d="M29.2019 14.4922C29.0164 15.0871 28.8053 15.682 28.575 16.2641C28.4407 16.6159 28.2936 16.9677 28.1465 17.3132H28.1401C26.5934 16.9129 25.1147 16.2856 23.752 15.4517C24.1997 14.5178 24.6923 13.6031 25.2104 12.7012C26.5089 13.2833 27.833 13.8846 29.1699 14.4794C29.1827 14.4858 29.1891 14.4858 29.2019 14.4922Z" fill="#673AB7"/>
<path d="M29.1695 14.4794C27.8326 13.8846 26.5085 13.2833 25.21 12.7012C25.082 12.9295 24.9541 13.1617 24.8262 13.392C25.6283 13.7532 26.4362 14.1157 27.2499 14.4794C27.2627 14.4858 27.2691 14.4858 27.2818 14.4922C27.0963 15.0871 26.8853 15.682 26.655 16.2641C26.5872 16.4413 26.5117 16.6153 26.4394 16.7918C26.9887 17.0175 27.5576 17.192 28.139 17.3132H28.146C28.2932 16.9677 28.4403 16.6159 28.5746 16.2641C28.8049 15.682 29.016 15.0871 29.2015 14.4922C29.1887 14.4858 29.1823 14.4858 29.1695 14.4794Z" fill="#4527A0"/>
<path d="M28.1403 17.3155C27.1215 19.6185 25.9171 21.8348 24.5389 23.9425H21.75V20.6418C22.2571 18.8629 22.9229 17.1331 23.7394 15.4733C23.7394 15.4669 23.7458 15.4605 23.7522 15.4541C25.1149 16.2879 26.5936 16.9152 28.1403 17.3155Z" fill="#9D27B0"/>
<path d="M23.7514 15.4541C23.745 15.4605 23.7386 15.4669 23.7386 15.4733C23.6106 15.7356 23.4929 16.001 23.372 16.2658C24.2681 16.7464 25.2268 17.0997 26.2205 17.3155C25.2017 19.6185 23.9973 21.8348 22.6191 23.9425H24.5381C25.9163 21.8348 27.1207 19.6185 28.1395 17.3155C26.5928 16.9152 25.1141 16.2879 23.7514 15.4541Z" fill="#6A1B9A"/>
<path d="M29.1695 14.4794C27.8326 13.8845 26.5085 13.2832 25.2099 12.7011C25.2099 12.7011 23.6236 9.6179 26.7131 8.02513C29.8027 6.43236 30.9605 5.17861 31.1332 3.4707C31.1332 3.4707 35.5725 10.8077 29.1695 14.4794Z" fill="#FFDC00"/>
<path d="M31.1336 3.4707C31.0552 4.27495 30.716 5.03152 30.1677 5.6251C30.9302 7.91703 31.3831 11.5369 28.0312 13.9689C28.4106 14.1391 28.788 14.3099 29.1699 14.4806C35.5729 10.8077 31.1336 3.4707 31.1336 3.4707Z" fill="#FEC108"/>
<path d="M28.7655 12.5831C28.4807 12.5834 28.2299 12.3954 28.1504 12.1219C28.071 11.8483 28.182 11.5552 28.4227 11.4029C29.2177 10.8817 29.7707 10.0635 29.9579 9.13142C29.9932 8.77991 30.3068 8.52359 30.6583 8.55892C31.0098 8.59425 31.2661 8.90784 31.2308 9.25935C31.0058 10.5845 30.2351 11.7546 29.1065 12.4846C29.0044 12.5489 28.8862 12.583 28.7655 12.5831Z" fill="#F5F5F5"/>
<path d="M2.55859 37.3749C2.55859 38.788 3.70415 39.9335 5.11726 39.9335H33.2626C34.6757 39.9335 35.8213 38.788 35.8213 37.3749V35.4559C35.8133 35.324 35.7724 35.1962 35.7023 35.0842L32.6229 30.7729V17.5452C32.6229 16.4854 31.7638 15.6262 30.7039 15.6262H29.4962C29.5864 15.3735 29.6689 15.1221 29.7489 14.8708C31.3652 13.9537 32.5489 12.4298 33.0374 10.6368C33.9771 7.00542 31.7728 3.30047 31.6781 3.14439C31.5355 2.9092 31.2585 2.79151 30.9902 2.85213C30.7219 2.91275 30.5224 3.1381 30.4948 3.41177C30.3668 4.68599 29.6408 5.80796 26.4188 7.46342C25.47 7.89696 24.7332 8.69104 24.3719 9.66966C24.0106 10.6483 24.0546 11.7306 24.494 12.6767C24.0105 13.5287 23.5588 14.3757 23.1623 15.1957C22.8853 15.7657 22.6339 16.335 22.3947 16.9036L22.4011 9.22954C22.388 9.14309 22.3692 9.05761 22.3448 8.97367L20.6202 2.64097C20.4453 1.99797 19.8614 1.55176 19.195 1.55176C18.5287 1.55176 17.9448 1.99797 17.7699 2.64097L16.0178 9.06067C16.0063 9.1168 15.9986 9.17365 15.9948 9.23082V14.9168L12.8815 7.40265C12.6019 6.76039 11.8617 6.45752 11.212 6.71949L5.89062 8.9193C5.23768 9.19089 4.92777 9.93974 5.19786 10.5933L7.2998 15.6639C6.4029 15.8432 5.75717 16.6306 5.75693 17.5452V30.7729L2.67757 35.0842C2.60751 35.1962 2.5666 35.324 2.55859 35.4559L2.55859 37.3749ZM34.5419 37.3749C34.5419 38.0814 33.9692 38.6542 33.2626 38.6542H5.11726C4.4107 38.6542 3.83793 38.0814 3.83793 37.3749V36.0955H13.1681L14.26 37.1875C14.3799 37.3074 14.5426 37.3748 14.7123 37.3749H23.6676C23.8372 37.3748 23.9999 37.3074 24.1198 37.1875L25.2118 36.0955H34.5419V37.3749ZM19.1899 36.0955H14.9771L14.1647 35.2832L14.5338 34.1765H23.8461L24.2151 35.2832L23.4028 36.0955H19.1899ZM25.4772 13.5249L26.4828 13.9771C27.1276 14.2676 27.7775 14.5605 28.4139 14.8445C28.2802 15.2392 28.1344 15.6371 27.9777 16.0343C27.9137 16.2064 27.8376 16.3804 27.7659 16.5537C26.7347 16.2519 25.7433 15.828 24.8126 15.291C24.741 15.2526 24.6719 15.2175 24.6015 15.1791C24.8759 14.6341 25.1644 14.0833 25.4772 13.5249ZM27.0035 8.59947C29.2512 7.44423 30.5818 6.40541 31.2502 5.21243C31.9505 6.81925 32.1414 8.60215 31.7971 10.3208C31.3913 11.7744 30.4291 13.0095 29.1188 13.7584C28.4114 13.4424 27.7058 13.1257 27.0079 12.8117L25.6902 12.2187C25.3684 11.5669 25.3266 10.8119 25.5745 10.1286C25.8224 9.44521 26.3385 8.89266 27.0035 8.59883V8.59947ZM24.0456 16.3298C24.0994 16.3586 24.1525 16.3855 24.2068 16.4149C25.1712 16.9658 26.1931 17.4092 27.2542 17.7371C26.3562 19.6587 25.3305 21.5179 24.1838 23.3022H22.3883V20.7263C22.8252 19.2198 23.3794 17.7498 24.0456 16.3298ZM19.8296 23.3022V16.9055C19.8296 16.5523 19.5432 16.2659 19.1899 16.2659C18.8366 16.2659 18.5503 16.5523 18.5503 16.9055V23.3022H17.2709V11.1485C17.6465 11.4378 18.0847 11.635 18.5503 11.7242V13.7072C18.5503 14.0605 18.8366 14.3469 19.1899 14.3469C19.5432 14.3469 19.8296 14.0605 19.8296 13.7072V11.7242C20.2982 11.6348 20.7391 11.4363 21.1166 11.1447L21.1089 20.6329C21.1089 20.6399 21.1057 20.6482 21.1057 20.6553V20.6693L21.1089 23.3022H19.8296ZM21.0776 9.18924C20.763 9.96093 20.0259 10.4771 19.1931 10.5089C18.3603 10.4766 17.6234 9.95995 17.3093 9.18796L17.9048 7.0067C18.7166 7.41177 19.6716 7.41177 20.4833 7.0067L21.0776 9.18924ZM19.3857 2.97872L20.1437 5.76127C19.8518 5.92251 19.5268 6.01485 19.1938 6.03121C18.8608 6.01464 18.5361 5.92209 18.2445 5.76063L19.0044 2.97872C19.0356 2.90079 19.1111 2.84971 19.195 2.84971C19.279 2.84971 19.3545 2.90079 19.3857 2.97872ZM11.7058 7.89903L12.1952 9.0805L9.82841 10.0605C9.61068 10.1433 9.45522 10.338 9.42258 10.5687C9.38993 10.7993 9.48527 11.0295 9.67144 11.1695C9.85762 11.3095 10.1052 11.3373 10.3178 11.2419L12.6845 10.262L13.1745 11.4441L11.9898 11.9347C11.7076 12.0515 11.5474 12.3514 11.6071 12.6509C11.6669 12.9504 11.9301 13.1659 12.2355 13.1654C12.3193 13.1651 12.4023 13.1486 12.4798 13.1168L13.6638 12.6262L14.1532 13.8083L11.7864 14.7882C11.5042 14.905 11.344 15.205 11.4037 15.5045C11.4635 15.804 11.7267 16.0195 12.0321 16.019C12.1159 16.0187 12.1989 16.0022 12.2764 15.9703L14.6432 14.9904L15.3846 16.7814L15.9916 18.1631V23.3022H11.8517L6.37868 10.102L11.7058 7.89903ZM7.03626 17.5452C7.03626 17.1919 7.32265 16.9055 7.67593 16.9055H7.81473L10.4668 23.3022H10.2346C9.88132 23.3022 9.59493 23.5886 9.59493 23.9419C9.59493 24.2952 9.88132 24.5815 10.2346 24.5815H28.1453C28.4985 24.5815 28.7849 24.2952 28.7849 23.9419C28.7849 23.5886 28.4985 23.3022 28.1453 23.3022H25.6921C26.9735 21.2666 28.0815 19.1268 29.0043 16.9055H30.7039C31.0572 16.9055 31.3436 17.1919 31.3436 17.5452V30.3385H7.03626V17.5452ZM6.72602 31.6179H31.6538L33.9387 34.8162H25.4081L24.9143 33.3347C24.8273 33.0734 24.5827 32.8971 24.3073 32.8972H14.0726C13.7971 32.8971 13.5526 33.0734 13.4656 33.3347L12.9717 34.8162H4.44113L6.72602 31.6179Z" fill="black"/>
</g>
</svg>
