<svg width="50" height="50" viewBox="0 0 50 50" fill="none" xmlns="http://www.w3.org/2000/svg">
<g>
<path d="M39.1649 49.9782C40.8722 49.9774 42.5396 49.4615 43.949 48.4979C45.3584 47.5343 46.4442 46.1679 47.0646 44.5773H41.0657L38.3933 43.0342V39.9479L41.0657 38.4048H47.0646C46.4967 36.9532 45.5399 35.6862 44.2992 34.7426C43.0585 33.7991 41.5818 33.2156 40.0313 33.0562C38.4808 32.8968 36.9163 33.1676 35.5095 33.8389C34.1028 34.5102 32.9082 35.556 32.0568 36.8617H26.2324V46.1204H32.0568C32.8262 47.3049 33.8795 48.2782 35.1209 48.9519C36.3623 49.6257 37.7524 49.9785 39.1649 49.9782Z" fill="#D9D9D9"/>
<path d="M30.8245 39.9482H27.0039V43.0345H30.8245C30.6286 42.0151 30.6286 40.9677 30.8245 39.9482Z" fill="#CDCDCD"/>
<path d="M37.6208 47.4404C37.5463 47.4403 37.4722 47.4293 37.4008 47.408C36.127 47.0279 35.0099 46.2467 34.2156 45.1808C33.4212 44.1148 32.9922 42.821 32.9922 41.4916C32.9922 40.1623 33.4212 38.8684 34.2156 37.8025C35.0099 36.7365 36.127 35.9554 37.4008 35.5753C37.4989 35.5428 37.6025 35.5303 37.7055 35.5386C37.8085 35.5469 37.9087 35.5758 38.0003 35.6236C38.0919 35.6714 38.173 35.7371 38.2387 35.8168C38.3045 35.8965 38.3535 35.9886 38.383 36.0876C38.4125 36.1866 38.4218 36.2906 38.4103 36.3932C38.3989 36.4959 38.3669 36.5952 38.3163 36.6853C38.2658 36.7754 38.1976 36.8544 38.1159 36.9177C38.0343 36.981 37.9407 37.0272 37.8408 37.0536C36.8856 37.3391 36.0481 37.9252 35.4526 38.7248C34.8571 39.5243 34.5354 40.4947 34.5354 41.4916C34.5354 42.4886 34.8571 43.4589 35.4526 44.2585C36.0481 45.058 36.8856 45.6441 37.8408 45.9297C38.0182 45.9828 38.1706 46.0979 38.2701 46.254C38.3697 46.4101 38.4098 46.5968 38.3831 46.78C38.3564 46.9632 38.2647 47.1307 38.1248 47.252C37.9849 47.3732 37.806 47.4401 37.6208 47.4404Z" fill="#CDCDCD"/>
<path d="M43.7381 43.0346V39.9484L41.0654 38.4053L38.3926 39.9484V43.0346L41.0654 44.5778L43.7381 43.0346Z" fill="#B9B9B9"/>
<path d="M38.3926 39.9455V40.8365L42.9665 43.4771L43.7381 43.0317V42.1405L39.1642 39.5L38.3926 39.9455Z" fill="#CDCDCD"/>
<path d="M27.0045 46.892H21.6035V33.6128L22.3751 33.0039C23.6029 33.0039 24.7804 33.4916 25.6485 34.3598C26.5167 35.228 27.0045 36.4055 27.0045 37.6333V46.892Z" fill="#EAEAE8"/>
<path d="M7.71539 46.1198V39.1758H2.31445V49.2061C2.31445 49.6154 2.47703 50.0079 2.76642 50.2972C3.05582 50.5866 3.44832 50.7492 3.85758 50.7492H24.6898L7.71539 46.1198Z" fill="#FFE7CF"/>
<path d="M7.71539 39.1752H2.31445V37.6321C2.31445 36.4043 2.80219 35.2268 3.67037 34.3586C4.53854 33.4904 5.71604 33.0027 6.94383 33.0027L7.71539 32.9062V39.1752Z" fill="#EAEAE8"/>
<path d="M9.2582 22.9741H7.71508C7.10118 22.9741 6.51244 22.7302 6.07835 22.2961C5.64426 21.8621 5.40039 21.2733 5.40039 20.6594C5.40039 20.0455 5.64426 19.4568 6.07835 19.0227C6.51244 18.5886 7.10118 18.3447 7.71508 18.3447H9.2582V22.9741Z" fill="#FFE7CF"/>
<path d="M20.0605 22.9741H21.6037C22.2176 22.9741 22.8063 22.7302 23.2404 22.2961C23.6745 21.8621 23.9184 21.2733 23.9184 20.6594C23.9184 20.0455 23.6745 19.4568 23.2404 19.0227C22.8063 18.5886 22.2176 18.3447 21.6037 18.3447H20.0605V22.9741Z" fill="#FFE7CF"/>
<path d="M22.3746 46.1206V33.0041L17.7452 31.4609H11.5727L6.94336 33.0041V46.1206H22.3746Z" fill="#4298D1"/>
<path d="M16.9746 42.2617H18.5177V43.8048H16.9746V42.2617Z" fill="#3981B7"/>
<path d="M6.94352 46.1192V45.3477L5.40039 46.1192L6.94352 50.7486H23.9179C24.0766 50.7465 24.2339 50.7196 24.3843 50.669L6.94352 46.1192Z" fill="#F4D3A6"/>
<path d="M11.5742 27.6016V31.4594L14.6605 36.0888L17.7467 31.4594V27.6016H11.5742Z" fill="#FFE7CF"/>
<path d="M11.5742 29.0837C12.5114 29.629 13.5762 29.9163 14.6605 29.9163C15.7447 29.9163 16.8096 29.629 17.7467 29.0837V27.6016H11.5742V29.0837Z" fill="#F7BB8F"/>
<path d="M14.6588 29.1478C13.0218 29.1478 11.4518 28.4975 10.2942 27.3399C9.13664 26.1824 8.48633 24.6124 8.48633 22.9753V16.0312H20.8313V22.9753C20.8313 24.6124 20.181 26.1824 19.0234 27.3399C17.8659 28.4975 16.2959 29.1478 14.6588 29.1478Z" fill="#FFE7CF"/>
<path d="M11.5723 22.2023C11.9985 22.2023 12.3439 21.8569 12.3439 21.4307C12.3439 21.0046 11.9985 20.6592 11.5723 20.6592C11.1462 20.6592 10.8008 21.0046 10.8008 21.4307C10.8008 21.8569 11.1462 22.2023 11.5723 22.2023Z" fill="#905638"/>
<path d="M17.7462 22.2023C18.1723 22.2023 18.5177 21.8569 18.5177 21.4307C18.5177 21.0046 18.1723 20.6592 17.7462 20.6592C17.32 20.6592 16.9746 21.0046 16.9746 21.4307C16.9746 21.8569 17.32 22.2023 17.7462 22.2023Z" fill="#905638"/>
<path d="M15.4319 23.7438H13.8888C13.7665 23.7439 13.6459 23.7149 13.537 23.6592C13.4281 23.6035 13.334 23.5227 13.2626 23.4235C13.1911 23.3243 13.1442 23.2095 13.1259 23.0885C13.1076 22.9676 13.1183 22.8441 13.1571 22.7281L13.9287 20.4134C13.9587 20.3148 14.0081 20.2232 14.074 20.144C14.14 20.0648 14.2212 19.9996 14.3128 19.9523C14.4043 19.905 14.5045 19.8765 14.6072 19.8685C14.71 19.8605 14.8133 19.8732 14.9111 19.9059C15.0089 19.9385 15.0991 19.9904 15.1765 20.0585C15.2539 20.1265 15.3169 20.2094 15.3617 20.3023C15.4065 20.3951 15.4323 20.4959 15.4375 20.5989C15.4427 20.7018 15.4272 20.8048 15.3919 20.9016L14.9593 22.2007H15.4319C15.6365 22.2007 15.8328 22.2819 15.9775 22.4266C16.1221 22.5713 16.2034 22.7676 16.2034 22.9722C16.2034 23.1768 16.1221 23.3731 15.9775 23.5178C15.8328 23.6625 15.6365 23.7438 15.4319 23.7438Z" fill="#905638"/>
<path d="M20.8313 16.0319H8.48633V12.9456C8.48633 12.1271 8.81149 11.3421 9.39027 10.7633C9.96905 10.1845 10.7541 9.85938 11.5726 9.85938H17.7451C18.5636 9.85938 19.3486 10.1845 19.9274 10.7633C20.5062 11.3421 20.8313 12.1271 20.8313 12.9456V16.0319Z" fill="#3981B7"/>
<path d="M14.6583 46.8956C14.4537 46.8956 14.2574 46.8143 14.1127 46.6696C13.968 46.5249 13.8867 46.3287 13.8867 46.1241V36.8653C13.8867 36.6607 13.968 36.4644 14.1127 36.3197C14.2574 36.175 14.4537 36.0938 14.6583 36.0938C14.8629 36.0938 15.0592 36.175 15.2039 36.3197C15.3486 36.4644 15.4298 36.6607 15.4298 36.8653V46.1241C15.4298 46.3287 15.3486 46.5249 15.2039 46.6696C15.0592 46.8143 14.8629 46.8956 14.6583 46.8956Z" fill="#3981B7"/>
<path d="M12.3441 38.407L14.6588 36.0923L11.5725 30.6914L9.25781 32.2345L12.3441 38.407Z" fill="#3981B7"/>
<path d="M16.9729 38.407L14.6582 36.0923L17.7445 30.6914L20.0591 32.2345L16.9729 38.407Z" fill="#3981B7"/>
<path d="M8.48633 16.0312H20.8313V18.3459H8.48633V16.0312Z" fill="#F7BB8F"/>
<path d="M8.48633 16.0312L9.07571 17.2101C9.59415 18.2469 10.3911 19.1189 11.3772 19.7284C12.3633 20.3378 13.4996 20.6606 14.6588 20.6606C15.8181 20.6606 16.9544 20.3378 17.9405 19.7284C18.9266 19.1189 19.7235 18.2469 20.242 17.2101L20.8313 16.0312H8.48633Z" fill="#69B9E7"/>
<path d="M22.3746 39.1758V46.1198H13.1159L10.0296 44.5767L6.94336 46.1198L8.48648 50.7492H25.4609C25.8701 50.7492 26.2626 50.5866 26.552 50.2972C26.8414 50.0079 27.004 49.6154 27.004 49.2061V39.1758H22.3746Z" fill="#FFE7CF"/>
<path d="M16.9746 42.2617H18.5177V43.8048H16.9746V42.2617Z" fill="black"/>
<path d="M47.7024 38.8404C47.7732 38.7367 47.8176 38.6172 47.8317 38.4924C47.8459 38.3677 47.8294 38.2413 47.7837 38.1244C47.1984 36.6215 46.2304 35.2979 44.9755 34.2848C43.7207 33.2717 42.2227 32.6044 40.6303 32.3491C39.0379 32.0938 37.4064 32.2594 35.8978 32.8295C34.3891 33.3995 33.0558 34.3542 32.0301 35.5988C31.899 35.7575 31.7723 35.9219 31.6511 36.0906H27.5543C27.2252 34.9985 26.5602 34.038 25.6537 33.3457C24.7472 32.6533 23.6456 32.2644 22.5054 32.2344L20.4028 31.5334L18.5173 30.2768V28.7447C19.3575 28.1828 20.0649 27.4444 20.5903 26.581C21.1158 25.7176 21.4466 24.75 21.5597 23.7456H21.6036C22.4221 23.7456 23.2071 23.4205 23.7859 22.8417C24.3647 22.2629 24.6898 21.4779 24.6898 20.6594C24.6898 19.8409 24.3647 19.0559 23.7859 18.4771C23.2071 17.8983 22.4221 17.5731 21.6036 17.5731V12.9438C21.6024 11.9209 21.1956 10.9404 20.4724 10.2171C19.7492 9.4939 18.7686 9.08709 17.7458 9.08594H11.5733C10.5505 9.08709 9.5699 9.4939 8.84666 10.2171C8.12343 10.9404 7.71662 11.9209 7.71547 12.9438V17.5731C6.89694 17.5731 6.11194 17.8983 5.53316 18.4771C4.95438 19.0559 4.62922 19.8409 4.62922 20.6594C4.62922 21.4779 4.95438 22.2629 5.53316 22.8417C6.11194 23.4205 6.89694 23.7456 7.71547 23.7456H7.75935C7.87246 24.75 8.20327 25.7176 8.72871 26.581C9.25416 27.4444 9.96161 28.1828 10.8017 28.7447V30.2768L8.91679 31.5334L6.80821 32.2363C5.40046 32.273 4.06259 32.8575 3.07925 33.8655C2.09591 34.8736 1.54473 36.2255 1.54297 37.6338V49.2072C1.54368 49.8209 1.78778 50.4092 2.22171 50.8431C2.65565 51.2771 3.24398 51.5212 3.85766 51.5219H25.4614C26.0751 51.5212 26.6634 51.2771 27.0973 50.8431C27.5313 50.4092 27.7754 49.8209 27.7761 49.2072V46.8925H31.6509C32.6219 48.2453 33.9401 49.3109 35.4663 49.9769C36.9926 50.6428 38.6703 50.8844 40.3224 50.6761C41.9746 50.4678 43.5399 49.8174 44.8531 48.7935C46.1663 47.7696 47.1788 46.4102 47.7837 44.8588C47.8294 44.7418 47.8459 44.6155 47.8317 44.4907C47.8175 44.3659 47.7731 44.2465 47.7023 44.1428C47.6315 44.0391 47.5365 43.9542 47.4254 43.8956C47.3144 43.8369 47.1907 43.8063 47.0652 43.8063H44.0014L44.1737 43.7068L44.1763 43.7053L44.1806 43.7029C44.188 43.6985 44.1947 43.6932 44.2019 43.6885C44.223 43.6759 44.2435 43.6622 44.2632 43.6475C44.2729 43.6404 44.2809 43.6322 44.2898 43.6246C44.3066 43.6106 44.3236 43.5968 44.3392 43.5811C44.3508 43.5696 44.3609 43.5567 44.3717 43.5446C44.3825 43.5324 44.3952 43.5193 44.4059 43.5054C44.4274 43.4774 44.4471 43.4479 44.4646 43.4172C44.4789 43.3917 44.4918 43.3654 44.5032 43.3385C44.5066 43.3307 44.5093 43.3228 44.5123 43.315C44.521 43.2932 44.5285 43.2712 44.5349 43.249C44.5372 43.2412 44.5394 43.2335 44.5414 43.2257C44.5486 43.198 44.5542 43.1701 44.5583 43.1418C44.5583 43.1398 44.5591 43.1378 44.5593 43.1357C44.5633 43.1044 44.5654 43.0729 44.5656 43.0414C44.5656 43.0391 44.5656 43.0369 44.5656 43.0347V39.9484C44.5656 39.813 44.5299 39.68 44.4622 39.5627C44.3945 39.4454 44.2971 39.348 44.1798 39.2803L44.0014 39.1769H47.0652C47.1907 39.1769 47.3144 39.1462 47.4255 39.0876C47.5365 39.0289 47.6316 38.9441 47.7024 38.8404ZM21.6036 19.1163C22.0129 19.1163 22.4054 19.2788 22.6947 19.5682C22.9841 19.8576 23.1467 20.2501 23.1467 20.6594C23.1467 21.0686 22.9841 21.4611 22.6947 21.7505C22.4054 22.0399 22.0129 22.2025 21.6036 22.2025V19.1163ZM7.71547 22.2025C7.30621 22.2025 6.91371 22.0399 6.62431 21.7505C6.33492 21.4611 6.17234 21.0686 6.17234 20.6594C6.17234 20.2501 6.33492 19.8576 6.62431 19.5682C6.91371 19.2788 7.30621 19.1163 7.71547 19.1163V22.2025ZM20.4513 33.1764L21.6036 33.5606V45.3494H15.4311V37.9534L16.4286 38.9509C16.5003 39.0226 16.5853 39.0794 16.6789 39.1182C16.7726 39.1569 16.8729 39.1769 16.9742 39.1769C17.0156 39.177 17.0569 39.1738 17.0978 39.1672C17.2184 39.1477 17.3327 39.0997 17.4312 39.0273C17.5297 38.9549 17.6096 38.8601 17.6643 38.7508L20.4513 33.1764ZM14.6595 34.5354L12.3448 30.4847V29.5203C13.8423 30.0511 15.4767 30.0511 16.9742 29.5203V30.4847L14.6595 34.5354ZM19.0658 32.497L16.7629 37.1033L15.6219 35.9623L18.0055 31.7906L19.0658 32.497ZM9.25859 12.9438C9.25931 12.3301 9.50341 11.7417 9.93734 11.3078C10.3713 10.8739 10.9596 10.6298 11.5733 10.6291H17.7458C18.3595 10.6298 18.9478 10.8739 19.3817 11.3078C19.8157 11.7417 20.0598 12.3301 20.0605 12.9438V15.2584H9.25859V12.9438ZM19.5836 16.8016L19.5525 16.8638C19.0982 17.7725 18.3998 18.5367 17.5355 19.0708C16.6713 19.6049 15.6755 19.8878 14.6595 19.8878C13.6436 19.8878 12.6477 19.6049 11.7835 19.0708C10.9193 18.5367 10.2209 17.7725 9.76657 16.8638L9.73542 16.8016H19.5836ZM9.25859 22.9741V18.8949C9.86491 19.631 10.6162 20.2345 11.4657 20.6678C11.2995 20.6912 11.1454 20.7682 11.0269 20.8871C10.9084 21.006 10.8319 21.1603 10.809 21.3266C10.7861 21.4929 10.8181 21.6622 10.9001 21.8087C10.9821 21.9552 11.1096 22.0709 11.2634 22.1384C11.4171 22.2058 11.5887 22.2213 11.752 22.1824C11.9153 22.1435 12.0615 22.0524 12.1684 21.923C12.2752 21.7935 12.337 21.6327 12.3442 21.465C12.3514 21.2972 12.3037 21.1317 12.2084 20.9936C12.6634 21.162 13.1347 21.2826 13.6146 21.3535L13.1559 22.7301C13.1173 22.846 13.1067 22.9696 13.1252 23.0904C13.1436 23.2113 13.1905 23.326 13.262 23.4252C13.3335 23.5244 13.4275 23.6052 13.5364 23.6609C13.6452 23.7166 13.7657 23.7456 13.888 23.7456H15.4311C15.6357 23.7456 15.832 23.6643 15.9767 23.5196C16.1214 23.3749 16.2027 23.1787 16.2027 22.9741C16.2027 22.7694 16.1214 22.5732 15.9767 22.4285C15.832 22.2838 15.6357 22.2025 15.4311 22.2025H14.9585L15.2233 21.4079C15.8685 21.3574 16.5036 21.2178 17.1105 20.9932C17.0151 21.1313 16.9675 21.2969 16.9747 21.4646C16.9819 21.6323 17.0436 21.7931 17.1505 21.9226C17.2574 22.0521 17.4036 22.1431 17.5669 22.182C17.7302 22.2209 17.9018 22.2054 18.0555 22.138C18.2092 22.0705 18.3368 21.9548 18.4188 21.8083C18.5008 21.6618 18.5328 21.4925 18.5099 21.3262C18.487 21.1599 18.4105 21.0056 18.292 20.8867C18.1734 20.7678 18.0194 20.6908 17.8531 20.6674C18.7027 20.2342 19.4541 19.6309 20.0605 18.8949V22.9741C20.0597 23.9316 19.8045 24.8717 19.321 25.6982C18.8376 26.5247 18.1432 27.2079 17.3089 27.6778C17.2733 27.6945 17.239 27.7138 17.2063 27.7357C16.4231 28.1556 15.5482 28.3754 14.6595 28.3754C13.7709 28.3754 12.896 28.1556 12.1128 27.7357C12.0801 27.7138 12.0458 27.6945 12.0102 27.6778C11.1759 27.2079 10.4815 26.5247 9.99801 25.6982C9.51453 24.8717 9.25935 23.9316 9.25859 22.9741ZM11.3136 31.7901L13.6972 35.9618L12.5562 37.1033L10.2532 32.4975L11.3136 31.7901ZM3.08609 37.6338C3.08727 36.7448 3.39488 35.8835 3.95706 35.1949C4.51924 34.5063 5.30162 34.0326 6.17234 33.8536V38.4053H3.08609V37.6338ZM3.85766 49.9788C3.6531 49.9785 3.45698 49.8972 3.31233 49.7525C3.16769 49.6079 3.08632 49.4118 3.08609 49.2072V39.9484H6.17234V46.1209C6.17234 46.1254 6.17292 46.1297 6.17302 46.1342C6.17302 46.1508 6.17418 46.1674 6.17553 46.1842C6.1763 46.1933 6.17707 46.2023 6.17813 46.2114C6.17977 46.2259 6.18218 46.2403 6.18469 46.2548C6.18662 46.2655 6.18835 46.2762 6.19067 46.2868C6.19298 46.2974 6.19655 46.3104 6.19973 46.322C6.20292 46.3337 6.20629 46.347 6.21025 46.3593C6.21092 46.3611 6.21131 46.363 6.21189 46.3649L7.41649 49.9788H3.85766ZM7.71547 39.1769V33.5606L8.8678 33.1764L11.6551 38.7504C11.7098 38.8597 11.7896 38.9545 11.8881 39.0269C11.9866 39.0993 12.1009 39.1473 12.2216 39.1668C12.2623 39.1735 12.3036 39.1769 12.3448 39.1769C12.4462 39.1769 12.5465 39.1569 12.6401 39.1182C12.7337 39.0794 12.8188 39.0226 12.8904 38.9509L13.888 37.9534V45.3494H13.2986L10.3752 43.8877C10.2681 43.8342 10.1499 43.8063 10.0302 43.8063C9.91036 43.8063 9.79222 43.8342 9.68507 43.8877L7.71547 44.8726V39.1769ZM26.233 43.0347V49.2072C26.2327 49.4118 26.1514 49.6079 26.0067 49.7525C25.8621 49.8972 25.666 49.9785 25.4614 49.9788H9.04313L7.88743 46.5118L10.0302 45.4404L12.7713 46.811C12.8785 46.8646 12.9966 46.8925 13.1164 46.8925H22.3752C22.5798 46.8925 22.776 46.8112 22.9207 46.6665C23.0654 46.5218 23.1467 46.3256 23.1467 46.1209V39.9484H26.233V43.0347ZM26.233 38.4053H23.1467V33.8525C24.017 34.0328 24.7988 34.507 25.3608 35.1955C25.9228 35.884 26.2307 36.745 26.233 37.6338V38.4053ZM27.7761 40.72H29.941C29.918 40.9797 29.9067 41.2359 29.9067 41.4916C29.9067 41.7472 29.918 42.0034 29.941 42.2631H27.7761V40.72ZM41.122 37.6338C41.1176 37.6338 41.1132 37.6345 41.1089 37.6346C41.0841 37.6346 41.0596 37.6366 41.0352 37.6394C41.0273 37.6403 41.0195 37.6411 41.0117 37.6422C40.9515 37.651 40.8925 37.6668 40.836 37.6893C40.8286 37.6922 40.8214 37.6956 40.8141 37.6989C40.7918 37.7086 40.7701 37.7193 40.7487 37.7312C40.7446 37.7334 40.7403 37.7349 40.7362 37.7372L38.0634 39.2804C38.0615 39.2815 38.0599 39.283 38.0579 39.284C38.0307 39.3 38.0044 39.3176 37.9792 39.3368C37.9777 39.3378 37.9764 39.3392 37.9751 39.3403C37.9524 39.3581 37.9307 39.3771 37.9102 39.3974C37.9046 39.4029 37.8991 39.4085 37.8936 39.4142C37.8775 39.4311 37.8621 39.4488 37.8473 39.4673C37.8422 39.4737 37.8368 39.48 37.8319 39.4866C37.8144 39.51 37.7983 39.5344 37.7836 39.5597L37.7797 39.5664C37.7654 39.5918 37.7525 39.618 37.7411 39.6448C37.7377 39.6526 37.7349 39.6605 37.7315 39.6684C37.723 39.6902 37.7155 39.7121 37.709 39.7343C37.7067 39.7421 37.7045 39.7499 37.7024 39.7578C37.6953 39.7853 37.6897 39.8133 37.6857 39.8415C37.6857 39.8435 37.6848 39.8455 37.6845 39.8477C37.6805 39.8789 37.6784 39.9104 37.6783 39.9419V39.9486V43.0349C37.6783 43.1703 37.714 43.3034 37.7817 43.4207C37.8494 43.538 37.9468 43.6354 38.0641 43.7032L40.7369 45.2463C40.7377 45.2468 40.7385 45.247 40.7393 45.2474C40.7572 45.2577 40.7761 45.266 40.7947 45.2747C40.8064 45.2802 40.8178 45.2868 40.8299 45.2917C40.8473 45.2988 40.8656 45.304 40.8835 45.3098C40.8974 45.3144 40.9109 45.3195 40.925 45.3236C40.9443 45.3288 40.9647 45.3319 40.9847 45.3355C40.9974 45.3379 41.0098 45.3414 41.0228 45.343C41.0561 45.3474 41.0898 45.3496 41.1234 45.3497H45.8434C45.1847 46.4923 44.2438 47.4468 43.1107 48.1218C41.9776 48.7968 40.6902 49.1697 39.3717 49.2048C38.0533 49.2399 36.7479 48.936 35.5805 48.3223C34.413 47.7086 33.4226 46.8055 32.7041 45.6996C32.6339 45.5921 32.5381 45.5038 32.4253 45.4427C32.3125 45.3817 32.1862 45.3497 32.0579 45.3497H27.7761V43.8063H30.8251C30.9383 43.8063 31.05 43.7814 31.1525 43.7334C31.255 43.6853 31.3456 43.6154 31.418 43.5284C31.4904 43.4415 31.5428 43.3397 31.5715 43.2302C31.6002 43.1207 31.6044 43.0063 31.5839 42.895C31.4051 41.9681 31.4051 41.0154 31.5839 40.0885C31.6045 39.9772 31.6003 39.8627 31.5716 39.7532C31.543 39.6437 31.4906 39.5418 31.4182 39.4548C31.3458 39.3678 31.2551 39.2978 31.1526 39.2498C31.0501 39.2018 30.9383 39.1769 30.8251 39.1769H27.7761V37.6338H32.0573C32.1856 37.6338 32.3119 37.6018 32.4247 37.5407C32.5375 37.4796 32.6334 37.3914 32.7035 37.2839C32.8624 37.0405 33.0348 36.8061 33.2199 36.5819C34.0116 35.6209 35.0244 34.8661 36.1715 34.3821C37.3186 33.8981 38.566 33.6993 39.8067 33.8026C41.0475 33.906 42.2447 34.3086 43.2959 34.9758C44.3472 35.643 45.221 36.555 45.8427 37.6338H41.122ZM39.9923 39.9484L41.122 39.2962L43.0232 40.3939V41.6983L39.9923 39.9484ZM42.2517 43.0347L41.122 43.6869L39.2208 42.5892V41.2848L42.2517 43.0347Z" fill="black"/>
<path d="M37.4016 35.5748C36.1276 35.9549 35.0102 36.7361 34.2158 37.8021C33.4213 38.8682 32.9922 40.1622 32.9922 41.4917C32.9922 42.8213 33.4213 44.1153 34.2158 45.1814C35.0102 46.2474 36.1276 47.0286 37.4016 47.4087C37.4987 47.4376 37.6006 47.4471 37.7014 47.4366C37.8021 47.4261 37.8999 47.3959 37.989 47.3477C38.0781 47.2994 38.1568 47.2341 38.2207 47.1555C38.2846 47.0768 38.3323 46.9863 38.3612 46.8892C38.3901 46.7921 38.3996 46.6902 38.3892 46.5894C38.3787 46.4887 38.3485 46.3909 38.3002 46.3018C38.252 46.2127 38.1867 46.134 38.108 46.0701C38.0294 46.0062 37.9389 45.9585 37.8418 45.9296C36.8864 45.6443 36.0487 45.0583 35.453 44.2588C34.8574 43.4593 34.5356 42.4889 34.5356 41.4918C34.5356 40.4948 34.8574 39.5244 35.453 38.7249C36.0487 37.9254 36.8864 37.3394 37.8418 37.0541C37.9389 37.0252 38.0294 36.9775 38.108 36.9136C38.1867 36.8497 38.252 36.771 38.3002 36.6819C38.3485 36.5928 38.3787 36.495 38.3892 36.3942C38.3996 36.2935 38.3901 36.1916 38.3612 36.0945C38.3323 35.9974 38.2846 35.9069 38.2207 35.8282C38.1568 35.7496 38.0781 35.6842 37.989 35.636C37.8999 35.5878 37.8021 35.5576 37.7014 35.5471C37.6006 35.5366 37.4987 35.5461 37.4016 35.575V35.5748Z" fill="black"/>
<path d="M19.5 19.5C15.9 22.7 11.3333 20.8333 9.5 19.5L10 22.5L13 25L19.5 23V19.5Z" fill="#FFE7CF"/>
</g>
</svg>
